<svg xmlns="http://www.w3.org/2000/svg" width="800" height="800" preserveAspectRatio="xMidYMid" viewBox="0 -28.5 256 256"><path fill="#5865f2" d="M216.79 17.398A208.39 208.39 0 0 0 164.02.815c-4.067 7.28-5.466 17.768-15.97 12.864-16.385-1.709-32.99-1.334-49.274 1.17-2.783-10.124-8.078-17.438-18.88-11.583a207.68 207.68 0 0 0-40.771 14.172C10.772 59.281-3.722 110.556.817 161.078c4.734 13.249 23.425 18.206 35.155 25.868 9.862 2.89 23.368 14.153 31.877 9.137 2.977-7.358 19.007-20.654 4.883-23.03-5.088-3.309-20.874-6.645-9.426-11.946 40.268 19.48 89.167 19.685 129.4 0 12.152 6.557-9.461 10.528-15.091 14.326.027 5.733 8.024 20.455 14.418 22.753 22.58-7.179 43.849-18.325 62.778-32.56 5.522-52.016-8.45-105.17-38.024-148.23zm-131.27 118.4c-19.502-.185-28.943-25.544-19.109-40.753 6.943-14.132 28.619-15.466 36.996-2.026 11.484 15.062 2.917 42.627-17.887 42.779zm84.979 0c-19.502-.185-28.943-25.544-19.109-40.753 6.942-14.132 28.619-15.466 36.996-2.026 11.485 15.057 2.903 42.624-17.886 42.779z"/></svg>