<svg xmlns="http://www.w3.org/2000/svg" width="800" height="800" viewBox="0 0 48 48"><g data-name="Layer 2"><g fill="none" data-name="invisible box"><path d="M0 0h48v48H0z"/><path d="M0 0h48v48H0z"/></g><path fill="#fff" d="M24 1.9C9.119 1.064-2.517 18.133 3.699 31.679c2.469 5.749 7.817 11.477 14.205 12.35 1.64-.89.948-2.934 1.097-4.445-1.683-.038-4.511.354-6.2-1.147-2.116-1.563-2.538-4.422-4.728-5.931 1.484-1.758 4.013 1.183 5.16 2.63 1.424 1.295 6.245 2.516 5.817-.521 1.401-2.4-2.76-1.559-4.058-2.819C11.422 30.232 8.864 26.544 9 22.6a10.714 10.714 0 0 1 2.9-7.6c-1.261-1.856-1.266-8.404 2.672-6.03l2.186.991L18.6 11.5c3.471-1.126 7.3-1.058 10.8-.1a9.012 9.012 0 0 1 6.4-2.8c1.741 1.95.63 4.83.704 6.746 3.81 4.387 3.333 12.107-1.693 15.396-1.868 1.316-4.077 2.062-6.311 2.458.896 1.932.355 4.105.5 6.158.155 1.549-.523 3.467.958 4.535 13.037-2.198 19.703-19.803 12.749-30.922-3.68-6.685-11.075-11.062-18.706-11.07z" data-name="icons Q2"/></g></svg>
