<svg xmlns="http://www.w3.org/2000/svg" width="800" height="800" viewBox="52 42 800 800"><g stroke-width="9.091"><path fill="#4285f4" d="M106.55 742.08h127.27V432.99L52 296.63v390.91c0 30.182 24.455 54.545 54.545 54.545"/><path fill="#34a853" d="M670.18 742.08h127.27c30.182 0 54.545-24.455 54.545-54.545v-390.91l-181.82 136.36"/><path fill="#fbbc04" d="M670.18 196.62v236.36L852 296.62v-72.727c0-67.455-77-105.91-130.91-65.455"/><path fill="#ea4335" d="M233.82 432.99V196.63L452 360.27l218.18-163.64v236.36L452 596.63"/><path fill="#c5221f" d="M52 223.9v72.727l181.82 136.36v-236.36l-50.909-38.182c-54-40.455-130.91-2-130.91 65.455"/></g></svg>