<svg xmlns="http://www.w3.org/2000/svg" width="800" height="800" viewBox="0 0 32 32"><path fill="#ff4346" d="M4.171 1.793C2.775 2.621.027 5.777 0 6.604V7.98c0 1.735 1.625 3.266 3.098 3.266 1.771 0 3.25-1.468 3.25-3.212 0 1.744 1.422 3.212 3.197 3.212 1.77 0 3.15-1.468 3.15-3.212 0 1.744 1.516 3.212 3.287 3.212h.032c1.776 0 3.29-1.468 3.29-3.212 0 1.744 1.381 3.212 3.152 3.212s3.196-1.468 3.196-3.212c0 1.744 1.475 3.212 3.245 3.212C30.375 11.245 32 9.714 32 7.98V6.604c-.032-.828-2.776-3.983-4.176-4.81-4.338-.157-7.343-.184-11.821-.184-4.483.005-10.591.073-11.826.183zm8.504 8.633a3.67 3.67 0 0 1-.625.796v.005a3.726 3.726 0 0 1-2.599 1.057 3.691 3.691 0 0 1-2.598-1.063 3.41 3.41 0 0 1-.6-.786c-.167.297-.4.552-.645.786a3.71 3.71 0 0 1-2.599 1.063h-.005a1.08 1.08 0 0 1-.348-.073 55.146 55.146 0 0 0-.224 3.937v.005c-.005.526-.005.952-.011 1.551.032 3.115-.307 10.087 1.375 11.801 2.604.604 7.395.88 12.195.885h.005c4.806-.005 9.591-.28 12.195-.885 1.683-1.712 1.344-8.686 1.376-11.8-.005-.6-.005-1.026-.011-1.552v-.005a52.346 52.346 0 0 0-.224-3.937 1.053 1.053 0 0 1-.349.073h-.005a3.71 3.71 0 0 1-2.598-1.063h.005c-.245-.235-.48-.488-.645-.786h-.005a3.41 3.41 0 0 1-.595.786 3.71 3.71 0 0 1-5.197 0 3.616 3.616 0 0 1-.615-.786l-.011-.016c-.172.308-.38.572-.615.802a3.71 3.71 0 0 1-2.598 1.063h-.005c-.031 0-.068 0-.104-.005-.036.005-.073.005-.11.005h-.004a3.684 3.684 0 0 1-2.593-1.063 3.417 3.417 0 0 1-.609-.786l-.01-.016zm-2.672 3.453c1.057.005 1.995 0 3.16 1.27.916-.092 1.875-.14 2.833-.14.958 0 1.917.048 2.832.14 1.167-1.27 2.104-1.27 3.16-1.27h.006c.5 0 2.5 0 3.89 3.911l1.495 5.368c1.109 3.995-.355 4.095-2.177 4.095-2.707-.1-4.207-2.068-4.207-4.037-1.5.251-3.25.371-4.999.371s-3.5-.12-4.994-.37c0 1.968-1.5 3.936-4.207 4.036-1.828-.005-3.292-.1-2.183-4.095l1.495-5.368c1.395-3.911 3.395-3.911 3.895-3.911zm5.994 3.077c-.005 0-2.849 2.62-3.363 3.547l1.863-.073v1.624c0 .08.751.047 1.5.011.749.036 1.495.068 1.495-.01V20.43l1.868.073c-.515-.927-3.363-3.547-3.363-3.547z"/></svg>