<svg width="800" height="800" version="1.1" xmlns="http://www.w3.org/2000/svg">
 <g transform="scale(11.111)" fill-rule="evenodd">
  <path d="m8 72h56a8 8 0 0 0 8-8v-56a8 8 0 0 0-8-8h-56a8 8 0 0 0-8 8v56a8 8 0 0 0 8 8z" fill="#007ebb"/>
  <path d="m62 62h-10.684v-18.198c0-4.99-1.896-7.778-5.845-7.778-4.296 0-6.54 2.902-6.54 7.778v18.198h-10.297v-34.667h10.296v4.67s3.096-5.73 10.452-5.73c7.353 0 12.616 4.491 12.616 13.778v21.949zm-45.651-39.206c-3.507 0-6.35-2.864-6.35-6.397 1e-3 -3.533 2.844-6.397 6.351-6.397s6.348 2.864 6.348 6.397-2.84 6.397-6.348 6.397zm-5.317 39.206h10.738v-34.667h-10.738z" fill="#fff"/>
 </g>
</svg>
