<svg xmlns="http://www.w3.org/2000/svg" width="800" height="800" viewBox="0 -4 48 48"><path fill="#00AAEC" fill-rule="evenodd" d="M48 4.74c-1.41.695-5.044 1.805-5.279 1.347A10.098 10.098 0 0 0 46.676.744c-2.189.903-5.378 3.592-7.343 1.425-3.84-3.272-10.154-2.738-13.387 1.144-2.182 2.424-3.036 5.923-2.305 9.089-7.88-.354-15.44-4.365-20.299-10.554C.725 6.258 2.09 12.504 6.391 15.334c-1.53.08-3.333-.766-4.463-1.135-.094 4.606 3.344 9.035 7.903 9.9-1.268.714-3.888-.103-4.325.55 1.29 3.79 5.044 6.62 9.075 6.636C10.546 34.57 5.164 36.117 0 35.47c10.023 6.79 24.6 5.909 33.512-2.373 6.373-5.808 9.94-14.528 9.577-23.132a20.212 20.212 0 0 0 4.911-5.226"/></svg>