<svg xmlns="http://www.w3.org/2000/svg" xml:space="preserve" width="800" height="800" viewBox="0 0 100 100"><path fill="red" d="M97.91 25.777c-1.15-4.33-4.538-7.74-8.841-8.897C81.272 14.777 50 14.777 50 14.777s-31.271 0-39.069 2.103c-4.303 1.157-7.691 4.568-8.841 8.897C0 33.625 0 50 0 50s0 16.374 2.088 24.223c1.15 4.33 4.54 7.74 8.841 8.897 7.8 2.103 39.072 2.103 39.072 2.103s31.271 0 39.07-2.103c4.303-1.158 7.69-4.568 8.841-8.897C100 66.375 100 50 100 50s0-16.374-2.09-24.223z"/><path fill="#f1f1f1" d="M39.603 65.118 66.18 50.002 39.603 34.884z"/></svg>