<?xml version="1.0" encoding="UTF-8" standalone="no"?>
<!-- Created with Inkscape (http://www.inkscape.org/) -->

<svg
   xmlns:dc="http://purl.org/dc/elements/1.1/"
   xmlns:cc="http://creativecommons.org/ns#"
   xmlns:rdf="http://www.w3.org/1999/02/22-rdf-syntax-ns#"
   xmlns:svg="http://www.w3.org/2000/svg"
   xmlns="http://www.w3.org/2000/svg"
   xmlns:sodipodi="http://sodipodi.sourceforge.net/DTD/sodipodi-0.dtd"
   xmlns:inkscape="http://www.inkscape.org/namespaces/inkscape"
   width="250.97501mm"
   height="74.728996mm"
   viewBox="0 0 376.4625 112.09349"
   version="1.1"
   id="svg8"
   sodipodi:docname="Andrew_Long.svg"
   inkscape:version="0.92.5 (2060ec1f9f, 2020-04-08)">
  <defs
     id="defs2" />
  <sodipodi:namedview
     id="base"
     pagecolor="#ffffff"
     bordercolor="#666666"
     borderopacity="1.0"
     inkscape:pageopacity="0.0"
     inkscape:pageshadow="2"
     inkscape:zoom="0.69999999"
     inkscape:cx="432.91701"
     inkscape:cy="116.40175"
     inkscape:document-units="mm"
     inkscape:current-layer="g1094"
     showgrid="false"
     inkscape:window-width="1366"
     inkscape:window-height="704"
     inkscape:window-x="0"
     inkscape:window-y="27"
     inkscape:window-maximized="1"
     scale-x="1.5" />
  <metadata
     id="metadata5">
    <rdf:RDF>
      <cc:Work
         rdf:about="">
        <dc:format>image/svg+xml</dc:format>
        <dc:type
           rdf:resource="http://purl.org/dc/dcmitype/StillImage" />
        <dc:title></dc:title>
      </cc:Work>
    </rdf:RDF>
  </metadata>
  <g
     inkscape:label="Layer 1"
     inkscape:groupmode="layer"
     id="layer1"
     transform="translate(0,-227.45289)">
    <flowRoot
       xml:space="preserve"
       id="flowRoot10"
       style="font-style:normal;font-variant:normal;font-weight:normal;font-stretch:normal;font-size:133.33334351px;line-height:1.25;font-family:'Cassandra Personal Use';-inkscape-font-specification:'Cassandra Personal Use';letter-spacing:0px;word-spacing:0px;fill:#000000;fill-opacity:1;stroke:none"
       transform="scale(0.26458333)"><flowRegion
         id="flowRegion12"
         style="font-style:normal;font-variant:normal;font-weight:normal;font-stretch:normal;font-family:'Cassandra Personal Use';-inkscape-font-specification:'Cassandra Personal Use'"><rect
           id="rect14"
           width="171.72594"
           height="189.90868"
           x="224.25386"
           y="805.33179"
           style="font-style:normal;font-variant:normal;font-weight:normal;font-stretch:normal;font-family:'Cassandra Personal Use';-inkscape-font-specification:'Cassandra Personal Use'" /></flowRegion><flowPara
         id="flowPara16" /></flowRoot>    <g
       id="g1094"
       transform="matrix(0.9999966,0,0,1.0000005,0,42.54636)">
      <g
         transform="matrix(0.84992885,0,0,0.95018131,-25.674643,33.968813)"
         id="text20"
         style="font-style:normal;font-variant:normal;font-weight:normal;font-stretch:normal;font-size:35.27777863px;line-height:1.25;font-family:Andrew;-inkscape-font-specification:Andrew;letter-spacing:0px;word-spacing:0px;fill:#00c8ff;fill-opacity:1;stroke:none;stroke-width:0.26458332"
         aria-label="Andrew">
        <path
           inkscape:connector-curvature="0"
           id="path26"
           style="font-style:normal;font-variant:normal;font-weight:normal;font-stretch:normal;font-family:'Cassandra Personal Use';-inkscape-font-specification:'Cassandra Personal Use';fill:#00c8ff;fill-opacity:1;stroke-width:0.26458332"
           d="m 78.573826,159.25797 q 0.811389,-0.10584 1.340555,0.10583 0.564445,0.17639 0.917223,0.45861 0.388055,0.35278 0.670277,0.77611 -1.869722,3.35139 -3.880555,7.09083 -0.846667,1.5875 -1.834445,3.45723 -0.9525,1.83444 -2.010833,3.84527 -1.023056,2.01084 -2.081389,4.16278 -1.023056,2.11667 -2.046111,4.26861 2.398889,1.19945 3.986389,3.31611 1.5875,2.11667 1.763889,5.43278 2.328333,-1.09361 4.162778,-2.36361 1.869722,-1.30528 3.104444,-2.71639 0.423333,-0.49389 0.846667,-0.56444 0.458611,-0.10584 0.776111,0.10583 0.3175,0.17639 0.388055,0.635 0.07056,0.42333 -0.282222,1.02306 -0.458611,0.81139 -1.340555,1.65805 -0.846667,0.81139 -2.046112,1.62278 -1.164166,0.77611 -2.610555,1.55222 -1.446389,0.74084 -3.069167,1.41111 -0.105833,1.02306 -0.3175,2.15195 -0.529167,2.64583 -1.869722,5.15055 -1.305278,2.46945 -2.998611,4.37445 -1.693334,1.905 -3.598334,3.03389 -1.905,1.16416 -3.598333,1.16416 -2.293056,0 -3.598334,-0.98777 -1.27,-0.98778 -1.799166,-2.68111 -0.493889,-1.69334 -0.3175,-3.95112 0.176389,-2.29305 0.811389,-4.90361 -0.599723,-0.0706 -1.164167,-0.10583 -0.529167,-0.0706 -1.058333,-0.17639 -1.164167,-0.17639 -2.751667,-0.52917 -1.5875,-0.38805 -3.210278,-0.9525 -1.481667,1.86973 -2.786945,3.4925 -1.27,1.62278 -2.293055,2.89278 -0.987778,1.23472 -1.658056,2.01084 -0.635,0.77611 -0.846666,0.9525 -0.493889,0.42333 -1.199445,1.16416 -0.705556,0.74084 -1.5875,1.48167 -0.846667,0.74083 -1.869722,1.34055 -1.023056,0.59973 -2.116667,0.77612 -1.093611,0.17638 -2.257778,-0.24695 -1.128889,-0.42333 -2.257778,-1.76389 -0.423333,-0.45861 -0.635,-1.23472 -0.211666,-0.77611 -0.105833,-1.41111 0.105833,-0.635 0.599722,-0.88195 0.493889,-0.21166 1.446389,0.35278 0.282222,0.17639 0.529167,0.45861 0.282222,0.28223 0.564444,0.56445 0.282223,0.3175 0.564445,0.56444 0.282222,0.24695 0.564444,0.35278 0.776111,0.28222 2.046111,-0.52917 1.305278,-0.77611 2.963334,-2.39889 1.658055,-1.62277 3.633611,-3.91583 2.010833,-2.32833 4.198056,-5.08 -0.987778,-0.52917 -1.799167,-1.16417 -0.811389,-0.635 -1.340556,-1.41111 -0.493889,-0.77611 -0.635,-1.69333 -0.141111,-0.91722 0.211667,-2.01083 0.458611,-1.51695 1.763889,-2.75167 1.340556,-1.23472 3.210278,-2.15195 1.869722,-0.91722 4.162778,-1.48166 2.328333,-0.56445 4.797778,-0.77611 2.116666,-2.78695 4.198055,-5.50334 2.116667,-2.71639 4.092223,-5.15055 2.010833,-2.43417 3.845277,-4.51556 1.834445,-2.11666 3.457223,-3.66889 1.622778,-1.55222 2.928055,-2.46944 1.340556,-0.91722 2.328334,-1.05833 z m -5.644445,36.195 q -2.2225,0.77611 -4.550833,1.34055 -2.293056,0.56445 -4.621389,0.84667 -0.635,2.01083 -1.023056,3.70417 -0.388055,1.65805 -0.423333,2.92805 -0.03528,1.27 0.3175,2.04611 0.352778,0.81139 1.164166,0.98778 1.199445,0.28222 2.575278,-0.635 1.375834,-0.91722 2.645834,-2.50472 1.27,-1.5875 2.293055,-3.63361 1.023056,-2.04611 1.446389,-4.09223 z M 51.19827,194.42991 q 1.164166,0.59972 2.363611,0.91722 1.199444,0.3175 2.116666,0.38806 0.705556,0.0705 1.446389,0.10583 0.740834,0.0353 1.481667,0.0353 0.846667,-2.8575 2.010833,-5.89139 1.199445,-3.03389 2.54,-5.92667 -0.211666,0 -0.423333,0 -0.211667,0 -0.423333,-0.0353 -0.740834,-0.0353 -1.516945,-0.0353 -0.740833,0 -1.481666,0.0706 z m 13.370278,0.9525 q 2.257777,-0.35278 4.409722,-0.91722 2.187222,-0.59972 4.198056,-1.37583 0.03528,-3.06917 -1.199445,-4.90362 -1.234722,-1.83444 -3.245555,-2.78694 -1.199445,2.61055 -2.257778,5.15055 -1.058334,2.50473 -1.905,4.83306 z m -9.066389,-10.83028 q -1.728612,0.3175 -3.245556,0.84667 -1.481667,0.49389 -2.610556,1.16417 -1.093611,0.635 -1.763889,1.41111 -0.635,0.77611 -0.670277,1.62277 -0.07056,1.02306 0.423333,1.86973 0.529167,0.84666 1.340555,1.55222 z M 70.847992,169.2063 q -0.176389,0.24694 -1.023055,1.30528 -0.811389,1.05833 -2.081389,2.71639 -1.27,1.65805 -2.928056,3.81 -1.658056,2.11666 -3.527778,4.51555 1.375834,0.0706 2.681111,0.21167 0.07056,0.0353 0.246945,0.0353 1.164167,-2.46945 2.293055,-4.65667 1.128889,-2.18722 2.046112,-3.84528 0.917222,-1.69333 1.516944,-2.75167 0.635,-1.05833 0.776111,-1.34055 z" />
        <path
           inkscape:connector-curvature="0"
           id="path28"
           style="font-style:normal;font-variant:normal;font-weight:normal;font-stretch:normal;font-family:'Cassandra Personal Use';-inkscape-font-specification:'Cassandra Personal Use';fill:#00c8ff;fill-opacity:1;stroke-width:0.26458332"
           d="m 85.02962,184.26991 q 1.869722,0.0706 2.398889,0.88194 0.529167,0.77612 0.211667,1.86973 -0.07056,0.24694 -0.529167,1.02305 -0.423333,0.77611 -1.093611,1.905 -0.635,1.12889 -1.481667,2.50472 -0.811389,1.37584 -1.622778,2.82223 l -1.023055,1.83444 q 1.164167,-1.27 2.54,-2.71639 1.411111,-1.44639 2.8575,-2.8575 1.481667,-1.41111 2.998611,-2.71639 1.516945,-1.30527 2.928056,-2.29305 1.446389,-1.02306 2.716389,-1.62278 1.305278,-0.59972 2.328333,-0.635 1.199445,-0.0353 2.010833,0.24694 0.84667,0.28223 1.34056,0.74084 0.49389,0.42333 0.67027,0.91722 0.21167,0.45861 0.21167,0.81139 -0.0353,1.12889 -0.635,2.61055 -0.56444,1.44639 -1.44639,2.99862 -0.846665,1.51694 -1.834443,3.03389 -0.987778,1.48166 -1.834444,2.68111 -0.811389,1.16416 -1.340556,1.86972 -0.493889,0.70555 -0.388055,0.67028 1.023055,-0.21167 2.610555,-1.27 1.622778,-1.05834 3.421943,-2.54 1.79917,-1.48167 3.59834,-3.175 1.83444,-1.69334 3.31611,-3.13973 1.51694,-1.48166 2.50472,-2.54 1.02305,-1.05833 1.16417,-1.23472 0.21166,-0.28222 0.49388,-0.35278 0.3175,-0.10583 0.56445,0.0353 0.24694,0.10583 0.3175,0.52917 0.0705,0.38805 -0.17639,1.09361 -0.14111,0.35278 -1.30528,1.72861 -1.16416,1.34056 -2.99861,3.175 -1.79917,1.83445 -4.05694,3.91583 -2.2225,2.04612 -4.480282,3.84528 -2.2225,1.76389 -4.303889,2.96334 -2.046111,1.19944 -3.4925,1.34055 -0.740833,0.0706 -1.481666,-0.0705 -0.705556,-0.14112 -1.27,-0.52917 -0.564445,-0.38806 -0.917223,-1.02306 -0.352777,-0.67027 -0.352777,-1.65805 0,-0.88195 0.599722,-2.25778 0.599722,-1.41111 1.516944,-2.99861 0.917222,-1.62278 1.975556,-3.24556 1.093611,-1.65805 2.010833,-3.03389 0.917222,-1.37583 1.516945,-2.29305 0.635,-0.91722 0.670277,-1.09361 0.03528,-0.24695 -0.105833,-0.28223 -0.105833,-0.0705 -0.282222,0 -0.141111,0.0353 -0.3175,0.14112 -0.176389,0.0705 -0.282222,0.14111 -1.093611,0.77611 -2.681111,2.15194 -1.552223,1.37583 -3.316112,3.06917 -1.763889,1.65805 -3.563055,3.45722 -1.763889,1.79917 -3.316112,3.38667 -1.552222,1.55222 -2.681111,2.75166 -1.128889,1.19945 -1.552222,1.65806 -0.388056,0.49389 -0.740833,0.74083 -0.388056,0.28223 -0.987778,0.3175 -0.599722,0.0353 -1.128889,-0.17639 -0.564444,-0.21166 -0.917222,-0.70555 -0.352778,-0.52917 -0.282222,-1.34056 0.105833,-1.16416 0.776111,-2.96333 0.670277,-1.79917 1.658055,-3.81 0.987778,-2.01083 2.151945,-4.02167 1.199444,-2.04611 2.328333,-3.66889 1.164167,-1.62277 2.151945,-2.61055 1.023055,-1.02306 1.658055,-0.98778 z" />
        <path
           inkscape:connector-curvature="0"
           id="path30"
           style="font-style:normal;font-variant:normal;font-weight:normal;font-stretch:normal;font-family:'Cassandra Personal Use';-inkscape-font-specification:'Cassandra Personal Use';fill:#00c8ff;fill-opacity:1;stroke-width:0.26458332"
           d="m 132.90156,173.58074 q 0.17639,0.0353 0.635,0.10584 0.49389,0.0705 0.91722,0.35277 0.42334,0.28223 0.59972,0.84667 0.21167,0.56445 -0.10583,1.55222 -0.0705,0.17639 -0.88194,1.51695 -0.77611,1.34055 -1.97556,3.38666 -1.16417,2.04612 -2.61055,4.51556 -1.41112,2.46944 -2.71639,4.93889 -1.27,2.46944 -2.29306,4.65667 -1.02305,2.18722 -1.41111,3.63361 -0.0706,0.14111 -0.0706,0.45861 0.0353,0.28222 0.14112,0.56444 0.14111,0.24695 0.42333,0.38806 0.28222,0.14111 0.81139,-0.0353 1.51694,-0.45861 2.96333,-1.62278 1.44639,-1.19944 2.75167,-2.71639 1.30528,-1.51694 2.43416,-3.175 1.12889,-1.69333 1.97556,-3.10444 0.88194,-1.44639 1.44639,-2.39889 0.59972,-0.98778 0.84667,-1.12889 0.67027,-0.42333 1.19944,-0.17639 0.56444,0.21167 0.56444,0.91722 0,0.24695 -0.49388,1.05834 -0.49389,0.81139 -1.23473,1.94028 -0.74083,1.09361 -1.62277,2.36361 -0.84667,1.23472 -1.65806,2.32833 -0.77611,1.09361 -1.37583,1.86972 -0.56445,0.77611 -0.70556,0.9525 -0.14111,0.17639 -0.81139,0.84667 -0.635,0.635 -1.62278,1.51694 -0.9525,0.88195 -2.18722,1.83445 -1.19944,0.91722 -2.50472,1.62278 -1.30528,0.70555 -2.61056,0.98777 -1.30527,0.3175 -2.39888,-0.0705 -1.69334,-0.59972 -1.905,-2.46945 -0.17639,-1.905 0.56444,-4.55083 -0.81139,1.02306 -2.04611,2.25778 -1.23472,1.19944 -2.75167,2.25778 -1.48166,1.02305 -3.13972,1.69333 -1.62278,0.67028 -3.21028,0.56444 -1.05833,-0.0353 -1.65805,-0.38805 -0.59973,-0.35278 -0.9525,-0.88195 -0.38806,-0.56444 -0.635,-1.27 -0.24695,-0.74083 -0.59973,-1.5875 -0.38805,-0.91722 -0.14111,-2.43416 0.24695,-1.55222 1.02306,-3.31611 0.77611,-1.79917 2.01083,-3.59834 1.23472,-1.83444 2.8575,-3.28083 1.62278,-1.44639 3.56306,-2.32833 1.94028,-0.88195 4.1275,-0.81139 2.68111,0.10583 3.98639,1.02305 1.30527,0.91722 1.69333,2.39889 1.12889,-2.15194 2.25778,-4.09222 1.16416,-1.97556 2.11666,-3.52778 0.9525,-1.5875 1.62278,-2.61055 0.70556,-1.02306 0.88195,-1.30528 0.3175,-0.45861 0.77611,-0.91722 0.49389,-0.45862 1.05833,-0.81139 0.56445,-0.38806 1.09361,-0.56445 0.56445,-0.21166 0.98778,-0.17639 z m -23.95361,27.86945 q 0.77611,0.0705 2.18722,-0.59972 1.41111,-0.67028 2.96333,-1.83445 1.55223,-1.16416 2.96334,-2.61055 1.44639,-1.48167 2.29305,-2.99861 0.3175,-0.81139 0.67028,-1.62278 0.38806,-0.81139 0.77611,-1.62278 0.10584,-0.59972 0.0353,-1.30528 -0.0706,-0.70555 -0.35278,-1.27 -0.28222,-0.59972 -0.77611,-0.9525 -0.49389,-0.35278 -1.23472,-0.3175 -0.70556,0.0353 -1.62278,0.70556 -0.91722,0.67027 -1.905,1.72861 -0.98778,1.02305 -2.01083,2.36361 -0.98778,1.34055 -1.86972,2.75167 -0.84667,1.37583 -1.51695,2.71639 -0.67028,1.34055 -1.02306,2.39888 -0.3175,1.05834 -0.24694,1.72862 0.0706,0.67027 0.67028,0.74083 z" />
        <path
           inkscape:connector-curvature="0"
           id="path32"
           style="font-style:normal;font-variant:normal;font-weight:normal;font-stretch:normal;font-family:'Cassandra Personal Use';-inkscape-font-specification:'Cassandra Personal Use';fill:#00c8ff;fill-opacity:1;stroke-width:0.26458332"
           d="m 136.99379,180.0013 q 0.74083,-0.0353 1.19944,0.3175 0.49389,0.35278 0.49389,1.16417 0,0.38805 -0.28222,1.09361 -0.24695,0.70555 -0.52917,1.41111 -0.38805,0.81139 -0.81139,1.72861 0.24695,0.38805 1.23472,0.38805 0.98778,-0.0353 2.25778,-0.24694 1.27,-0.21167 2.61056,-0.45861 1.34055,-0.24695 2.29305,-0.3175 0.74084,-0.0353 1.12889,0.3175 0.38806,0.3175 0.52917,0.81139 0.14111,0.49389 0.0353,1.05833 -0.0706,0.52917 -0.3175,0.88195 -0.14111,0.21166 -0.70556,1.23472 -0.56444,0.98778 -1.30528,2.43416 -0.70555,1.41112 -1.44639,3.03389 -0.70555,1.62278 -1.12888,3.03389 -0.42334,1.37584 -0.42334,2.36361 0.0353,0.98778 0.81139,1.09362 0.42333,0.0705 1.44639,-0.635 1.02306,-0.70556 2.36361,-1.905 1.37583,-1.19945 2.89278,-2.78695 1.51694,-1.5875 2.92805,-3.24556 1.44639,-1.65805 2.61056,-3.28083 1.19944,-1.62278 1.86972,-2.92805 0.17639,-0.35278 0.52917,-0.45862 0.38805,-0.14111 0.74083,-0.0353 0.38806,0.10583 0.59972,0.45861 0.24695,0.35278 0.14112,0.98778 -0.0353,0.17638 -0.59973,1.09361 -0.52916,0.88194 -1.44639,2.2225 -0.91722,1.34055 -2.18722,2.99861 -1.27,1.62278 -2.75166,3.28083 -1.44639,1.65806 -3.06917,3.175 -1.62278,1.51695 -3.28083,2.61056 -1.65806,1.05833 -3.31612,1.55222 -1.62277,0.52917 -3.13972,0.17639 -1.44639,-0.35278 -2.2225,-1.16417 -0.74083,-0.81139 -0.9525,-1.94028 -0.21166,-1.12888 0,-2.46944 0.21167,-1.34056 0.635,-2.68111 0.45861,-1.34056 1.05834,-2.61056 0.59972,-1.30528 1.16416,-2.32833 0.56445,-1.02306 0.9525,-1.65806 0.42334,-0.67027 0.52917,-0.81139 0.38805,-0.49388 0.0705,-0.74083 -0.28222,-0.24694 -0.77611,-0.0705 -0.52916,0.21166 -1.48166,0.35277 -0.91723,0.14111 -1.86973,-0.10583 -0.91722,-0.24694 -1.62277,-1.05833 -0.70556,-0.81139 -0.74084,-2.50473 -0.0353,-0.52916 0.14111,-1.34055 0.21167,-0.81139 0.635,-1.55222 0.42334,-0.77611 1.02306,-1.34056 0.635,-0.56444 1.48167,-0.59972 z" />
        <path
           inkscape:connector-curvature="0"
           id="path34"
           style="font-style:normal;font-variant:normal;font-weight:normal;font-stretch:normal;font-family:'Cassandra Personal Use';-inkscape-font-specification:'Cassandra Personal Use';fill:#00c8ff;fill-opacity:1;stroke-width:0.26458332"
           d="m 163.8754,183.70547 q 1.05833,-0.0353 1.79916,0.17638 0.77612,0.17639 1.30528,0.49389 0.52917,0.3175 0.84667,0.70556 0.3175,0.38805 0.45861,0.74083 0.38806,1.02306 0.3175,1.79917 -0.0353,0.74083 -0.28222,1.41111 -0.59972,1.62278 -1.76389,2.89278 -1.12889,1.27 -2.54,2.25778 -1.37583,0.9525 -2.8575,1.65805 -1.48167,0.67028 -2.78695,1.12889 -1.30527,0.42333 -2.25777,0.67028 -0.9525,0.21167 -1.27,0.21167 -0.0706,0.88194 -0.0353,1.62277 0.0705,0.74084 0.3175,1.30528 0.28222,0.52917 0.74083,0.84667 0.49389,0.28222 1.27,0.24694 2.18722,-0.0706 4.16278,-0.9525 2.01083,-0.88194 3.77472,-2.18722 1.76389,-1.34056 3.28084,-2.96333 1.55222,-1.65806 2.8575,-3.28084 1.30527,-1.62278 2.36361,-3.06916 1.05833,-1.44639 1.86972,-2.39889 0.24694,-0.3175 0.59972,-0.3175 0.35278,-0.0353 0.59972,0.14111 0.28223,0.14111 0.38806,0.45861 0.10583,0.3175 -0.10583,0.70555 -0.21167,0.35278 -0.77612,1.30528 -0.56444,0.91722 -1.44638,2.2225 -0.84667,1.27 -2.01084,2.78695 -1.16416,1.48166 -2.57528,2.99861 -1.41111,1.51694 -3.06916,2.96333 -1.62278,1.41111 -3.45722,2.50472 -1.83445,1.05834 -3.84528,1.65806 -2.01084,0.635 -4.16278,0.59972 -1.69333,-0.0353 -2.89278,-0.52916 -1.16417,-0.45862 -1.94028,-1.27 -0.77611,-0.84667 -1.12889,-1.97556 -0.35277,-1.16417 -0.35277,-2.50472 0,-1.27 0.45861,-2.8575 0.42333,-1.62278 1.27,-3.28084 0.84666,-1.65805 2.08139,-3.21027 1.27,-1.5875 2.89278,-2.82223 1.62277,-1.23472 3.59833,-2.01083 1.97555,-0.81139 4.30389,-0.88194 z m 0.56444,2.43416 q -1.72861,0.17639 -3.21028,1.23472 -1.48166,1.02306 -2.64583,2.46945 -1.16417,1.41111 -2.01083,2.99861 -0.81139,1.55222 -1.23473,2.75167 1.12889,-0.24695 2.64584,-0.84667 1.55222,-0.59972 3.06917,-1.48167 1.51694,-0.88194 2.8575,-1.97555 1.34055,-1.12889 2.08138,-2.46945 0.24695,-0.42333 0.28223,-0.88194 0.0705,-0.49389 -0.10584,-0.91722 -0.17639,-0.42334 -0.59972,-0.67028 -0.42333,-0.24695 -1.12889,-0.21167 z" />
        <path
           inkscape:connector-curvature="0"
           id="path36"
           style="font-style:normal;font-variant:normal;font-weight:normal;font-stretch:normal;font-family:'Cassandra Personal Use';-inkscape-font-specification:'Cassandra Personal Use';fill:#00c8ff;fill-opacity:1;stroke-width:0.26458332"
           d="m 178.97427,183.28213 q 0.635,0 1.02306,0.28222 0.42333,0.24695 0.635,0.59973 0.21167,0.3175 0.24694,0.70555 0.0706,0.35278 0.0353,0.59972 -0.21167,0.98778 -1.16417,2.64584 -0.91722,1.65805 -2.04611,3.56305 -1.12889,1.86973 -2.18722,3.77473 -1.02305,1.905 -1.41111,3.38666 -0.21167,0.81139 0,1.44639 0.24694,0.59972 1.05833,0.42334 0.74084,-0.14112 2.01084,-1.02306 1.27,-0.91722 2.78694,-2.54 1.51695,-1.62278 3.10445,-3.91583 1.62277,-2.32834 3.03388,-5.29167 0,-0.0353 0.0706,-0.10583 0.81139,-1.55223 1.905,-2.57528 1.09361,-1.05834 2.61056,-1.12889 0.98777,-0.0353 1.41111,0.21167 0.42333,0.21166 0.49389,0.59972 0.10583,0.35278 -0.0353,0.77611 -0.10584,0.38805 -0.17639,0.70555 -0.10583,0.38806 -0.45861,1.55223 -0.35278,1.12889 -0.77611,2.64583 -0.42334,1.48167 -0.88195,3.13972 -0.45861,1.65806 -0.77611,3.03389 -0.3175,1.34056 -0.45861,2.25778 -0.10583,0.88194 0.14111,0.88194 0.70556,0 1.79917,-0.91722 1.12889,-0.9525 2.36361,-2.43416 1.27,-1.48167 2.50472,-3.28084 1.23472,-1.83444 2.18722,-3.59833 -0.81138,-0.67028 -1.27,-1.83445 -0.45861,-1.16416 -0.17638,-2.61055 0.14111,-0.84667 0.49388,-1.44639 0.35278,-0.59972 0.77612,-0.98778 0.45861,-0.38805 0.91722,-0.56444 0.49389,-0.21167 0.88194,-0.21167 0.45861,-0.0353 0.91722,0.0706 0.49389,0.10583 0.84667,0.38805 0.38806,0.24695 0.59972,0.70556 0.21167,0.45861 0.14111,1.19944 -0.10583,0.98778 -0.38805,2.08139 -0.28222,1.05833 -0.70556,2.18722 0.91723,0.14111 1.905,0 1.02306,-0.17639 1.86973,-0.49389 0.88194,-0.35277 1.55222,-0.77611 0.67028,-0.42333 0.9525,-0.84666 0.28222,-0.42334 0.635,-0.45862 0.35278,-0.0353 0.635,0.14112 0.3175,0.17638 0.45861,0.56444 0.14111,0.35278 0.0353,0.74083 -0.49389,0.74084 -1.48167,1.41111 -0.9525,0.635 -2.18722,1.05834 -1.19945,0.42333 -2.57528,0.59972 -1.34056,0.14111 -2.61056,-0.0706 -1.05833,2.25778 -2.57527,4.44501 -1.48167,2.18722 -3.175,3.91583 -1.69334,1.69333 -3.4925,2.75167 -1.76389,1.05833 -3.38667,1.05833 -0.56445,0 -1.27,-0.24695 -0.70556,-0.24694 -1.30528,-0.77611 -0.59972,-0.52916 -1.02305,-1.37583 -0.38806,-0.84667 -0.3175,-2.04611 0,-0.21167 0.0705,-1.02306 0.0706,-0.81139 0.24695,-1.94027 -1.55223,2.29305 -3.31612,4.33916 -1.72861,2.01084 -3.4925,3.38667 -1.72861,1.37583 -3.38666,1.905 -1.65806,0.52917 -3.06917,-0.21167 -0.91722,-0.45861 -1.27,-1.44639 -0.3175,-0.98777 -0.28222,-2.25777 0.0705,-1.30528 0.45861,-2.82223 0.42333,-1.55222 0.98778,-3.10444 0.56444,-1.5875 1.27,-3.10445 0.70555,-1.55222 1.34055,-2.82222 0.67028,-1.30528 1.19945,-2.29305 0.56444,-0.98778 0.84666,-1.48167 0.56445,-0.98778 1.16417,-1.41111 0.59972,-0.45861 1.09361,-0.59972 0.52917,-0.17639 0.88195,-0.14112 0.38805,0.0353 0.52916,0.0353 z m 20.24945,1.62278 q -0.10583,0.0353 -0.21167,0.35278 -0.0705,0.28222 -0.10583,0.67028 -0.0353,0.38805 -0.0353,0.84666 0.0353,0.45861 0.17639,0.81139 0.24694,-0.59972 0.42333,-1.09361 0.17639,-0.52917 0.28223,-1.02306 0.0705,-0.28222 -0.10584,-0.45861 -0.14111,-0.17639 -0.42333,-0.10583 z" />
      </g>
      <g
         transform="matrix(0.84992885,0,0,0.95018131,-41.55755,20.680425)"
         id="text24"
         style="font-style:normal;font-variant:normal;font-weight:normal;font-stretch:normal;font-size:35.27777863px;line-height:1.25;font-family:Andrew;-inkscape-font-specification:Andrew;letter-spacing:0px;word-spacing:0px;fill:#00c8ff;fill-opacity:1;stroke:none;stroke-width:0.26458332"
         aria-label="Long">
        <path
           inkscape:connector-curvature="0"
           id="path39"
           style="font-style:normal;font-variant:normal;font-weight:normal;font-stretch:normal;font-family:'Cassandra Personal Use';-inkscape-font-specification:'Cassandra Personal Use';fill:#00c8ff;fill-opacity:1;stroke-width:0.26458332"
           d="m 102.24004,219.96844 q 1.83444,0.0353 2.75167,0.74083 0.9525,0.67028 1.30527,1.55223 0.35278,0.88194 0.3175,1.76388 -0.0353,0.88195 -0.10583,1.30528 -0.38806,2.18722 -1.79917,4.1275 -1.41111,1.94028 -3.4925,3.56306 -2.046108,1.5875 -4.621386,2.82222 -2.54,1.23472 -5.291667,1.97556 -1.375833,2.99861 -2.751667,6.20888 -1.340555,3.21028 -2.751666,6.35 -1.411112,3.13973 -2.928056,6.10306 -1.516945,2.92806 -3.139722,5.36222 2.716389,0.81139 4.938889,1.62278 2.257777,0.84667 4.303889,1.09361 2.081389,0.24695 4.056944,-0.3175 2.010834,-0.56444 4.198056,-2.54 2.187222,-1.97555 4.727226,-5.57389 2.54,-3.63361 5.67972,-9.48972 0.14111,-0.3175 0.49389,-0.38806 0.35278,-0.0705 0.67028,0.0706 0.3175,0.14111 0.45861,0.52917 0.14111,0.35277 -0.10584,0.9525 -2.71639,6.45583 -5.50333,10.58333 -2.78694,4.09222 -5.609167,6.38528 -2.786945,2.32833 -5.609167,3.13972 -2.786945,0.81139 -5.538611,0.70556 -2.751667,-0.10584 -5.432778,-0.84667 -2.681111,-0.74083 -5.221111,-1.5875 -1.5875,1.55222 -3.245556,2.43417 -1.658056,0.91722 -3.563056,1.02305 -0.599722,0.0353 -1.411111,-0.14111 -0.811389,-0.14111 -1.552222,-0.59972 -0.740833,-0.45861 -1.27,-1.27 -0.529167,-0.81139 -0.529167,-2.08139 0,-0.45861 0.141111,-1.37583 0.141111,-0.91723 0.635,-1.83445 0.529167,-0.91722 1.481667,-1.5875 0.987778,-0.67028 2.681111,-0.635 1.305278,0.0706 2.469445,0.17639 1.199444,0.10583 2.328333,0.28222 1.058333,-2.08139 2.2225,-4.65666 1.164167,-2.57528 2.434167,-5.3975 1.27,-2.82223 2.645833,-5.78556 1.375834,-2.96333 2.8575,-5.85611 -3.316111,0.10583 -6.173611,-0.67028 -2.822222,-0.81139 -4.550833,-2.71639 -0.352778,-0.38805 -0.529167,-0.88194 -0.141111,-0.49389 -0.03528,-0.81139 0.105833,-0.35278 0.493889,-0.38806 0.423333,-0.0705 1.164167,0.38806 0.9525,0.59972 2.2225,0.91722 1.305278,0.3175 2.822222,0.42333 1.552222,0.0706 3.280834,-0.0353 1.763888,-0.14111 3.563055,-0.45861 1.728611,-3.06917 3.527778,-5.75028 1.834444,-2.71639 3.774722,-4.69195 1.940278,-1.97555 3.951112,-3.10444 2.046111,-1.16417 4.162781,-1.12889 z m 0.77611,2.71639 q -1.30528,0.17639 -2.54,0.98778 -1.199445,0.81139 -2.363612,2.15194 -1.128889,1.34056 -2.257778,3.13972 -1.093611,1.76389 -2.151944,3.84528 2.010833,-0.74083 3.845278,-1.65805 1.834444,-0.91723 3.280836,-1.94028 1.44639,-1.05834 2.43416,-2.18722 0.98778,-1.16417 1.34056,-2.39889 0.10583,-0.35278 0,-0.70556 -0.0706,-0.35278 -0.28222,-0.635 -0.21167,-0.3175 -0.56445,-0.45861 -0.3175,-0.17639 -0.74083,-0.14111 z m -33.302223,44.16778 q 0.9525,-0.17639 2.2225,-1.97556 -0.599723,-0.14111 -1.164167,-0.28222 -0.564445,-0.10583 -1.128889,-0.17639 -1.27,-0.21167 -2.081389,0.24695 -0.776111,0.45861 -0.881944,1.02305 -0.07056,0.56445 0.635,0.98778 0.705555,0.42333 2.398889,0.17639 z" />
        <path
           inkscape:connector-curvature="0"
           id="path41"
           style="font-style:normal;font-variant:normal;font-weight:normal;font-stretch:normal;font-family:'Cassandra Personal Use';-inkscape-font-specification:'Cassandra Personal Use';fill:#00c8ff;fill-opacity:1;stroke-width:0.26458332"
           d="m 114.51664,243.25177 q 0.59972,0.0706 0.98778,0.28223 0.38806,0.21166 0.59972,0.49388 0.21167,0.24695 0.24695,0.45862 0.0353,0.21166 -0.0353,0.21166 -0.9525,0.0706 -2.11667,0.77611 -1.12889,0.67028 -2.32833,1.76389 -1.16417,1.05834 -2.32833,2.43417 -1.12889,1.34055 -2.04612,2.78694 -0.91722,1.41111 -1.55222,2.82223 -0.59972,1.37583 -0.77611,2.46944 -0.0705,0.3175 -0.10583,0.84667 -0.0353,0.49389 0.0353,0.98778 0.10583,0.45861 0.38805,0.84666 0.3175,0.35278 0.98778,0.45861 0.84667,0.10584 1.97555,-0.56444 1.12889,-0.70556 2.36362,-1.86972 1.27,-1.16417 2.46944,-2.61056 1.23472,-1.44639 2.25778,-2.82222 -0.67028,-0.35278 -1.09361,-0.88195 -0.42334,-0.52916 -0.70556,-1.16416 -0.24694,-0.67028 -0.35278,-1.37584 -0.0705,-0.70555 -0.0705,-1.41111 0.0353,-1.05833 0.635,-1.83444 0.635,-0.81139 1.51694,-1.19945 0.91722,-0.38805 1.905,-0.35277 1.02306,0 1.79917,0.52916 0.81139,0.49389 1.19944,1.55222 0.42334,1.02306 0.17639,2.68112 -0.0705,0.38805 -0.17639,0.77611 -0.0705,0.38805 -0.17639,0.77611 1.19945,-0.10584 2.43417,-0.45861 1.27,-0.38806 2.36361,-0.9525 1.09361,-0.59973 1.905,-1.30528 0.84667,-0.74083 1.23472,-1.48167 0.45862,-0.91722 0.91723,-1.34055 0.49389,-0.45861 0.81139,-0.38806 0.35277,0.0706 0.42333,0.635 0.10583,0.56445 -0.17639,1.62278 -0.28222,1.09361 -1.37583,2.15194 -1.09361,1.05834 -2.64584,1.94028 -1.51694,0.84667 -3.31611,1.41111 -1.79916,0.52917 -3.52778,0.635 -0.98777,2.15195 -2.54,4.16278 -1.55222,1.97556 -3.42194,3.45722 -1.83444,1.48167 -3.84528,2.29306 -2.01083,0.81139 -3.91583,0.56444 -1.97556,-0.24694 -3.10445,-1.09361 -1.09361,-0.84666 -1.62277,-1.94028 -0.56445,-1.09361 -0.70556,-2.25777 -0.141111,-1.16417 -0.176388,-2.04611 0,-0.635 0.352778,-1.94028 0.35278,-1.34056 1.12889,-2.89278 0.74083,-1.55222 1.905,-3.175 1.16417,-1.62278 2.78694,-2.89278 1.62278,-1.30528 3.70417,-2.04611 2.11667,-0.74083 4.72722,-0.52917 z m 1.41111,5.67973 q -0.0353,0.59972 0.0353,0.91722 0.0706,0.3175 0.24695,0.49389 0.17638,0.14111 0.38805,0.21166 0.24695,0.0353 0.52917,0.14111 0.24694,-0.38805 0.42333,-0.70555 0.21167,-0.3175 0.35278,-0.59972 0.52917,-1.09361 0.3175,-1.62278 -0.21167,-0.56445 -0.70556,-0.59972 -0.49389,-0.0706 -1.02305,0.38805 -0.52917,0.45861 -0.56445,1.37584 z" />
        <path
           inkscape:connector-curvature="0"
           id="path43"
           style="font-style:normal;font-variant:normal;font-weight:normal;font-stretch:normal;font-family:'Cassandra Personal Use';-inkscape-font-specification:'Cassandra Personal Use';fill:#00c8ff;fill-opacity:1;stroke-width:0.26458332"
           d="m 129.86246,243.63983 q 1.86972,0.0705 2.39889,0.88194 0.52917,0.77611 0.21167,1.86973 -0.0706,0.24694 -0.52917,1.02305 -0.42333,0.77611 -1.09361,1.905 -0.635,1.12889 -1.48167,2.50472 -0.81139,1.37584 -1.62278,2.82223 l -1.02305,1.83444 q 1.16416,-1.27 2.54,-2.71639 1.41111,-1.44639 2.8575,-2.8575 1.48166,-1.41111 2.99861,-2.71639 1.51694,-1.30528 2.92805,-2.29305 1.44639,-1.02306 2.71639,-1.62278 1.30528,-0.59972 2.32834,-0.635 1.19944,-0.0353 2.01083,0.24694 0.84667,0.28223 1.34056,0.74084 0.49389,0.42333 0.67027,0.91722 0.21167,0.45861 0.21167,0.81139 -0.0353,1.12889 -0.635,2.61055 -0.56444,1.44639 -1.44639,2.99861 -0.84667,1.51695 -1.83444,3.03389 -0.98778,1.48167 -1.83445,2.68112 -0.81139,1.16416 -1.34055,1.86972 -0.49389,0.70555 -0.38806,0.67028 1.02306,-0.21167 2.61056,-1.27 1.62277,-1.05834 3.42194,-2.54 1.79917,-1.48167 3.59834,-3.17501 1.83444,-1.69333 3.31611,-3.13972 1.51694,-1.48166 2.50472,-2.54 1.02305,-1.05833 1.16417,-1.23472 0.21166,-0.28222 0.49388,-0.35278 0.3175,-0.10583 0.56445,0.0353 0.24694,0.10583 0.3175,0.52917 0.0705,0.38805 -0.17639,1.09361 -0.14111,0.35278 -1.30528,1.72861 -1.16416,1.34055 -2.99861,3.175 -1.79917,1.83444 -4.05694,3.91583 -2.2225,2.04611 -4.48028,3.84528 -2.2225,1.76389 -4.30389,2.96333 -2.04611,1.19945 -3.4925,1.34056 -0.74083,0.0706 -1.48167,-0.0706 -0.70555,-0.14111 -1.27,-0.52916 -0.56444,-0.38806 -0.91722,-1.02306 -0.35278,-0.67028 -0.35278,-1.65805 0,-0.88195 0.59972,-2.25778 0.59973,-1.41111 1.51695,-2.99861 0.91722,-1.62278 1.97555,-3.24556 1.09362,-1.65805 2.01084,-3.03389 0.91722,-1.37583 1.51694,-2.29305 0.635,-0.91723 0.67028,-1.09361 0.0353,-0.24695 -0.10583,-0.28223 -0.10584,-0.0705 -0.28223,0 -0.14111,0.0353 -0.3175,0.14111 -0.17638,0.0706 -0.28222,0.14112 -1.09361,0.77611 -2.68111,2.15194 -1.55222,1.37583 -3.31611,3.06917 -1.76389,1.65805 -3.56306,3.45722 -1.76388,1.79917 -3.31611,3.38667 -1.55222,1.55222 -2.68111,2.75166 -1.12889,1.19945 -1.55222,1.65806 -0.38806,0.49389 -0.74083,0.74083 -0.38806,0.28222 -0.98778,0.3175 -0.59972,0.0353 -1.12889,-0.17639 -0.56444,-0.21166 -0.91722,-0.70555 -0.35278,-0.52917 -0.28222,-1.34056 0.10583,-1.16416 0.77611,-2.96333 0.67027,-1.79917 1.65805,-3.81 0.98778,-2.01084 2.15195,-4.02167 1.19944,-2.04611 2.32833,-3.66889 1.16417,-1.62278 2.15194,-2.61055 1.02306,-1.02306 1.65806,-0.98778 z" />
        <path
           inkscape:connector-curvature="0"
           id="path45"
           style="font-style:normal;font-variant:normal;font-weight:normal;font-stretch:normal;font-family:'Cassandra Personal Use';-inkscape-font-specification:'Cassandra Personal Use';fill:#00c8ff;fill-opacity:1;stroke-width:0.26458332"
           d="m 169.83218,243.46344 q 1.16416,0.0706 1.86972,0.35278 0.74083,0.28222 1.09361,0.70555 0.35278,0.42334 0.35278,0.9525 0.0353,0.49389 -0.21167,1.02306 -1.16416,2.61055 -2.36361,5.75028 -1.19944,3.10444 -2.43417,6.52639 2.15195,-1.30528 4.1275,-2.64584 1.97556,-1.34055 3.66889,-2.75166 1.72861,-1.44639 3.10445,-2.96334 1.37583,-1.51694 2.29305,-3.21028 0.21167,-0.42333 0.59973,-0.56444 0.42333,-0.14111 0.77611,-0.0353 0.35277,0.10584 0.52916,0.45861 0.17639,0.3175 -0.0353,0.84667 -0.84667,2.11667 -2.46945,4.02167 -1.5875,1.86972 -3.73944,3.59833 -2.11667,1.72861 -4.69195,3.31611 -2.57528,1.5875 -5.32694,3.10445 -1.27,3.4925 -2.68111,6.985 -1.37584,3.4925 -2.92806,6.70277 -1.51694,3.21028 -3.21028,5.96195 -1.65805,2.78694 -3.56305,4.83305 -1.86973,2.04612 -3.98639,3.21028 -2.11667,1.19945 -4.48028,1.16417 -0.9525,0 -2.04611,-0.28222 -1.12889,-0.28223 -2.04611,-1.05834 -0.9525,-0.74083 -1.51695,-2.08139 -0.59972,-1.30527 -0.49389,-3.38666 0.17639,-3.42195 2.01084,-6.31472 1.79916,-2.8575 4.65666,-5.3975 2.8575,-2.50473 6.49112,-4.7625 3.63361,-2.2225 7.44361,-4.40973 0.74083,-1.83444 1.37583,-3.59833 -0.635,0.77611 -1.44639,1.55222 -0.81139,0.77611 -1.83444,1.41111 -1.02306,0.59973 -2.32834,0.98778 -1.30527,0.38806 -2.92805,0.38806 -1.76389,0 -2.75167,-0.59973 -0.9525,-0.59972 -1.41111,-1.44638 -0.49389,-0.84667 -0.59972,-1.72862 -0.10584,-0.91722 -0.10584,-1.51694 0,-0.74083 0.3175,-2.11667 0.28223,-1.41111 0.9525,-3.03389 0.67028,-1.62277 1.72862,-3.35139 1.05833,-1.72861 2.57527,-3.13972 1.55223,-1.41111 3.56306,-2.36361 2.04611,-0.9525 4.65667,-1.09361 0.9525,-0.0353 1.62277,0.24694 0.70556,0.24695 1.19945,0.74084 0.49389,0.45861 0.81139,1.05833 0.3175,0.59972 0.52916,1.23472 l 0.59973,-1.72861 q 0.24694,-0.635 0.49389,-0.9525 0.28222,-0.35278 0.56444,-0.49389 0.3175,-0.14111 0.70556,-0.14111 0.38805,0 0.91722,0.0353 z M 146.44301,287.984 q 1.30528,-0.0706 2.89278,-1.97556 1.5875,-1.905 3.28083,-5.00944 1.72861,-3.06917 3.45722,-6.985 1.76389,-3.88056 3.38667,-7.9375 -3.28083,1.86972 -6.27944,3.84527 -2.99862,1.97556 -5.29167,4.19806 -2.29306,2.2225 -3.66889,4.7625 -1.41111,2.57528 -1.51694,5.57389 -0.0353,1.05833 0.24694,1.72861 0.28222,0.70556 0.81139,1.09361 0.49389,0.42333 1.19944,0.56445 0.67028,0.17638 1.48167,0.14111 z m 9.13694,-26.70528 q 1.30528,0 2.46945,-0.59972 1.19944,-0.59973 2.2225,-1.55223 1.02306,-0.9525 1.905,-2.11666 0.91722,-1.19945 1.62278,-2.32834 l 1.69333,-4.86833 q -0.0705,-0.10583 0,-0.3175 0.0706,-0.35278 -0.0353,-0.91722 -0.0705,-0.56445 -0.38805,-1.05834 -0.28222,-0.52916 -0.84667,-0.84666 -0.52917,-0.35278 -1.41111,-0.28222 -1.76389,0.17638 -3.10444,1.44638 -1.34056,1.23473 -2.32834,2.89278 -0.9525,1.65806 -1.65805,3.42195 -0.67028,1.72861 -1.09362,2.92805 -0.10583,0.3175 -0.21166,1.02306 -0.10584,0.67028 -0.0706,1.37583 0.0353,0.70556 0.3175,1.27 0.28222,0.52917 0.91722,0.52917 z" />
      </g>
      <g
         aria-label="A blog or "
         transform="matrix(0.93563924,0,0,1.068788,0.79376473,0)"
         style="font-style:normal;font-variant:normal;font-weight:normal;font-stretch:normal;font-size:26.8890419px;line-height:1.25;font-family:Andrew;-inkscape-font-specification:Andrew;letter-spacing:0px;word-spacing:0px;fill:#abafb0;fill-opacity:1;stroke:none;stroke-width:0.2016678"
         id="text1741">
        <path
           d="m 200.48047,198.2784 q 0.55661,-0.0726 0.91961,0.0726 0.3872,0.121 0.6292,0.3146 0.2662,0.242 0.4598,0.5324 -1.2826,2.29902 -2.66201,4.86423 -0.5808,1.08901 -1.25841,2.37161 -0.6534,1.25841 -1.37941,2.63782 -0.7018,1.37941 -1.4278,2.85562 -0.70181,1.452 -1.40361,2.92821 1.64561,0.82281 2.73461,2.27481 1.08901,1.45201 1.21001,3.72683 1.59721,-0.75021 2.85562,-1.62141 1.2826,-0.89541 2.12961,-1.86341 0.2904,-0.33881 0.5808,-0.38721 0.3146,-0.0726 0.53241,0.0726 0.2178,0.12101 0.2662,0.43561 0.0484,0.2904 -0.1936,0.7018 -0.31461,0.5566 -0.91961,1.13741 -0.5808,0.5566 -1.40361,1.1132 -0.7986,0.53241 -1.79081,1.06481 -0.9922,0.5082 -2.10541,0.96801 -0.0726,0.7018 -0.2178,1.4762 -0.363,1.81501 -1.28261,3.53322 -0.8954,1.69401 -2.05701,3.00082 -1.16161,1.30681 -2.46841,2.08121 -1.30681,0.79861 -2.46842,0.79861 -1.57301,0 -2.46841,-0.67761 -0.87121,-0.6776 -1.23421,-1.83921 -0.3388,-1.1616 -0.2178,-2.71041 0.121,-1.57301 0.5566,-3.36382 -0.4114,-0.0484 -0.7986,-0.0726 -0.363,-0.0484 -0.72601,-0.121 -0.7986,-0.121 -1.88761,-0.363 -1.089,-0.26621 -2.20221,-0.65341 -1.01641,1.28261 -1.91181,2.39582 -0.87121,1.1132 -1.57301,1.98441 -0.6776,0.847 -1.13741,1.3794 -0.4356,0.53241 -0.5808,0.65341 -0.3388,0.2904 -0.8228,0.7986 -0.48401,0.50821 -1.08901,1.01641 -0.5808,0.5082 -1.28261,0.9196 -0.7018,0.41141 -1.45201,0.53241 -0.7502,0.121 -1.5488,-0.1694 -0.77441,-0.29041 -1.54881,-1.21001 -0.29041,-0.3146 -0.43561,-0.84701 -0.1452,-0.5324 -0.0726,-0.968 0.0726,-0.4356 0.41141,-0.605 0.3388,-0.14521 0.9922,0.242 0.1936,0.121 0.363,0.3146 0.1936,0.1936 0.38721,0.3872 0.1936,0.2178 0.3872,0.3872 0.1936,0.1694 0.3872,0.242 0.5324,0.19361 1.40361,-0.363 0.8954,-0.5324 2.03281,-1.64561 1.13741,-1.1132 2.49261,-2.68621 1.37941,-1.59721 2.87982,-3.48482 -0.6776,-0.363 -1.23421,-0.79861 -0.5566,-0.4356 -0.9196,-0.968 -0.3388,-0.53241 -0.4356,-1.16161 -0.0968,-0.6292 0.1452,-1.37941 0.3146,-1.0406 1.21,-1.88761 0.91961,-0.847 2.20222,-1.47621 1.2826,-0.6292 2.85561,-1.0164 1.59721,-0.3872 3.29122,-0.53241 1.45201,-1.91181 2.87982,-3.77522 1.45201,-1.86341 2.80721,-3.53322 1.37941,-1.66981 2.63782,-3.09761 1.25841,-1.45201 2.37161,-2.51682 1.11321,-1.06481 2.00861,-1.69401 0.91961,-0.6292 1.59721,-0.726 z m -3.87202,24.82934 q -1.52461,0.5324 -3.12182,0.9196 -1.57301,0.38721 -3.17022,0.58081 -0.4356,1.37941 -0.7018,2.54101 -0.2662,1.13741 -0.2904,2.00861 -0.0242,0.87121 0.2178,1.40361 0.242,0.5566 0.7986,0.67761 0.82281,0.1936 1.76662,-0.43561 0.9438,-0.6292 1.81501,-1.71821 0.8712,-1.089 1.573,-2.49261 0.70181,-1.40361 0.99221,-2.80722 z m -14.90728,-0.70181 q 0.7986,0.41141 1.6214,0.62921 0.82281,0.2178 1.45201,0.2662 0.48401,0.0484 0.99221,0.0726 0.5082,0.0242 1.0164,0.0242 0.58081,-1.96021 1.37941,-4.04142 0.82281,-2.08121 1.74241,-4.06563 -0.1452,0 -0.2904,0 -0.1452,0 -0.2904,-0.0242 -0.5082,-0.0242 -1.04061,-0.0242 -0.5082,0 -1.0164,0.0484 z m 9.17185,0.65341 q 1.54881,-0.242 3.02502,-0.6292 1.5004,-0.41141 2.87981,-0.94381 0.0242,-2.10541 -0.8228,-3.36382 -0.84701,-1.25841 -2.22642,-1.91181 -0.8228,1.79081 -1.5488,3.53322 -0.72601,1.71821 -1.30681,3.31542 z m -6.21944,-7.42944 q -1.1858,0.2178 -2.22641,0.5808 -1.01641,0.3388 -1.79081,0.7986 -0.7502,0.43561 -1.21001,0.96801 -0.4356,0.5324 -0.4598,1.11321 -0.0484,0.7018 0.2904,1.2826 0.363,0.58081 0.91961,1.06481 z m 10.52706,-10.52706 q -0.121,0.1694 -0.7018,0.8954 -0.5566,0.72601 -1.42781,1.86341 -0.8712,1.13741 -2.00861,2.61362 -1.13741,1.45201 -2.42001,3.09761 0.9438,0.0484 1.83921,0.14521 0.0484,0.0242 0.1694,0.0242 0.7986,-1.69401 1.57301,-3.19442 0.7744,-1.50041 1.4036,-2.63782 0.62921,-1.1616 1.04061,-1.88761 0.4356,-0.726 0.5324,-0.9196 z"
           style="font-style:normal;font-variant:normal;font-weight:normal;font-stretch:normal;font-size:24.20013809px;font-family:'Cassandra Personal Use';-inkscape-font-specification:'Cassandra Personal Use';fill:#abafb0;stroke-width:0.2016678;fill-opacity:1"
           id="path1833"
           inkscape:connector-curvature="0" />
        <path
           d="m 223.20434,215.31529 q 1.089,0.16941 1.74241,0.87121 0.6776,0.7018 0.8954,2.08121 0.0484,0.2904 0.0242,0.77441 0,0.4598 -0.0968,1.0406 1.06481,-0.4356 2.05701,-0.8228 0.99221,-0.41141 1.81501,-0.77441 0.84701,-0.3872 1.50041,-0.7744 0.65341,-0.3872 1.01641,-0.77441 0.121,-0.121 0.3872,-0.0968 0.2662,0.0242 0.4598,0.1936 0.1936,0.14521 0.2178,0.43561 0.0484,0.2904 -0.2662,0.7018 -0.3146,0.4114 -1.0648,0.87121 -0.72601,0.4356 -1.76661,0.9196 -1.01641,0.484 -2.25062,0.99221 -1.2342,0.5082 -2.51681,1.0406 -0.363,1.28261 -0.99221,2.66202 -0.6292,1.37941 -1.59721,2.54101 -0.9438,1.13741 -2.25061,1.88761 -1.30681,0.75021 -3.00082,0.77441 -0.726,0 -1.21,-0.2662 -0.45981,-0.24201 -0.72601,-0.62921 -0.242,-0.363 -0.3146,-0.7744 -0.0726,-0.4114 -0.0242,-0.67761 0.1694,-0.8954 0.75021,-1.69401 0.5808,-0.7986 1.452,-1.5004 0.87121,-0.72601 1.96021,-1.35521 1.11321,-0.62921 2.32322,-1.18581 0.3388,-0.9438 0.5566,-1.81501 0.2178,-0.8954 0.2178,-1.54881 0,-0.6776 -0.2178,-1.0648 -0.2178,-0.41141 -0.7502,-0.41141 -0.48401,0.0242 -1.21001,0.53241 -0.726,0.484 -1.52461,1.21 -0.7986,0.72601 -1.57301,1.57301 -0.7744,0.82281 -1.35521,1.47621 -1.2342,2.75882 -1.6214,4.54963 -0.36301,1.76661 0.242,2.17801 0.1694,0.121 0.0726,0.2904 -0.0726,0.1694 -0.3388,0.3146 -0.26621,0.1452 -0.65341,0.242 -0.3872,0.121 -0.7986,0.121 -0.2904,0 -0.58081,-0.121 -0.2904,-0.121 -0.5324,-0.3388 -0.2178,-0.2178 -0.363,-0.5566 -0.1452,-0.3388 -0.1452,-0.77441 0.0242,-1.4762 0.5324,-3.31541 0.5082,-1.83921 1.25841,-3.77523 0.7502,-1.93601 1.64561,-3.82362 0.8954,-1.88761 1.71821,-3.46062 0.8228,-1.57301 1.42781,-2.68621 0.6292,-1.13741 0.847,-1.57301 0.3146,-0.62921 0.6292,-0.91961 0.33881,-0.2904 0.65341,-0.3872 0.3388,-0.121 0.6534,-0.0968 0.3146,0.0242 0.5808,0.0242 0.53241,0 0.91961,0.1936 0.4114,0.1694 0.6534,0.4356 0.2662,0.24201 0.33881,0.50821 0.0726,0.2662 -0.0242,0.4114 -1.62141,2.46841 -2.97662,4.71903 -1.33101,2.25061 -2.39582,4.25922 0.62921,-0.5808 1.35521,-1.11321 0.72601,-0.5566 1.45201,-0.968 0.7502,-0.4114 1.45201,-0.6292 0.726,-0.21781 1.33101,-0.12101 z m -5.54184,12.82608 q 0.29041,-0.0242 0.67761,-0.363 0.3872,-0.36301 0.7986,-0.91961 0.41141,-0.5566 0.82281,-1.28261 0.4356,-0.7502 0.8228,-1.57301 -1.71821,0.84701 -2.83141,1.71821 -1.11321,0.87121 -1.16161,1.74241 0,0.43561 0.1694,0.60501 0.1694,0.1452 0.7018,0.0726 z"
           style="font-style:normal;font-variant:normal;font-weight:normal;font-stretch:normal;font-size:24.20013809px;font-family:'Cassandra Personal Use';-inkscape-font-specification:'Cassandra Personal Use';fill:#abafb0;stroke-width:0.2016678;fill-opacity:1"
           id="path1835"
           inkscape:connector-curvature="0" />
        <path
           d="m 243.16941,201.95682 q 0.6534,0.0242 1.13741,0.2904 0.484,0.2662 0.7986,0.7018 0.3146,0.43561 0.4598,0.99221 0.16941,0.5324 0.16941,1.13741 0.0242,1.3068 -0.50821,2.95241 -0.5324,1.64561 -1.45201,3.38802 -0.9196,1.74241 -2.20221,3.43642 -1.25841,1.69401 -2.73461,3.09762 -1.45201,1.40361 -3.04922,2.42001 -1.59721,0.99221 -3.17022,1.30681 -0.3872,1.57301 -0.5566,2.92822 -0.1694,1.35521 -0.0968,2.39581 0.0968,1.04061 0.484,1.66981 0.3872,0.605 1.11321,0.6776 0.7744,0.0726 1.64561,-0.363 0.8712,-0.4356 1.79081,-1.1858 0.9196,-0.77441 1.83921,-1.76661 0.9196,-1.01641 1.74241,-2.08122 0.847,-1.089 1.5972,-2.12961 0.75021,-1.0406 1.30681,-1.88761 0.55661,-0.847 0.89541,-1.37941 0.363,-0.5566 0.4114,-0.6534 0.2178,-0.3388 0.5082,-0.4114 0.2904,-0.0968 0.50821,0.0242 0.2178,0.121 0.3146,0.4114 0.0968,0.2904 -0.0484,0.7018 -0.0484,0.121 -0.41141,0.75021 -0.363,0.605 -0.968,1.52461 -0.605,0.9196 -1.45201,2.08121 -0.8228,1.1374 -1.81501,2.29901 -0.99221,1.16161 -2.10541,2.27481 -1.08901,1.08901 -2.25061,1.91182 -1.13741,0.847 -2.29902,1.3068 -1.1616,0.48401 -2.27481,0.41141 -0.3146,-0.0242 -0.94381,-0.14521 -0.605,-0.121 -1.2826,-0.5566 -0.65341,-0.4356 -1.21001,-1.30681 -0.5566,-0.847 -0.7744,-2.37161 -0.16941,-1.21001 0,-2.95242 0.1936,-1.74241 0.6776,-3.72682 0.5082,-2.00861 1.28261,-4.16242 0.7744,-2.15381 1.76661,-4.18663 1.0164,-2.05701 2.25061,-3.87202 1.23421,-1.83921 2.63781,-3.17022 1.42781,-1.3552 3.00082,-2.10541 1.57301,-0.7744 3.26702,-0.6776 z m -0.2904,2.56521 q -0.82281,0.0726 -1.74241,0.77441 -0.91961,0.7018 -1.83921,1.86341 -0.91961,1.1616 -1.81501,2.68621 -0.89541,1.50041 -1.71821,3.21862 -0.82281,1.69401 -1.52461,3.50902 -0.6776,1.81501 -1.18581,3.53322 1.37941,-0.3872 2.63782,-1.33101 1.28261,-0.968 2.39581,-2.25061 1.13741,-1.28261 2.08121,-2.78301 0.96801,-1.50041 1.69401,-2.95242 0.72601,-1.47621 1.21001,-2.78302 0.484,-1.331 0.6776,-2.25061 0.0968,-0.4598 0,-0.7018 -0.0726,-0.26621 -0.242,-0.38721 -0.1694,-0.121 -0.363,-0.121 -0.1694,-0.0242 -0.2662,-0.0242 z"
           style="font-style:normal;font-variant:normal;font-weight:normal;font-stretch:normal;font-size:24.20013809px;font-family:'Cassandra Personal Use';-inkscape-font-specification:'Cassandra Personal Use';fill:#abafb0;stroke-width:0.2016678;fill-opacity:1"
           id="path1837"
           inkscape:connector-curvature="0" />
        <path
           d="m 249.36462,215.17009 q 0.4114,0.0484 0.6776,0.1936 0.26621,0.14521 0.41141,0.33881 0.1452,0.1694 0.1694,0.3146 0.0242,0.1452 -0.0242,0.1452 -0.65341,0.0484 -1.45201,0.5324 -0.77441,0.4598 -1.59721,1.21001 -0.79861,0.726 -1.59721,1.66981 -0.7744,0.9196 -1.40361,1.91181 -0.6292,0.96801 -1.0648,1.93601 -0.41141,0.94381 -0.53241,1.69401 -0.0484,0.2178 -0.0726,0.5808 -0.0242,0.33881 0.0242,0.67761 0.0726,0.3146 0.2662,0.5808 0.21781,0.242 0.67761,0.3146 0.5808,0.0726 1.35521,-0.3872 0.7744,-0.484 1.62141,-1.28261 0.8712,-0.7986 1.694,-1.79081 0.84701,-0.9922 1.54881,-1.93601 -0.4598,-0.242 -0.7502,-0.605 -0.2904,-0.363 -0.484,-0.79861 -0.1694,-0.4598 -0.242,-0.9438 -0.0484,-0.484 -0.0484,-0.96801 0.0242,-0.726 0.43561,-1.2584 0.4356,-0.55661 1.0406,-0.82281 0.62921,-0.2662 1.30681,-0.242 0.7018,0 1.23421,0.363 0.5566,0.3388 0.8228,1.06481 0.2904,0.7018 0.121,1.83921 -0.0484,0.2662 -0.121,0.5324 -0.0484,0.2662 -0.121,0.5324 0.82281,-0.0726 1.66981,-0.3146 0.87121,-0.2662 1.62141,-0.6534 0.7502,-0.4114 1.30681,-0.89541 0.5808,-0.5082 0.847,-1.0164 0.3146,-0.62921 0.62921,-0.91961 0.3388,-0.3146 0.5566,-0.2662 0.242,0.0484 0.2904,0.4356 0.0726,0.38721 -0.121,1.11321 -0.1936,0.7502 -0.9438,1.47621 -0.75021,0.726 -1.81502,1.33101 -1.0406,0.5808 -2.27481,0.968 -1.23421,0.363 -2.42001,0.4356 -0.67761,1.47621 -1.74241,2.85562 -1.06481,1.35521 -2.34742,2.37161 -1.2584,1.01641 -2.63781,1.57301 -1.37941,0.55661 -2.68622,0.38721 -1.3552,-0.16941 -2.12961,-0.75021 -0.7502,-0.5808 -1.1132,-1.33101 -0.38721,-0.7502 -0.48401,-1.54881 -0.0968,-0.7986 -0.121,-1.4036 0,-0.43561 0.242,-1.33101 0.24201,-0.91961 0.77441,-1.98441 0.5082,-1.06481 1.30681,-2.17801 0.7986,-1.11321 1.91181,-1.98442 1.1132,-0.8954 2.54101,-1.4036 1.45201,-0.50821 3.24282,-0.36301 z m 0.96801,3.89623 q -0.0242,0.4114 0.0242,0.6292 0.0484,0.2178 0.1694,0.3388 0.121,0.0968 0.2662,0.1452 0.1694,0.0242 0.363,0.0968 0.1694,-0.2662 0.2904,-0.484 0.1452,-0.2178 0.242,-0.4114 0.363,-0.75021 0.2178,-1.11321 -0.1452,-0.3872 -0.484,-0.4114 -0.3388,-0.0484 -0.7018,0.2662 -0.363,0.3146 -0.3872,0.94381 z"
           style="font-style:normal;font-variant:normal;font-weight:normal;font-stretch:normal;font-size:24.20013809px;font-family:'Cassandra Personal Use';-inkscape-font-specification:'Cassandra Personal Use';fill:#abafb0;stroke-width:0.2016678;fill-opacity:1"
           id="path1839"
           inkscape:connector-curvature="0" />
        <path
           d="m 268.48272,215.31529 q 0.79861,0.0484 1.28261,0.24201 0.5082,0.1936 0.7502,0.484 0.242,0.2904 0.242,0.6534 0.0242,0.3388 -0.1452,0.70181 -0.7986,1.79081 -1.62141,3.94462 -0.8228,2.12961 -1.66981,4.47702 1.47621,-0.8954 2.83142,-1.81501 1.35521,-0.9196 2.51682,-1.88761 1.1858,-0.9922 2.12961,-2.03281 0.9438,-1.0406 1.57301,-2.20221 0.1452,-0.2904 0.4114,-0.3872 0.2904,-0.0968 0.5324,-0.0242 0.242,0.0726 0.363,0.3146 0.121,0.2178 -0.0242,0.5808 -0.5808,1.45201 -1.69401,2.75882 -1.089,1.2826 -2.56521,2.46841 -1.45201,1.18581 -3.21862,2.27481 -1.76661,1.08901 -3.65422,2.12962 -0.8712,2.39581 -1.83921,4.79162 -0.94381,2.39582 -2.00861,4.59803 -1.04061,2.20221 -2.20221,4.08982 -1.13741,1.91181 -2.44422,3.31542 -1.28261,1.40361 -2.73461,2.20222 -1.45201,0.8228 -3.07342,0.7986 -0.6534,0 -1.40361,-0.1936 -0.7744,-0.1936 -1.40361,-0.72601 -0.6534,-0.5082 -1.0406,-1.4278 -0.41141,-0.89541 -0.33881,-2.32322 0.12101,-2.34741 1.37941,-4.33182 1.23421,-1.96021 3.19442,-3.70262 1.96021,-1.71821 4.45283,-3.26702 2.49261,-1.52461 5.10623,-3.02502 0.5082,-1.25841 0.9438,-2.46841 -0.4356,0.5324 -0.9922,1.0648 -0.55661,0.53241 -1.25841,0.96801 -0.70181,0.4114 -1.59721,0.6776 -0.89541,0.2662 -2.00861,0.2662 -1.21001,0 -1.88761,-0.4114 -0.65341,-0.4114 -0.96801,-0.9922 -0.3388,-0.58081 -0.4114,-1.18581 -0.0726,-0.6292 -0.0726,-1.04061 0,-0.5082 0.2178,-1.452 0.1936,-0.96801 0.6534,-2.08122 0.45981,-1.1132 1.18581,-2.29901 0.726,-1.18581 1.76661,-2.15381 1.06481,-0.96801 2.44421,-1.62141 1.40361,-0.6534 3.19442,-0.75021 0.65341,-0.0242 1.11321,0.16941 0.484,0.1694 0.8228,0.5082 0.33881,0.3146 0.55661,0.726 0.2178,0.4114 0.363,0.84701 l 0.4114,-1.18581 q 0.1694,-0.4356 0.3388,-0.6534 0.1936,-0.242 0.38721,-0.33881 0.2178,-0.0968 0.484,-0.0968 0.2662,0 0.6292,0.0242 z m -16.04469,30.54058 q 0.89541,-0.0484 1.98441,-1.35521 1.08901,-1.30681 2.25061,-3.43642 1.18581,-2.10541 2.37162,-4.79163 1.21,-2.66201 2.32321,-5.44503 -2.25061,1.28261 -4.30762,2.63782 -2.05702,1.35521 -3.63002,2.87981 -1.57301,1.52461 -2.51682,3.26702 -0.968,1.76661 -1.0406,3.82362 -0.0242,0.72601 0.1694,1.18581 0.1936,0.484 0.5566,0.75021 0.3388,0.2904 0.8228,0.3872 0.45981,0.121 1.01641,0.0968 z m 6.26784,-18.31951 q 0.8954,0 1.69401,-0.4114 0.8228,-0.4114 1.5246,-1.0648 0.70181,-0.65341 1.30681,-1.45201 0.62921,-0.82281 1.11321,-1.59721 l 1.1616,-3.33962 q -0.0484,-0.0726 0,-0.2178 0.0484,-0.242 -0.0242,-0.62921 -0.0484,-0.3872 -0.2662,-0.726 -0.1936,-0.363 -0.5808,-0.5808 -0.363,-0.242 -0.96801,-0.1936 -1.21,0.121 -2.12961,0.9922 -0.9196,0.84701 -1.59721,1.98441 -0.6534,1.13741 -1.1374,2.34742 -0.45981,1.1858 -0.75021,2.00861 -0.0726,0.2178 -0.1452,0.7018 -0.0726,0.4598 -0.0484,0.94381 0.0242,0.484 0.2178,0.8712 0.1936,0.363 0.62921,0.363 z"
           style="font-style:normal;font-variant:normal;font-weight:normal;font-stretch:normal;font-size:24.20013809px;font-family:'Cassandra Personal Use';-inkscape-font-specification:'Cassandra Personal Use';fill:#abafb0;stroke-width:0.2016678;fill-opacity:1"
           id="path1841"
           inkscape:connector-curvature="0" />
        <path
           d="m 293.09421,215.17009 q 0.4114,0.0484 0.6776,0.1936 0.26621,0.14521 0.41141,0.33881 0.1452,0.1694 0.1694,0.3146 0.0242,0.1452 -0.0242,0.1452 -0.65341,0.0484 -1.45201,0.5324 -0.7744,0.4598 -1.59721,1.21001 -0.7986,0.726 -1.59721,1.66981 -0.7744,0.9196 -1.40361,1.91181 -0.6292,0.96801 -1.0648,1.93601 -0.4114,0.94381 -0.53241,1.69401 -0.0484,0.2178 -0.0726,0.5808 -0.0242,0.33881 0.0242,0.67761 0.0726,0.3146 0.26621,0.5808 0.2178,0.242 0.6776,0.3146 0.5808,0.0726 1.35521,-0.3872 0.7744,-0.484 1.62141,-1.28261 0.8712,-0.7986 1.69401,-1.79081 0.847,-0.9922 1.54881,-1.93601 -0.45981,-0.242 -0.75021,-0.605 -0.2904,-0.363 -0.484,-0.79861 -0.1694,-0.4598 -0.242,-0.9438 -0.0484,-0.484 -0.0484,-0.96801 0.0242,-0.726 0.4356,-1.2584 0.4356,-0.55661 1.0406,-0.82281 0.62921,-0.2662 1.30681,-0.242 0.70181,0 1.23421,0.363 0.5566,0.3388 0.8228,1.06481 0.29041,0.7018 0.121,1.83921 -0.0484,0.2662 -0.121,0.5324 -0.0484,0.2662 -0.121,0.5324 0.82281,-0.0726 1.66981,-0.3146 0.87121,-0.2662 1.62141,-0.6534 0.75021,-0.4114 1.30681,-0.89541 0.5808,-0.5082 0.847,-1.0164 0.31461,-0.62921 0.62921,-0.91961 0.3388,-0.3146 0.5566,-0.2662 0.242,0.0484 0.2904,0.4356 0.0726,0.38721 -0.121,1.11321 -0.1936,0.7502 -0.9438,1.47621 -0.75021,0.726 -1.81501,1.33101 -1.04061,0.5808 -2.27482,0.968 -1.2342,0.363 -2.42001,0.4356 -0.6776,1.47621 -1.74241,2.85562 -1.06481,1.35521 -2.34741,2.37161 -1.25841,1.01641 -2.63782,1.57301 -1.37941,0.55661 -2.68621,0.38721 -1.35521,-0.16941 -2.12962,-0.75021 -0.7502,-0.5808 -1.1132,-1.33101 -0.3872,-0.7502 -0.48401,-1.54881 -0.0968,-0.7986 -0.121,-1.4036 0,-0.43561 0.24201,-1.33101 0.242,-0.91961 0.7744,-1.98441 0.5082,-1.06481 1.30681,-2.17801 0.7986,-1.11321 1.91181,-1.98442 1.1132,-0.8954 2.54101,-1.4036 1.45201,-0.50821 3.24282,-0.36301 z m 0.96801,3.89623 q -0.0242,0.4114 0.0242,0.6292 0.0484,0.2178 0.1694,0.3388 0.121,0.0968 0.2662,0.1452 0.1694,0.0242 0.363,0.0968 0.1694,-0.2662 0.2904,-0.484 0.1452,-0.2178 0.242,-0.4114 0.36301,-0.75021 0.21781,-1.11321 -0.14521,-0.3872 -0.48401,-0.4114 -0.3388,-0.0484 -0.7018,0.2662 -0.363,0.3146 -0.3872,0.94381 z"
           style="font-style:normal;font-variant:normal;font-weight:normal;font-stretch:normal;font-size:24.20013809px;font-family:'Cassandra Personal Use';-inkscape-font-specification:'Cassandra Personal Use';fill:#abafb0;stroke-width:0.2016678;fill-opacity:1"
           id="path1843"
           inkscape:connector-curvature="0" />
        <path
           d="m 303.54866,212.50808 q 0.5082,-0.0242 0.8228,0.2178 0.3388,0.242 0.3388,0.7986 0,0.26621 -0.1936,0.75021 -0.1694,0.484 -0.363,0.968 -0.2662,0.55661 -0.5566,1.18581 0.1694,0.2662 0.847,0.2662 0.6776,-0.0242 1.54881,-0.1694 0.8712,-0.1452 1.79081,-0.3146 0.91961,-0.1694 1.57301,-0.2178 0.5082,-0.0242 0.7744,0.2178 0.2662,0.2178 0.36301,0.5566 0.0968,0.3388 0.0242,0.72601 -0.0484,0.363 -0.21781,0.605 -0.0968,0.1452 -0.484,0.84701 -0.3872,0.6776 -0.8954,1.6698 -0.48401,0.96801 -0.99221,2.08122 -0.484,1.1132 -0.7744,2.08121 -0.29041,0.9438 -0.29041,1.62141 0.0242,0.6776 0.55661,0.7502 0.2904,0.0484 0.9922,-0.4356 0.70181,-0.484 1.62141,-1.30681 0.94381,-0.8228 1.98441,-1.91181 1.04061,-1.08901 2.00862,-2.22641 0.9922,-1.13741 1.79081,-2.25061 0.8228,-1.11321 1.2826,-2.00862 0.121,-0.242 0.36301,-0.3146 0.2662,-0.0968 0.5082,-0.0242 0.2662,0.0726 0.4114,0.3146 0.1694,0.24201 0.0968,0.67761 -0.0242,0.121 -0.4114,0.7502 -0.363,0.60501 -0.99221,1.52461 -0.6292,0.91961 -1.50041,2.05701 -0.8712,1.11321 -1.88761,2.25062 -0.9922,1.1374 -2.10541,2.17801 -1.1132,1.0406 -2.25061,1.79081 -1.13741,0.726 -2.27481,1.0648 -1.11321,0.36301 -2.15382,0.121 -0.9922,-0.242 -1.52461,-0.7986 -0.5082,-0.5566 -0.6534,-1.33101 -0.1452,-0.7744 0,-1.69401 0.1452,-0.9196 0.4356,-1.83921 0.31461,-0.9196 0.72601,-1.79081 0.4114,-0.8954 0.7986,-1.59721 0.3872,-0.7018 0.65341,-1.1374 0.2904,-0.45981 0.363,-0.55661 0.2662,-0.3388 0.0484,-0.5082 -0.1936,-0.1694 -0.5324,-0.0484 -0.36301,0.1452 -1.01641,0.242 -0.6292,0.0968 -1.28261,-0.0726 -0.6292,-0.1694 -1.1132,-0.726 -0.48401,-0.55661 -0.50821,-1.71821 -0.0242,-0.363 0.0968,-0.91961 0.1452,-0.5566 0.43561,-1.0648 0.2904,-0.53241 0.7018,-0.91961 0.4356,-0.3872 1.01641,-0.4114 z"
           style="font-style:normal;font-variant:normal;font-weight:normal;font-stretch:normal;font-size:24.20013809px;font-family:'Cassandra Personal Use';-inkscape-font-specification:'Cassandra Personal Use';fill:#abafb0;stroke-width:0.2016678;fill-opacity:1"
           id="path1845"
           inkscape:connector-curvature="0" />
      </g>
      <g
         aria-label="something..."
         transform="matrix(0.94237713,0,0,1.0611463,0.79376473,0)"
         style="font-style:normal;font-variant:normal;font-weight:normal;font-stretch:normal;font-size:26.75487328px;line-height:1.25;font-family:Andrew;-inkscape-font-specification:Andrew;letter-spacing:0px;word-spacing:0px;fill:#abafb0;fill-opacity:1;stroke:none;stroke-width:0.20066154"
         id="text1751">
        <path
           d="m 206.69042,246.07785 q 0.31303,-0.0963 0.74646,-0.0963 0.45751,0 0.8187,0.0963 0.36119,0.0722 0.50567,0.26488 0.16856,0.16855 -0.0482,0.43343 -0.9391,1.05949 -1.44476,2.11898 -0.50567,1.03542 -0.74646,2.02267 -0.2408,0.96318 -0.26488,1.87819 0,0.91502 0.0722,1.70964 1.15581,-0.43343 2.31162,-0.91502 1.15581,-0.48158 2.21531,-1.03541 1.05949,-0.57791 1.97451,-1.25213 0.91501,-0.6983 1.58924,-1.54108 0.24079,-0.31303 0.52974,-0.38527 0.31303,-0.0722 0.50567,0.0482 0.21671,0.1204 0.26487,0.43343 0.0482,0.28895 -0.16855,0.74646 -0.36119,0.72238 -1.27621,1.3966 -0.91502,0.65015 -2.16715,1.30029 -1.22804,0.62606 -2.69689,1.22805 -1.44476,0.60198 -2.9136,1.20397 0.0482,0.50567 0.0963,0.93909 0.0482,0.43343 0,0.77054 -0.12039,1.27621 -0.62606,2.35978 -0.48159,1.0595 -1.32437,1.83004 -0.81869,0.77054 -1.97451,1.20397 -1.13173,0.43343 -2.52833,0.40935 -0.84278,0 -1.37253,-0.36119 -0.50566,-0.33712 -0.77054,-0.84278 -0.28895,-0.48159 -0.36119,-0.98726 -0.0722,-0.52974 0,-0.86686 0.31304,-1.42068 1.58924,-2.38385 1.27621,-0.98726 3.08216,-1.7578 -0.12039,-1.44476 -0.16855,-2.86545 -0.0482,-1.44476 0.24079,-2.67281 0.38527,-1.54108 0.98726,-2.40794 0.62606,-0.89093 1.25213,-1.32436 0.65014,-0.43343 1.20396,-0.52975 0.57791,-0.1204 0.86686,-0.16856 z m -6.33288,15.67568 q 0.72239,-0.0241 1.13174,-0.38527 0.43342,-0.33711 0.65014,-0.89093 0.21671,-0.57791 0.26487,-1.32437 0.0482,-0.77054 0,-1.6374 -1.30029,0.62607 -2.14306,1.27621 -0.84278,0.65014 -0.9391,1.30029 -0.1204,0.91501 0.19264,1.30028 0.31303,0.38527 0.84277,0.36119 z"
           style="font-style:normal;font-variant:normal;font-weight:normal;font-stretch:normal;font-size:24.07938576px;font-family:'Cassandra Personal Use';-inkscape-font-specification:'Cassandra Personal Use';fill:#abafb0;stroke-width:0.20066154;fill-opacity:1"
           id="path1848"
           inkscape:connector-curvature="0" />
        <path
           d="m 218.65787,247.4263 q 0.40935,0.0482 0.67422,0.19264 0.26487,0.14447 0.40935,0.33711 0.14448,0.16855 0.16856,0.31303 0.0241,0.14448 -0.0241,0.14448 -0.65015,0.0482 -1.44477,0.52974 -0.77054,0.45751 -1.58924,1.20397 -0.79462,0.72238 -1.58924,1.66148 -0.77054,0.91502 -1.3966,1.90227 -0.62606,0.96318 -1.05949,1.92635 -0.40935,0.9391 -0.52975,1.68556 -0.0482,0.21671 -0.0722,0.5779 -0.0241,0.33711 0.0241,0.67423 0.0722,0.31303 0.26488,0.5779 0.21671,0.2408 0.67422,0.31303 0.5779,0.0722 1.34844,-0.38527 0.77054,-0.48158 1.61332,-1.2762 0.86686,-0.79462 1.68556,-1.78188 0.84278,-0.98725 1.54108,-1.92635 -0.45751,-0.24079 -0.74646,-0.60198 -0.28895,-0.3612 -0.48159,-0.79462 -0.16855,-0.45751 -0.24079,-0.9391 -0.0482,-0.48159 -0.0482,-0.96318 0.0241,-0.72238 0.43343,-1.25212 0.43343,-0.55383 1.03541,-0.8187 0.62607,-0.26488 1.30029,-0.2408 0.6983,0 1.22805,0.36119 0.55382,0.33712 0.8187,1.0595 0.28895,0.6983 0.12039,1.83003 -0.0482,0.26487 -0.12039,0.52975 -0.0482,0.26487 -0.1204,0.52974 0.8187,-0.0722 1.66148,-0.31303 0.86685,-0.26487 1.61332,-0.65014 0.74646,-0.40935 1.30028,-0.89094 0.57791,-0.50567 0.84278,-1.01133 0.31303,-0.62607 0.62606,-0.91502 0.33712,-0.31303 0.55383,-0.26487 0.24079,0.0482 0.28895,0.43343 0.0722,0.38527 -0.12039,1.10765 -0.19264,0.74646 -0.9391,1.46884 -0.74646,0.72238 -1.80595,1.32437 -1.03542,0.5779 -2.26347,0.96317 -1.22804,0.36119 -2.40793,0.43343 -0.67423,1.46884 -1.73372,2.84137 -1.05949,1.34844 -2.3357,2.35978 -1.25213,1.01133 -2.62465,1.56516 -1.37253,0.55382 -2.67282,0.38527 -1.34844,-0.16856 -2.11898,-0.74646 -0.74646,-0.57791 -1.10765,-1.32437 -0.38527,-0.74646 -0.48159,-1.54108 -0.0963,-0.79462 -0.1204,-1.3966 0,-0.43343 0.2408,-1.32437 0.24079,-0.91502 0.77054,-1.97451 0.50566,-1.05949 1.30028,-2.16714 0.79462,-1.10766 1.90227,-1.97451 1.10766,-0.89094 2.52834,-1.39661 1.44476,-0.50567 3.22664,-0.36119 z m 0.96317,3.87678 q -0.0241,0.40935 0.0241,0.62607 0.0482,0.21671 0.16856,0.33711 0.1204,0.0963 0.26487,0.14447 0.16856,0.0241 0.36119,0.0963 0.16856,-0.26487 0.28895,-0.48159 0.14448,-0.21671 0.2408,-0.40935 0.36119,-0.74646 0.21671,-1.10765 -0.14447,-0.38527 -0.48158,-0.40935 -0.33712,-0.0482 -0.69831,0.26488 -0.36119,0.31303 -0.38527,0.93909 z"
           style="font-style:normal;font-variant:normal;font-weight:normal;font-stretch:normal;font-size:24.07938576px;font-family:'Cassandra Personal Use';-inkscape-font-specification:'Cassandra Personal Use';fill:#abafb0;stroke-width:0.20066154;fill-opacity:1"
           id="path1850"
           inkscape:connector-curvature="0" />
        <path
           d="m 235.63383,249.6416 q 0.86685,0 1.25212,0.2408 0.40935,0.24079 0.55383,0.55382 0.14448,0.28896 0.1204,0.60199 -0.0241,0.28895 0,0.38527 0.0241,0.0963 -0.21672,0.74646 -0.21671,0.62606 -0.55382,1.49292 0.72238,-0.91502 1.66147,-1.95043 0.9391,-1.03541 1.97451,-1.92635 1.03542,-0.89094 2.11899,-1.46884 1.08357,-0.60199 2.09491,-0.62607 0.8187,-0.0241 1.37252,0.16856 0.57791,0.19263 0.91502,0.50567 0.33711,0.28895 0.45751,0.62606 0.14447,0.31303 0.14447,0.55383 -0.0241,0.74646 -0.36119,1.70963 -0.33711,0.96318 -0.84278,1.95043 -0.48158,0.98726 -1.05949,1.92635 -0.57791,0.9391 -1.05949,1.66148 -0.45751,0.72238 -0.74646,1.17989 -0.26488,0.43343 -0.19264,0.40935 0.6983,-0.14448 1.70964,-0.8187 1.03541,-0.67422 2.16714,-1.61332 1.13173,-0.93909 2.26346,-1.99859 1.15581,-1.08357 2.07083,-2.02266 0.9391,-0.9391 1.54108,-1.61332 0.62607,-0.67423 0.72238,-0.79462 0.14448,-0.19264 0.36119,-0.2408 0.21672,-0.0722 0.38527,0.0241 0.16856,0.0722 0.21672,0.36119 0.0482,0.26488 -0.1204,0.74646 -0.0963,0.2408 -0.8187,1.13174 -0.72238,0.86685 -1.85411,2.07082 -1.13173,1.17989 -2.55241,2.50426 -1.39661,1.32436 -2.81729,2.48018 -1.42069,1.13173 -2.76913,1.92635 -1.32437,0.77054 -2.31162,0.84277 -0.50567,0.0482 -1.01134,-0.0482 -0.48158,-0.0722 -0.89093,-0.31304 -0.38527,-0.26487 -0.62607,-0.6983 -0.21671,-0.45751 -0.19263,-1.15581 0.0241,-0.33711 0.36119,-1.13173 0.33711,-0.8187 0.84278,-1.83003 0.52974,-1.03542 1.10765,-2.14307 0.60198,-1.13173 1.10765,-2.07083 0.52975,-0.96317 0.86686,-1.61331 0.36119,-0.67423 0.38527,-0.79462 0.0241,-0.16856 -0.0722,-0.19264 -0.0722,-0.0482 -0.19264,0 -0.0963,0.0241 -0.21671,0.0963 -0.1204,0.0482 -0.19264,0.0963 -1.03541,0.72238 -2.19122,1.83003 -1.15581,1.10765 -2.19122,2.23938 -1.01134,1.13173 -1.83004,2.09491 -0.79462,0.96317 -1.13173,1.42068 l -0.33711,0.8187 q -0.26487,0.74646 -0.91502,1.13173 -0.62606,0.36119 -1.25212,0.36119 -0.62607,0 -1.08358,-0.36119 -0.45751,-0.36119 -0.36119,-1.08357 0.0482,-0.36119 0.33711,-1.01133 0.28896,-0.67423 0.69831,-1.44477 0.40935,-0.77054 0.84277,-1.56516 0.43343,-0.8187 0.74647,-1.46884 0.31303,-0.65014 0.40935,-1.05949 0.12039,-0.43343 -0.0963,-0.45751 -0.0963,0 -0.65015,0.50567 -0.55382,0.48158 -1.34844,1.25212 -0.79462,0.74647 -1.7578,1.70964 -0.93909,0.9391 -1.85411,1.83003 -0.89094,0.86686 -1.6374,1.61332 -0.72238,0.72238 -1.10765,1.08357 -0.50567,0.9391 -1.03541,1.30029 -0.26488,0.19264 -0.67423,0.21672 -0.40935,0.0241 -0.77054,-0.1204 -0.38527,-0.14448 -0.62606,-0.48159 -0.26487,-0.36119 -0.19264,-0.93909 0.0722,-0.79462 0.50567,-1.95043 0.40935,-1.15582 1.01134,-2.40794 0.60198,-1.25213 1.32436,-2.50426 0.74646,-1.25213 1.46884,-2.23938 0.74647,-0.98726 1.37253,-1.58924 0.65014,-0.62607 1.08357,-0.60199 0.65015,0.0241 1.03542,0.19264 0.40935,0.14448 0.60198,0.40935 0.21671,0.24079 0.24079,0.5779 0.0241,0.33711 -0.0722,0.69831 -0.0482,0.16855 -0.36119,0.6983 -0.28896,0.52974 -0.74647,1.30028 -0.4575,0.77055 -1.01133,1.70964 -0.55383,0.9391 -1.13173,1.92635 l -0.24079,0.40935 q 0.84277,-0.89094 1.90227,-1.92635 1.08357,-1.03541 2.16714,-1.92635 1.10765,-0.91502 2.09491,-1.517 0.98725,-0.60199 1.66148,-0.60199 z m -0.45751,7.8258 q 0,0 0,-0.0241 z"
           style="font-style:normal;font-variant:normal;font-weight:normal;font-stretch:normal;font-size:24.07938576px;font-family:'Cassandra Personal Use';-inkscape-font-specification:'Cassandra Personal Use';fill:#abafb0;stroke-width:0.20066154;fill-opacity:1"
           id="path1852"
           inkscape:connector-curvature="0" />
        <path
           d="m 258.82226,247.3059 q 0.72238,-0.0241 1.22805,0.1204 0.52975,0.1204 0.89094,0.33711 0.36119,0.21672 0.5779,0.48159 0.21672,0.26487 0.31304,0.50567 0.26487,0.6983 0.21671,1.22805 -0.0241,0.50566 -0.19264,0.96317 -0.40935,1.10765 -1.20396,1.97451 -0.77055,0.86686 -1.73372,1.54108 -0.9391,0.65014 -1.95043,1.13173 -1.01134,0.45751 -1.90227,0.77054 -0.89094,0.28896 -1.54108,0.45751 -0.65015,0.14448 -0.86686,0.14448 -0.0482,0.60198 -0.0241,1.10765 0.0482,0.50567 0.21671,0.89094 0.19264,0.36119 0.50567,0.5779 0.33711,0.19264 0.86686,0.16856 1.49292,-0.0482 2.84137,-0.65015 1.37252,-0.60198 2.57649,-1.49292 1.20397,-0.91501 2.23938,-2.02267 1.0595,-1.13173 1.95043,-2.23938 0.89094,-1.10765 1.61332,-2.09491 0.72238,-0.98725 1.27621,-1.63739 0.16856,-0.21672 0.40935,-0.21672 0.24079,-0.0241 0.40935,0.0963 0.19263,0.0963 0.26487,0.31303 0.0722,0.21672 -0.0722,0.48159 -0.14447,0.24079 -0.52974,0.89094 -0.38527,0.62606 -0.98726,1.517 -0.5779,0.86686 -1.37252,1.90227 -0.79462,1.01133 -1.7578,2.04675 -0.96317,1.03541 -2.0949,2.02266 -1.10766,0.96318 -2.35978,1.70964 -1.25213,0.72238 -2.62466,1.13173 -1.37252,0.43343 -2.84136,0.40935 -1.15581,-0.0241 -1.97451,-0.36119 -0.79462,-0.31303 -1.32437,-0.86686 -0.52975,-0.5779 -0.77054,-1.34844 -0.24079,-0.79462 -0.24079,-1.70964 0,-0.86686 0.31303,-1.95043 0.28895,-1.10765 0.86686,-2.23938 0.5779,-1.13173 1.42068,-2.19123 0.86686,-1.08357 1.97451,-1.92635 1.10765,-0.84278 2.4561,-1.37252 1.34844,-0.55383 2.93768,-0.60199 z m 0.38527,1.66148 q -1.17989,0.1204 -2.19122,0.84278 -1.01134,0.6983 -1.80596,1.68556 -0.79462,0.96317 -1.37252,2.04674 -0.55383,1.0595 -0.84278,1.8782 0.77054,-0.16856 1.80595,-0.57791 1.0595,-0.40935 2.09491,-1.01133 1.03541,-0.60199 1.95043,-1.34845 0.91502,-0.77054 1.42068,-1.68556 0.16856,-0.28895 0.19264,-0.60198 0.0482,-0.33711 -0.0722,-0.62606 -0.1204,-0.28896 -0.40935,-0.45751 -0.28895,-0.16856 -0.77054,-0.14448 z"
           style="font-style:normal;font-variant:normal;font-weight:normal;font-stretch:normal;font-size:24.07938576px;font-family:'Cassandra Personal Use';-inkscape-font-specification:'Cassandra Personal Use';fill:#abafb0;stroke-width:0.20066154;fill-opacity:1"
           id="path1854"
           inkscape:connector-curvature="0" />
        <path
           d="m 284.56312,238.61325 q 0.0482,-0.0241 0.21671,-0.0722 0.16856,-0.0722 0.36119,-0.14448 0.21672,-0.0963 0.40935,-0.14448 0.21672,-0.0722 0.36119,-0.0963 0.38527,-0.0241 0.62607,0.24079 0.24079,0.26487 0.19263,0.67422 -0.0241,0.38527 -0.38527,0.8187 -0.36119,0.40935 -1.20397,0.67423 -0.74646,0.24079 -1.90227,0.33711 -1.13173,0.0722 -2.52833,0.0722 -1.39661,-0.0241 -2.96177,-0.0963 -1.56516,-0.0722 -3.13032,-0.16856 -0.6983,1.10765 -1.68556,2.62465 -0.96317,1.49293 -2.02266,3.17848 -1.03542,1.68556 -2.09491,3.44336 -1.03541,1.73371 -1.92635,3.29887 -0.86686,1.56516 -1.517,2.86545 -0.62607,1.27621 -0.8187,2.04675 -0.0241,0.0963 -0.0482,0.26487 0,0.14448 0.0482,0.26487 0.0722,0.1204 0.24079,0.19264 0.16856,0.0482 0.52975,-0.0722 1.03541,-0.31303 2.19122,-1.10765 1.17989,-0.79462 2.3357,-1.80596 1.15581,-1.03541 2.21531,-2.14306 1.05949,-1.13173 1.90227,-2.07083 0.86686,-0.96317 1.44476,-1.61332 0.57791,-0.65014 0.72238,-0.74646 0.2408,-0.14447 0.48159,-0.14447 0.26487,0 0.48159,0.0963 0.21671,0.0963 0.33711,0.28896 0.14448,0.16855 0.14448,0.40935 0,0.14447 -0.43343,0.6983 -0.43343,0.52974 -1.10766,1.25213 -0.67422,0.6983 -1.46884,1.517 -0.77054,0.79462 -1.46884,1.49292 -0.6983,0.6983 -1.20397,1.20397 -0.50567,0.50567 -0.60198,0.62606 -0.0963,0.1204 -0.52975,0.55383 -0.43343,0.43343 -1.08357,1.01133 -0.65015,0.55383 -1.46885,1.17989 -0.8187,0.60199 -1.68555,1.0595 -0.86686,0.4575 -1.73372,0.65014 -0.84278,0.21671 -1.58924,-0.0241 -1.15581,-0.38527 -1.6374,-1.25213 -0.48158,-0.86686 -0.43343,-2.07083 0.0482,-1.20397 0.55383,-2.67281 0.48159,-1.49292 1.25213,-3.08216 0.77054,-1.61332 1.73371,-3.25072 0.96318,-1.63739 1.95043,-3.1544 1.01134,-1.54108 1.95043,-2.86544 0.96318,-1.34845 1.70964,-2.35978 -1.75779,-0.0482 -3.08216,0 -1.30029,0.0482 -1.78187,0.31303 -0.1204,0.1204 -0.26488,0.21671 -0.12039,0.0963 -0.31303,0.16856 -0.16856,0.0722 -0.40935,0.0482 -0.26487,-0.0241 -0.52975,-0.21672 -0.24079,-0.21671 -0.24079,-0.55382 0,-0.40935 0.28895,-0.65015 0.31303,-0.24079 0.50567,-0.31303 0.50567,-0.19263 1.22805,-0.31303 0.74646,-0.1204 1.66148,-0.19263 0.91501,-0.0722 1.95043,-0.0722 1.03541,-0.0241 2.16714,-0.0241 0.14448,-0.19264 0.26487,-0.36119 0.1204,-0.16856 0.16856,-0.2408 0.21671,-0.31303 0.52975,-0.62606 0.33711,-0.31303 0.72238,-0.55383 0.38527,-0.26487 0.74646,-0.38527 0.38527,-0.14447 0.67422,-0.0963 0.1204,0.0241 0.43343,0.0722 0.33711,0.0482 0.62606,0.2408 0.28896,0.16855 0.43343,0.55382 0.14448,0.38527 -0.0963,1.0595 l -0.2408,0.40935 q 1.44477,0.0482 2.81729,0.0722 1.37253,0 2.52834,-0.0241 1.17989,-0.0241 2.07082,-0.12039 0.91502,-0.0963 1.42069,-0.28895 z"
           style="font-style:normal;font-variant:normal;font-weight:normal;font-stretch:normal;font-size:24.07938576px;font-family:'Cassandra Personal Use';-inkscape-font-specification:'Cassandra Personal Use';fill:#abafb0;stroke-width:0.20066154;fill-opacity:1"
           id="path1856"
           inkscape:connector-curvature="0" />
        <path
           d="m 286.22459,234.06224 q 1.15581,-0.1204 1.90227,0.19264 0.74646,0.31303 1.17989,0.86685 0.43343,0.55383 0.60199,1.25213 0.16855,0.6983 0.19263,1.37253 0.0241,0.65014 -0.0722,1.20397 -0.0722,0.52974 -0.14447,0.74646 -0.55383,1.56516 -1.39661,2.96176 -0.84278,1.37253 -2.14306,2.43202 -1.30029,1.05949 -3.13032,1.68556 -1.80596,0.62606 -4.31021,0.67422 -0.45751,1.01133 -0.89094,2.02267 -0.40935,1.01133 -0.8187,2.02267 0.9391,-0.86686 1.95043,-1.54108 1.01133,-0.69831 1.92635,-1.13174 0.9391,-0.43342 1.66148,-0.5779 0.74646,-0.14448 1.10765,0.0482 0.72238,0.40935 0.8187,1.32436 0.1204,0.91502 -0.14448,2.04675 -0.26487,1.10765 -0.79462,2.3357 -0.50566,1.20397 -1.03541,2.26346 -0.50567,1.03542 -0.91502,1.78188 -0.38527,0.74646 -0.40935,0.9391 -0.0963,0.55382 -0.0481,0.72238 0.0481,0.16855 0.26487,0.14447 0.84278,-0.0722 1.97451,-0.8187 1.13173,-0.77054 2.3357,-1.90227 1.20397,-1.13173 2.38386,-2.45609 1.20397,-1.32437 2.2153,-2.50426 1.01134,-1.17989 1.70964,-2.04675 0.72238,-0.89094 0.96317,-1.15581 0.14448,-0.14448 0.33711,-0.16855 0.21672,-0.0482 0.3612,0.0481 0.16855,0.0963 0.24079,0.31304 0.0722,0.19263 -0.0482,0.52974 -0.0722,0.16856 -0.50567,0.8187 -0.40935,0.62607 -1.10765,1.54108 -0.67422,0.91502 -1.58924,2.04675 -0.91501,1.10765 -1.97451,2.23938 -1.03541,1.10765 -2.19122,2.14307 -1.15581,1.01133 -2.31162,1.78187 -1.13173,0.74646 -2.26346,1.13173 -1.10766,0.40935 -2.09491,0.26488 -1.10765,-0.16856 -1.6374,-0.6983 -0.50567,-0.52975 -0.60198,-1.25213 -0.0963,-0.74646 0.14447,-1.6374 0.2408,-0.91502 0.62607,-1.85411 0.40935,-0.9391 0.86685,-1.85412 0.45751,-0.91501 0.8187,-1.68555 0.36119,-0.77054 0.52975,-1.32437 0.16856,-0.55383 -0.0482,-0.77054 -0.31303,-0.31303 -0.89094,0 -0.5779,0.31303 -1.25212,0.9391 -0.65015,0.60198 -1.30029,1.34844 -0.65014,0.72238 -1.08357,1.22805 -0.8187,2.09491 -1.37253,3.63599 -0.52975,1.54108 -0.72238,2.04675 -0.24079,0.60198 -0.67422,0.65014 -0.40935,0.0482 -0.8187,-0.2408 -0.40935,-0.28895 -0.6983,-0.77054 -0.31304,-0.50566 -0.31304,-1.01133 0,-0.24079 0.31304,-1.3966 0.28895,-1.15581 0.84277,-2.86545 0.57791,-1.70964 1.37253,-3.82862 0.79462,-2.11899 1.78187,-4.28613 1.01134,-2.19123 2.19123,-4.26206 1.17989,-2.0949 2.48017,-3.75638 1.32437,-1.66148 2.74505,-2.72097 1.42069,-1.08357 2.91361,-1.22805 z m 0.43343,2.55242 q -0.84278,0.0963 -1.7578,0.91501 -0.91501,0.8187 -1.83003,2.14307 -0.91502,1.30029 -1.83003,3.00992 -0.91502,1.68556 -1.78188,3.53967 1.61332,-0.0963 2.88953,-0.5779 1.30029,-0.48159 2.3357,-1.32437 1.03541,-0.86686 1.85411,-2.04675 0.8187,-1.17989 1.46884,-2.69689 0.19264,-0.43343 0.21672,-0.96317 0.0482,-0.55383 -0.1204,-1.01134 -0.14447,-0.45751 -0.50566,-0.74646 -0.33712,-0.31303 -0.9391,-0.24079 z"
           style="font-style:normal;font-variant:normal;font-weight:normal;font-stretch:normal;font-size:24.07938576px;font-family:'Cassandra Personal Use';-inkscape-font-specification:'Cassandra Personal Use';fill:#abafb0;stroke-width:0.20066154;fill-opacity:1"
           id="path1858"
           inkscape:connector-curvature="0" />
        <path
           d="m 294.38747,248.38948 q 0.43342,0.0241 0.72238,0.19263 0.28895,0.16856 0.43343,0.40935 0.14447,0.24079 0.16855,0.50567 0.0482,0.24079 0.0241,0.40935 -0.14447,0.65014 -0.72238,1.75779 -0.57791,1.08357 -1.27621,2.3357 -0.6983,1.22805 -1.34844,2.50426 -0.62607,1.27621 -0.89094,2.28754 -0.14448,0.55383 0.14448,0.57791 0.31303,0.0241 0.79462,-0.28896 0.81869,-0.55382 1.90227,-1.46884 1.08357,-0.9391 2.2153,-1.99859 1.13173,-1.08357 2.2153,-2.16714 1.10766,-1.08358 1.97451,-1.97451 0.86686,-0.91502 1.42069,-1.49292 0.5779,-0.60199 0.65014,-0.65015 0.0963,-0.0722 0.26487,-0.0722 0.19264,0 0.33712,0.0963 0.16855,0.0722 0.24079,0.21672 0.0963,0.14447 0,0.36119 -0.0722,0.14447 -0.60199,0.79462 -0.52974,0.62606 -1.37252,1.58924 -0.84278,0.93909 -1.95043,2.11898 -1.10765,1.15581 -2.31162,2.3357 -1.20397,1.17989 -2.4561,2.31162 -1.25213,1.10765 -2.38386,1.97451 -0.16855,0.1204 -0.55382,0.36119 -0.38527,0.26488 -0.89094,0.48159 -0.48159,0.2408 -1.05949,0.38527 -0.57791,0.14448 -1.15581,0.0722 -0.89094,-0.1204 -1.08358,-0.98726 -0.21671,-0.84277 0.0241,-2.07082 0.2408,-1.25213 0.79462,-2.72097 0.57791,-1.46885 1.20397,-2.81729 0.62607,-1.34845 1.17989,-2.40794 0.57791,-1.05949 0.84278,-1.517 0.38527,-0.65014 0.79462,-0.96318 0.40935,-0.31303 0.74646,-0.40935 0.36119,-0.12039 0.60198,-0.0963 0.26488,0.0241 0.3612,0.0241 z m 0.31303,-4.04534 q 0.21671,-0.43343 0.50566,-0.74646 0.31304,-0.31303 0.65015,-0.48159 0.33711,-0.16856 0.6983,-0.19263 0.36119,-0.0241 0.67422,0.12039 0.31304,0.16856 0.50567,0.48159 0.21671,0.28895 0.28895,0.67422 0.0722,0.36119 0,0.79462 -0.0482,0.43343 -0.26487,0.86686 -0.21671,0.43343 -0.52975,0.74646 -0.28895,0.31303 -0.62606,0.48159 -0.33711,0.16855 -0.6983,0.19263 -0.36119,0.0241 -0.67423,-0.12039 -0.62606,-0.31303 -0.79462,-1.13173 -0.14447,-0.8187 0.26488,-1.68556 z"
           style="font-style:normal;font-variant:normal;font-weight:normal;font-stretch:normal;font-size:24.07938576px;font-family:'Cassandra Personal Use';-inkscape-font-specification:'Cassandra Personal Use';fill:#abafb0;stroke-width:0.20066154;fill-opacity:1"
           id="path1860"
           inkscape:connector-curvature="0" />
        <path
           d="m 303.53761,247.69117 q 1.27621,0.0482 1.6374,0.60199 0.36119,0.52974 0.14447,1.27621 -0.0482,0.16855 -0.36119,0.6983 -0.28895,0.52974 -0.74646,1.30028 -0.43343,0.77055 -1.01133,1.70964 -0.55383,0.9391 -1.10766,1.92635 l -0.6983,1.25213 q 0.79462,-0.86686 1.73372,-1.85411 0.96317,-0.98726 1.95043,-1.95043 1.01133,-0.96318 2.04675,-1.85412 1.03541,-0.89093 1.99859,-1.56516 0.98725,-0.6983 1.85411,-1.10765 0.89094,-0.40935 1.58924,-0.43343 0.8187,-0.0241 1.37252,0.16856 0.57791,0.19263 0.91502,0.50567 0.33711,0.28895 0.45751,0.62606 0.14447,0.31303 0.14447,0.55383 -0.0241,0.77054 -0.43343,1.78187 -0.38527,0.98726 -0.98725,2.04675 -0.57791,1.03541 -1.25213,2.07083 -0.67422,1.01133 -1.25213,1.83003 -0.55382,0.79462 -0.91501,1.27621 -0.33711,0.48158 -0.26488,0.4575 0.69831,-0.14447 1.78188,-0.86685 1.10765,-0.72238 2.3357,-1.73372 1.22805,-1.01133 2.4561,-2.16714 1.25212,-1.15581 2.26346,-2.14307 1.03541,-1.01133 1.70963,-1.73371 0.69831,-0.72239 0.79462,-0.84278 0.14448,-0.19264 0.33712,-0.2408 0.21671,-0.0722 0.38527,0.0241 0.16855,0.0722 0.21671,0.36119 0.0482,0.26488 -0.1204,0.74646 -0.0963,0.2408 -0.89093,1.17989 -0.79462,0.91502 -2.04675,2.16715 -1.22805,1.25213 -2.76913,2.67281 -1.517,1.39661 -3.05808,2.62465 -1.517,1.20397 -2.93769,2.02267 -1.3966,0.8187 -2.38386,0.91502 -0.50566,0.0482 -1.01133,-0.0482 -0.48159,-0.0963 -0.86686,-0.36119 -0.38527,-0.26487 -0.62606,-0.6983 -0.2408,-0.45751 -0.2408,-1.13173 0,-0.60199 0.40935,-1.54108 0.40935,-0.96318 1.03542,-2.04675 0.62606,-1.10765 1.34844,-2.21531 0.74646,-1.13173 1.37253,-2.07082 0.62606,-0.9391 1.03541,-1.56516 0.43343,-0.62607 0.45751,-0.74646 0.0241,-0.16856 -0.0722,-0.19264 -0.0722,-0.0482 -0.19263,0 -0.0963,0.0241 -0.21672,0.0963 -0.1204,0.0482 -0.19263,0.0963 -0.74647,0.52974 -1.83004,1.46884 -1.05949,0.93909 -2.26346,2.0949 -1.20397,1.13174 -2.43202,2.35978 -1.20397,1.22805 -2.26346,2.31163 -1.05949,1.05949 -1.83003,1.87819 -0.77054,0.8187 -1.0595,1.13173 -0.26487,0.33711 -0.50566,0.50567 -0.26488,0.19263 -0.67423,0.21671 -0.40935,0.0241 -0.77054,-0.1204 -0.38527,-0.14447 -0.62606,-0.48158 -0.24079,-0.36119 -0.19264,-0.91502 0.0722,-0.79462 0.52975,-2.02267 0.45751,-1.22805 1.13173,-2.60057 0.67422,-1.37253 1.46884,-2.74505 0.8187,-1.39661 1.58924,-2.50426 0.79462,-1.10765 1.46885,-1.78187 0.6983,-0.69831 1.13173,-0.67423 z"
           style="font-style:normal;font-variant:normal;font-weight:normal;font-stretch:normal;font-size:24.07938576px;font-family:'Cassandra Personal Use';-inkscape-font-specification:'Cassandra Personal Use';fill:#abafb0;stroke-width:0.20066154;fill-opacity:1"
           id="path1862"
           inkscape:connector-curvature="0" />
        <path
           d="m 330.81955,247.57078 q 0.79462,0.0482 1.2762,0.24079 0.50567,0.19264 0.74647,0.48159 0.24079,0.28895 0.24079,0.65014 0.0241,0.33711 -0.14448,0.6983 -0.79462,1.78188 -1.61332,3.92494 -0.8187,2.11899 -1.66147,4.45469 1.46884,-0.89094 2.81728,-1.80595 1.34845,-0.91502 2.50426,-1.8782 1.17989,-0.98725 2.11899,-2.02266 0.93909,-1.03542 1.56516,-2.19123 0.14447,-0.28895 0.40935,-0.38527 0.28895,-0.0963 0.52974,-0.0241 0.2408,0.0722 0.36119,0.31303 0.1204,0.21672 -0.0241,0.57791 -0.5779,1.44476 -1.68555,2.74505 -1.08358,1.27621 -2.55242,2.4561 -1.44476,1.17989 -3.20256,2.26346 -1.75779,1.08357 -3.63598,2.11898 -0.86686,2.38386 -1.83004,4.76772 -0.93909,2.38386 -1.99859,4.57509 -1.03541,2.19122 -2.19122,4.06941 -1.13173,1.90227 -2.43202,3.29888 -1.27621,1.3966 -2.72097,2.19122 -1.44476,0.8187 -3.05808,0.79462 -0.65014,0 -1.3966,-0.19263 -0.77055,-0.19264 -1.39661,-0.72238 -0.65014,-0.50567 -1.03541,-1.42069 -0.40935,-0.89094 -0.33711,-2.31162 0.12039,-2.3357 1.37252,-4.31021 1.22805,-1.95043 3.17848,-3.68415 1.95043,-1.70963 4.43061,-3.25071 2.48017,-1.517 5.08075,-3.00993 0.50566,-1.25212 0.93909,-2.45609 -0.43343,0.52974 -0.98725,1.05949 -0.55383,0.52975 -1.25213,0.96318 -0.6983,0.40935 -1.58924,0.67422 -0.89094,0.26487 -1.99859,0.26487 -1.20397,0 -1.87819,-0.40935 -0.65014,-0.40935 -0.96318,-0.98725 -0.33711,-0.57791 -0.40935,-1.17989 -0.0722,-0.62607 -0.0722,-1.03542 0,-0.50566 0.21671,-1.44476 0.19264,-0.96317 0.65014,-2.07083 0.45751,-1.10765 1.17989,-2.28754 0.72239,-1.17989 1.7578,-2.14306 1.05949,-0.96318 2.43202,-1.61332 1.3966,-0.65015 3.17848,-0.74646 0.65014,-0.0241 1.10765,0.16855 0.48159,0.16856 0.8187,0.50567 0.33711,0.31303 0.55382,0.72238 0.21672,0.40935 0.36119,0.84278 l 0.40935,-1.17989 q 0.16856,-0.43343 0.33711,-0.65014 0.19264,-0.2408 0.38527,-0.33712 0.21672,-0.0963 0.48159,-0.0963 0.26488,0 0.62607,0.0241 z m -15.96464,30.38818 q 0.89094,-0.0482 1.97451,-1.34844 1.08358,-1.30029 2.23939,-3.41928 1.17989,-2.0949 2.35978,-4.76772 1.20397,-2.64873 2.31162,-5.41786 -2.23939,1.27621 -4.28613,2.62466 -2.04675,1.34844 -3.61191,2.86544 -1.56516,1.517 -2.50426,3.25072 -0.96317,1.7578 -1.03541,3.80454 -0.0241,0.72238 0.16855,1.17989 0.19264,0.48159 0.55383,0.74646 0.33711,0.28896 0.8187,0.38527 0.45751,0.1204 1.01133,0.0963 z m 6.23656,-18.22809 q 0.89094,0 1.68556,-0.40935 0.8187,-0.40935 1.517,-1.0595 0.69831,-0.65014 1.30029,-1.44476 0.62606,-0.8187 1.10765,-1.58924 l 1.15581,-3.32295 q -0.0482,-0.0722 0,-0.21672 0.0482,-0.24079 -0.0241,-0.62606 -0.0482,-0.38527 -0.26487,-0.72238 -0.19264,-0.36119 -0.57791,-0.57791 -0.36119,-0.24079 -0.96317,-0.19263 -1.20397,0.12039 -2.11899,0.98725 -0.91501,0.84278 -1.58924,1.97451 -0.65014,1.13173 -1.13173,2.3357 -0.45751,1.17989 -0.74646,1.99859 -0.0722,0.21671 -0.14447,0.6983 -0.0722,0.45751 -0.0482,0.9391 0.0241,0.48159 0.21671,0.86686 0.19264,0.36119 0.62606,0.36119 z"
           style="font-style:normal;font-variant:normal;font-weight:normal;font-stretch:normal;font-size:24.07938576px;font-family:'Cassandra Personal Use';-inkscape-font-specification:'Cassandra Personal Use';fill:#abafb0;stroke-width:0.20066154;fill-opacity:1"
           id="path1864"
           inkscape:connector-curvature="0" />
        <path
           d="m 337.22304,258.16514 h 2.48084 v 2.98641 h -2.48084 z"
           style="font-style:normal;font-variant:normal;font-weight:normal;font-stretch:normal;font-size:24.07938576px;font-family:'Cassandra Personal Use';-inkscape-font-specification:'Cassandra Personal Use';fill:#abafb0;stroke-width:0.20066154;fill-opacity:1"
           id="path1866"
           inkscape:connector-curvature="0" />
        <path
           d="m 344.87719,258.16514 h 2.48083 v 2.98641 h -2.48083 z"
           style="font-style:normal;font-variant:normal;font-weight:normal;font-stretch:normal;font-size:24.07938576px;font-family:'Cassandra Personal Use';-inkscape-font-specification:'Cassandra Personal Use';fill:#abafb0;stroke-width:0.20066154;fill-opacity:1"
           id="path1868"
           inkscape:connector-curvature="0" />
        <path
           d="m 352.53133,258.16514 h 2.48084 v 2.98641 h -2.48084 z"
           style="font-style:normal;font-variant:normal;font-weight:normal;font-stretch:normal;font-size:24.07938576px;font-family:'Cassandra Personal Use';-inkscape-font-specification:'Cassandra Personal Use';fill:#abafb0;stroke-width:0.20066154;fill-opacity:1"
           id="path1870"
           inkscape:connector-curvature="0" />
      </g>
    </g>
  </g>
</svg>
