<?xml version="1.0" encoding="UTF-8" standalone="no"?>
<svg
   xmlns:sketch-meta="http://www.adobe.com/sketch/meta"
   xmlns:sketch="http://www.adobe.com/sketch"
   xmlns:dc="http://purl.org/dc/elements/1.1/"
   xmlns:cc="http://creativecommons.org/ns#"
   xmlns:rdf="http://www.w3.org/1999/02/22-rdf-syntax-ns#"
   xmlns:svg="http://www.w3.org/2000/svg"
   xmlns="http://www.w3.org/2000/svg"
   xmlns:sodipodi="http://sodipodi.sourceforge.net/DTD/sodipodi-0.dtd"
   xmlns:inkscape="http://www.inkscape.org/namespaces/inkscape"
   xml:space="preserve"
   version="1.1"
   width="306.23001"
   height="306.23001"
   viewBox="0 0 306.23001 306.23002"
   sketch:viewSource="-216 -359.44742 432 512.44739"
   id="svg26"
   sodipodi:docname="favicon.svg"
   inkscape:version="0.92.5 (2060ec1f9f, 2020-04-08)"
   inkscape:export-filename="/home/andrew/Documents/Personal Projects/Longestboi.github.io/_app/favicon.png"
   inkscape:export-xdpi="160.50699"
   inkscape:export-ydpi="160.50699"><metadata
   id="metadata32"><rdf:RDF><cc:Work
       rdf:about=""><dc:format>image/svg+xml</dc:format><dc:type
         rdf:resource="http://purl.org/dc/dcmitype/StillImage" /><dc:title></dc:title></cc:Work></rdf:RDF></metadata><defs
   id="defs30" /><sodipodi:namedview
   pagecolor="#ffffff"
   bordercolor="#666666"
   borderopacity="1"
   objecttolerance="10"
   gridtolerance="10"
   guidetolerance="10"
   inkscape:pageopacity="0"
   inkscape:pageshadow="2"
   inkscape:window-width="1366"
   inkscape:window-height="704"
   id="namedview28"
   showgrid="false"
   inkscape:zoom="0.92107015"
   inkscape:cx="76.402826"
   inkscape:cy="127.39856"
   inkscape:window-x="0"
   inkscape:window-y="27"
   inkscape:window-maximized="1"
   inkscape:current-layer="g24" />
<style
   type="text/css"
   id="style2">
.default {stroke-linecap:round;stroke-linejoin:round;stroke-miterlimit:10;}
</style>

<g
   sketch:guid="776CDCF3-71DE-4DD8-813C-89312A2CB5AF"
   sketch:type="layer"
   sketch-meta:name="Perfect A"
   id="g24"
   transform="translate(0,-206.2174)">
<path
   class="default"
   style="fill:#2c2c2c;fill-opacity:1;stroke-linecap:round;stroke-linejoin:round;stroke-miterlimit:10"
   d=""
   id="path8"
   inkscape:connector-curvature="0" />
<path
   class="default"
   style="fill:#2c2c2c;fill-opacity:1;stroke-linecap:round;stroke-linejoin:round;stroke-miterlimit:10"
   d=""
   id="path10"
   inkscape:connector-curvature="0" />
<path
   class="default"
   style="fill:#2c2c2c;fill-opacity:1;stroke-linecap:round;stroke-linejoin:round;stroke-miterlimit:10"
   d=""
   id="path12"
   inkscape:connector-curvature="0" />
<path
   class="default"
   style="fill:#2c2c2c;fill-opacity:1;stroke-linecap:round;stroke-linejoin:round;stroke-miterlimit:10"
   d=""
   id="path14"
   inkscape:connector-curvature="0" />

<path
   class="default"
   style="fill:#2c2c2c;fill-opacity:1;stroke-linecap:round;stroke-linejoin:round;stroke-miterlimit:10"
   d=""
   id="path18"
   inkscape:connector-curvature="0" />
<path
   class="default"
   style="fill:#2c2c2c;fill-opacity:1;stroke-linecap:round;stroke-linejoin:round;stroke-miterlimit:10"
   d=""
   id="path20"
   inkscape:connector-curvature="0" />

<path
   inkscape:connector-curvature="0"
   style="fill:#00c8ff;fill-opacity:1;stroke-linecap:round;stroke-linejoin:round;stroke-miterlimit:10"
   d="m 204.62608,208.21148 c -1.11172,0 -2.14124,0.28009 -3.09961,0.83594 -0.41529,0.31946 -0.82299,0.63953 -1.23828,0.95898 -0.76031,0.7667 -1.28421,1.66757 -1.57812,2.70899 -0.64532,1.55256 -1.0542,3.18202 -1.57813,4.77929 -0.4664,1.412 -0.93345,2.81705 -1.40625,4.22266 -0.85614,2.52372 -1.71933,5.04765 -2.60742,7.55859 -2.01898,5.73105 -4.13202,11.43086 -6.28515,17.11719 -3.92117,10.36573 -8.20923,20.58744 -12.46094,30.82227 -1.3196,2.98108 -2.63317,5.96207 -3.94727,8.94922 -1.30339,2.9454 -2.53596,5.94201 -3.91601,8.85546 -3.04123,6.43388 -6.09496,12.8616 -9.14258,19.28907 -0.59198,1.25554 -1.23155,2.49144 -1.88086,3.7207 -5.32648,-3.47974 -10.99404,-6.39123 -17.13476,-8.19336 -4.58102,-1.34173 -9.51992,-1.87857 -14.27344,-1.55273 -4.84935,0.32587 -9.35834,1.64228 -13.72851,3.71875 -1.98703,0.93921 -3.77598,2.29978 -5.48828,3.65429 -1.64839,1.30337 -3.17575,2.69565 -4.61329,4.22266 -3.27764,3.46291 -5.96258,7.56551 -8.03906,11.83984 -1.16282,2.39593 -2.13922,4.90741 -2.95703,7.4375 -0.95838,2.96457 -1.3739,6.08148 -1.69336,9.17383 -0.58142,5.57133 0.30113,11.41154 1.82813,16.76563 1.55893,5.45633 4.11977,10.7071 7.10351,15.51172 3.03483,4.87493 6.8311,9.3219 11.03516,13.21289 0.77368,0.71444 1.56209,1.41123 2.36719,2.08789 -1.83665,2.68377 -3.67652,5.3704 -5.51758,8.05859 -2.83359,4.13487 -5.89396,8.1258 -8.95313,12.10352 -4.63477,5.96189 -9.45357,11.76879 -14.48242,17.40234 -3.50124,3.91653 -7.05429,7.83154 -10.875,11.44141 -5.475487,5.17521 -10.898337,10.40905 -16.552727,15.39257 -2.51093,2.21065 -2.24897,6.42097 0,8.66993 1.15004,1.14365 2.72144,1.79492 4.33789,1.79492 1.7059,0 3.08561,-0.6896 4.33789,-1.79492 6.114407,-5.38604 11.966447,-11.05351 17.882807,-16.6504 1.41198,-1.32893 2.71011,-2.79166 4.03906,-4.19726 1.59729,-1.68673 3.1676,-3.39851 4.72656,-5.11719 3.39262,-3.74403 6.67155,-7.5845 9.87891,-11.48828 3.07955,-3.75681 6.04929,-7.60917 8.98828,-11.47461 2.20426,-2.89428 4.4466,-5.78278 6.50391,-8.7793 1.9057,-2.78589 3.81369,-5.57083 5.7207,-8.35546 5.75613,3.30253 11.98139,5.781 18.44922,7.33398 5.45632,1.30978 11.18827,1.75603 16.78515,1.35352 3.88356,-0.28235 7.71792,-0.91504 11.52539,-1.69336 -0.62433,4.30062 -1.28605,8.60235 -1.67383,12.93164 -0.86892,9.73065 0.0189,19.5386 2.00586,29.08398 1.91035,9.14285 5.31654,18.0687 9.88477,26.21484 2.2873,4.08268 5.03414,7.84614 7.89648,11.53907 2.94538,3.80154 6.27529,7.25156 9.97461,10.31836 3.32872,2.7601 6.93159,5.11648 10.77149,7.10351 4.42127,2.2937 9.30285,3.25983 14.24804,3.40039 2.42148,0.0703 4.86099,-0.31445 7.24414,-0.6914 2.08285,-0.33224 4.09712,-0.9769 6.0586,-1.75 4.44684,-1.74423 8.32482,-4.48542 11.61523,-7.93555 6.40829,-6.72775 9.21881,-16.1192 9.73633,-25.21094 0.26193,-4.54907 -0.41604,-9.13607 -1.24023,-13.5957 -0.89448,-4.8302 -2.31806,-9.54631 -4.01758,-14.14648 -1.80814,-4.86854 -4.05072,-9.53199 -6.24219,-14.23438 -1.3609,-2.91346 -2.86288,-5.74365 -4.35156,-8.59961 -5.93552,-11.37905 -12.57294,-22.40122 -19.53711,-33.17969 -4.05069,-6.25497 -8.12796,-12.48951 -12.26172,-18.69336 -3.52041,-5.29021 -7.28977,-10.40924 -11.16797,-15.4375 -0.95837,-1.23948 -1.91077,-2.47925 -2.86914,-3.71875 -0.56275,-0.73268 -1.14534,-1.44661 -1.73828,-2.15429 0.52532,-2.31691 1.05102,-4.63313 1.57812,-6.94922 1.55896,-6.84277 3.22012,-13.66737 4.66407,-20.5293 1.62921,-7.74364 3.25891,-15.48683 4.89453,-23.23047 1.36728,-6.51692 2.42294,-13.11713 3.61133,-19.66601 0.50472,-2.76011 1.06603,-5.51316 1.42382,-8.29883 0.47281,-3.62903 0.94568,-7.25821 1.41211,-10.88086 0.55585,-4.28711 1.20667,-8.57457 1.63477,-12.88086 0.60696,-6.06967 1.08654,-12.14446 1.29101,-18.24609 0.0894,-2.71538 0.14774,-5.43111 0.10938,-8.14649 -0.0511,-3.25207 -0.45379,-6.42757 -1.10547,-9.60937 -0.53668,-2.6515 -3.32257,-4.50391 -5.91016,-4.50391 z m -7.16211,44.71484 c -0.038,0.30071 -0.076,0.60159 -0.11523,0.90235 -0.74634,5.77096 -1.4969,11.54655 -2.24414,17.31836 -1.34093,7.3843 -2.68988,14.76999 -4.03711,22.15429 -1.13727,6.22942 -2.53645,12.41385 -3.83984,18.61133 -1.96474,9.33004 -4.11876,18.6187 -6.22461,27.91797 -0.85269,-0.91268 -1.70427,-1.82561 -2.55274,-2.73828 -1.06059,-1.13727 -2.24909,-2.17272 -3.36718,-3.24609 -1.24591,-1.20116 -2.48513,-2.39455 -3.72461,-3.59571 -1.13727,-1.08615 -2.45456,-2.03987 -3.66211,-3.04297 -0.74475,-0.61927 -1.49566,-1.23474 -2.25196,-1.8457 0.71879,-1.38869 1.43792,-2.77732 2.15625,-4.16601 1.07338,-2.06369 2.01892,-4.1968 3.01563,-6.29883 1.92952,-4.07627 3.85954,-8.14693 5.78906,-12.2168 2.8815,-6.0697 5.4682,-12.27942 8.18359,-18.42578 2.74732,-6.22302 5.25847,-12.55542 7.86524,-18.83594 1.72024,-4.14112 3.38864,-8.30701 5.00976,-12.49219 z m -67.02733,67.72852 c 3.19012,0.53127 6.2567,1.41759 9.26758,2.59766 3.50468,1.59652 6.91428,3.50772 10.08789,5.6914 -0.82997,1.60098 -1.6603,3.20142 -2.49024,4.80078 -2.92622,5.6544 -6.13956,11.16802 -9.23828,16.72657 -2.21704,3.98683 -4.41389,7.96785 -6.77148,11.86523 -3.89739,6.44025 -7.79546,12.88006 -11.69922,19.32031 -0.67087,1.10531 -1.41761,2.15959 -2.15235,3.22657 -0.18994,0.27741 -0.38038,0.55459 -0.57031,0.83203 -2.59208,-2.31418 -4.99055,-4.81634 -7.18359,-7.53711 -2.66972,-3.61907 -4.93713,-7.47253 -6.77539,-11.58008 -1.34329,-3.39088 -2.37456,-6.82552 -2.9668,-10.41797 -0.30139,-2.97527 -0.31024,-5.90948 0.002,-8.87695 0.50232,-2.85502 1.2974,-5.57789 2.35352,-8.27149 1.37279,-3.02451 3.00423,-5.84604 4.96289,-8.5332 1.68325,-2.04495 3.51334,-3.90068 5.55468,-5.58984 1.44955,-1.03379 2.94071,-1.93158 4.54688,-2.68946 1.87021,-0.68759 3.75743,-1.20605 5.71875,-1.56054 2.45983,-0.24224 4.88455,-0.23209 7.35351,-0.004 z m 29.26757,15.79297 c 0.98224,0.81616 1.96432,1.63237 2.94531,2.44726 1.1756,0.97754 2.22867,2.15231 3.33399,3.2129 1.25227,1.20755 2.50554,2.41549 3.75781,3.62304 1.11171,1.07337 2.12743,2.28122 3.18164,3.41211 1.20116,1.28421 2.397,2.56734 3.5918,3.85156 0.42671,0.45685 0.83847,0.9291 1.24414,1.40821 -1.27951,5.79024 -2.56217,11.58227 -3.83985,17.37695 -1.412,6.4147 -2.65791,12.87419 -3.98047,19.31445 -0.39276,1.92208 -0.73095,3.85388 -1.06445,5.78711 -3.44426,0.79591 -6.893,1.56802 -10.39648,2.09766 -2.18014,0.26091 -4.35886,0.45982 -6.55664,0.50976 -2.20131,0.0555 -4.40134,-0.10675 -6.58594,-0.36328 -4.45908,-0.73091 -8.78965,-1.97084 -12.99414,-3.63281 -1.86726,-0.8318 -3.68478,-1.74715 -5.45507,-2.74219 0.3822,-0.5585 0.76438,-1.1172 1.14648,-1.67578 3.43736,-5.01547 6.44781,-10.31877 9.59766,-15.51953 3.02207,-4.99631 6.05579,-9.96788 8.89257,-15.06641 2.33843,-4.19128 4.67187,-8.38151 7.0039,-12.5664 1.15004,-2.06369 2.35721,-4.10163 3.44336,-6.19727 0.91161,-1.75914 1.8229,-3.51818 2.73438,-5.27734 z m 27.88281,30.07812 c 0.34494,0.44739 0.6899,0.89609 1.03516,1.34375 2.14675,2.79205 4.08881,5.76942 6.12695,8.64453 3.66098,5.16882 7.05874,10.54113 10.49609,15.86329 3.44376,5.32216 6.9452,10.6248 10.19727,16.06836 1.7634,2.95178 3.59649,5.87119 5.2832,8.86132 1.73144,3.07956 3.46388,6.15341 5.19532,9.22657 1.86564,3.31597 3.53348,6.77303 5.29687,10.14648 0.84977,1.63563 1.56427,3.35977 2.34375,5.02734 0.7413,1.59203 1.48367,3.18572 2.23047,4.78321 2.80359,6.88719 5.00344,13.9241 6.12109,21.28515 0.34128,3.22986 0.38316,6.44093 0.0664,9.66993 -0.46979,2.81608 -1.21753,5.52236 -2.25,8.17968 -0.79028,1.6684 -1.6929,3.22944 -2.75586,4.72852 -1.18637,1.39026 -2.4587,2.64685 -3.85156,3.8125 -1.26971,0.88629 -2.57297,1.65465 -3.96485,2.32226 -1.89593,0.69561 -3.81387,1.20154 -5.80664,1.55274 -2.05258,0.19781 -4.083,0.219 -6.14257,0.0371 -1.59094,-0.27847 -3.14004,-0.66491 -4.67383,-1.19922 -3.08395,-1.42541 -5.98114,-3.24527 -8.71289,-5.26367 -3.92637,-3.18317 -7.34297,-6.82431 -10.47266,-10.78125 -3.7653,-5.06085 -6.97529,-10.45395 -9.54102,-16.21875 -2.95244,-7.24692 -4.97608,-14.7843 -6.125,-22.52149 -0.45008,-3.73316 -0.70446,-7.47861 -0.7539,-11.24804 -0.0433,-3.69441 0.27237,-7.37649 0.64062,-11.05274 0.45073,-3.16202 0.90277,-6.32771 1.35352,-9.49414 0.45364,-3.1754 1.11159,-6.32475 1.67383,-9.47461 1.25226,-6.97694 2.70218,-13.90266 4.12695,-20.84765 0.92334,-4.48955 1.88292,-8.97367 2.86328,-13.45118 z"
   id="path16-3" /></g>
</svg>