<?xml version="1.0" encoding="UTF-8" standalone="no"?>
<svg xmlns:ffdec="https://www.free-decompiler.com/flash" xmlns:xlink="http://www.w3.org/1999/xlink" ffdec:objectType="shape" height="40.0px" width="50.0px" xmlns="http://www.w3.org/2000/svg">
  <g transform="matrix(1.0, 0.0, 0.0, 1.0, 25.0, 20.0)">
    <path d="M2.85 -17.6 L3.0 -17.55 4.15 -16.95 4.15 -16.9 4.3 -16.7 4.5 -16.6 4.8 -16.55 5.9 -16.5 6.5 -16.5 8.35 -16.75 8.45 -16.7 9.45 -16.55 10.9 -15.9 13.25 -14.0 14.15 -12.85 14.95 -11.35 15.1 -11.0 Q14.2 -11.0 13.6 -11.85 L13.2 -12.5 12.75 -13.25 Q12.05 -14.65 10.7 -15.35 L9.8 -15.8 8.25 -15.7 7.95 -15.3 7.65 -14.95 7.25 -15.1 Q6.15 -15.65 4.9 -15.6 L5.0 -15.45 5.65 -14.95 6.3 -14.1 6.35 -13.7 Q6.35 -13.6 6.15 -13.6 L5.6 -13.9 Q4.35 -15.05 2.75 -15.6 2.25 -15.75 1.8 -16.05 L-0.75 -16.2 Q-1.35 -15.85 -2.0 -15.85 -2.2 -15.9 -2.1 -16.25 -1.95 -16.55 -1.95 -16.9 -1.85 -17.7 -2.5 -17.4 L-2.85 -17.3 -3.6 -17.2 -4.35 -17.1 Q-5.6 -16.9 -6.6 -16.1 L-7.3 -15.7 -8.5 -15.05 -9.2 -14.5 -10.25 -13.7 Q-10.65 -13.35 -11.15 -13.25 L-11.75 -12.75 -11.35 -12.8 Q-10.95 -12.85 -10.75 -12.6 L-10.7 -12.45 Q-11.75 -11.45 -13.1 -10.95 L-13.8 -10.6 -14.4 -10.2 -14.95 -9.7 -15.6 -8.95 -16.1 -8.2 Q-17.3 -6.05 -17.8 -3.65 L-18.15 -2.75 -18.3 -2.65 -18.5 -2.75 Q-19.0 -3.6 -18.7 -4.55 L-17.8 -7.3 -17.9 -7.3 -17.65 -7.6 -17.65 -7.7 -17.65 -7.8 -17.6 -7.9 Q-16.2 -10.1 -14.1 -11.5 L-14.05 -11.6 -13.95 -11.8 -13.75 -11.9 -13.75 -12.0 -14.1 -11.9 Q-17.0 -10.95 -18.2 -7.95 L-18.15 -7.85 -18.15 -7.8 -18.15 -7.7 -18.25 -7.5 -18.3 -7.1 -18.25 -7.1 -18.7 -6.7 -18.0 -8.5 Q-16.65 -11.5 -13.6 -12.85 -11.75 -13.7 -10.25 -15.05 L-9.0 -15.95 -9.3 -15.55 -9.2 -15.45 -9.0 -15.5 -6.8 -16.95 -5.4 -17.5 Q-3.5 -17.9 -1.7 -18.55 L1.5 -18.05 1.4 -18.0 1.3 -17.9 1.25 -17.85 1.25 -17.75 1.25 -17.65 1.25 -17.55 1.65 -17.2 Q2.25 -17.05 2.5 -17.6 L2.85 -17.6 M23.5 -2.85 L23.65 -2.3 Q24.15 -0.3 23.4 1.6 L22.95 1.6 22.9 1.55 Q22.6 1.05 22.6 0.5 L22.25 -2.7 Q22.0 -3.65 21.45 -4.25 L21.4 -4.25 Q20.95 -4.7 20.25 -4.85 L19.75 -4.75 19.5 -4.5 Q18.7 -3.6 18.55 -2.3 L18.45 -2.25 18.25 -2.2 18.0 -2.05 17.9 -2.0 17.25 -2.05 Q16.85 -2.4 16.6 -2.85 15.5 -4.4 13.85 -5.1 L13.25 -5.25 13.05 -5.3 12.9 -5.2 Q11.2 -5.05 11.15 -3.2 L11.15 -2.9 10.6 -4.75 10.3 -5.3 9.95 -5.75 Q9.65 -6.15 9.6 -6.75 L9.5 -7.3 9.3 -7.9 8.6 -9.65 8.45 -10.0 8.4 -10.4 8.4 -10.5 10.2 -8.9 11.3 -7.75 11.7 -7.4 12.05 -7.2 12.55 -7.1 13.2 -7.0 14.45 -6.6 Q16.25 -5.8 17.45 -4.25 L17.6 -3.95 17.8 -3.8 Q18.2 -3.7 18.3 -4.2 L18.45 -4.8 18.75 -5.95 18.95 -6.2 19.7 -6.3 20.55 -6.0 Q22.25 -5.0 22.9 -3.2 L23.15 -2.6 23.2 -2.45 23.5 -2.85 M10.1 3.35 L9.2 2.15 Q7.95 0.8 6.25 0.8 5.75 0.85 5.45 1.25 4.95 1.8 4.8 2.45 L4.5 -0.65 4.2 -1.95 4.15 -2.7 Q5.15 -2.65 5.9 -1.95 L6.95 -0.85 7.4 -0.55 8.0 -0.2 9.95 1.0 Q10.7 1.55 10.9 2.45 L11.2 3.35 11.4 3.9 9.95 2.2 9.8 2.25 9.7 2.35 9.7 2.45 10.1 3.35 M4.0 17.7 L3.85 17.25 3.75 16.6 3.6 13.7 3.5 12.05 3.25 10.35 Q2.75 8.3 1.4 6.6 0.7 5.6 -0.1 5.9 L0.15 3.35 0.3 2.45 0.5 1.8 Q0.95 1.75 1.05 2.3 L1.2 3.0 2.1 6.05 2.45 6.7 Q3.0 7.35 3.15 8.3 L3.65 11.15 3.85 12.1 3.95 12.95 4.0 15.45 4.0 16.6 4.0 17.7 M-6.25 4.2 L-6.95 3.65 -7.85 3.6 -8.6 3.45 -9.7 4.1 -9.95 4.4 -11.15 6.45 -11.9 8.05 -12.15 8.65 -13.3 9.45 -14.05 10.25 Q-14.5 11.35 -14.6 12.6 L-14.75 13.35 Q-15.15 13.45 -15.2 13.85 -15.55 16.1 -16.25 18.15 L-16.0 18.4 -15.5 17.85 -15.0 16.75 -15.35 18.0 -15.5 18.2 -15.6 18.45 -15.65 18.6 -15.8 18.65 -16.0 18.65 -16.05 18.6 -16.9 18.2 -17.15 18.15 -17.4 17.85 -18.0 15.95 -17.6 16.45 -17.45 16.65 -16.4 16.7 Q-15.75 16.35 -15.55 15.55 L-15.2 13.65 -15.05 12.7 Q-15.0 11.55 -15.1 10.5 L-15.1 9.6 -14.75 8.5 -14.45 8.15 -14.1 8.0 -13.6 7.75 -13.05 7.4 -12.7 7.0 -12.15 6.05 -11.85 5.35 -11.1 3.6 Q-10.7 2.95 -10.0 2.9 L-9.6 2.8 -8.75 2.2 Q-8.25 1.7 -8.0 1.0 L-7.6 0.15 Q-7.4 -0.25 -7.0 -0.2 L-6.75 0.0 Q-5.9 0.8 -5.95 2.05 L-6.1 2.85 -6.25 4.2 M-18.45 2.15 L-18.7 2.0 Q-20.15 1.25 -20.95 2.5 L-21.45 3.4 -22.25 5.25 -22.5 5.65 -22.75 5.95 -22.75 6.05 -22.8 6.15 -22.8 6.2 -23.05 6.5 -23.4 6.8 -23.5 6.75 Q-23.95 5.75 -23.65 4.6 L-23.2 3.1 -23.1 3.55 Q-23.1 3.7 -22.9 3.7 -22.35 3.8 -22.1 3.3 L-21.9 3.0 -21.05 1.7 -20.55 1.0 -19.55 0.0 Q-18.9 -0.6 -18.6 0.15 L-18.45 0.65 -18.45 1.7 -18.45 2.15 M17.85 -2.9 L17.55 -3.05 17.4 -3.0 17.3 -2.95 17.2 -2.85 17.15 -2.75 17.15 -2.55 17.15 -2.45 Q17.9 -1.9 17.9 -2.75 L17.85 -2.9 M-11.95 -12.5 L-11.95 -12.55 -12.25 -12.8 -12.4 -12.8 -12.55 -12.45 -12.25 -12.2 -12.15 -12.25 -12.05 -12.3 -11.95 -12.5" fill="#ffc20d" fill-rule="evenodd" stroke="none"/>
    <path d="M-18.7 -6.7 L-18.25 -7.1 -18.05 -7.05 -18.0 -7.15 -17.9 -7.3 -17.8 -7.3 -18.7 -4.55 Q-19.0 -3.6 -18.5 -2.75 L-18.3 -2.65 -18.15 -2.75 -17.8 -3.65 Q-17.3 -6.05 -16.1 -8.2 L-15.6 -8.95 -14.95 -9.7 -14.4 -10.2 -13.8 -10.6 -13.1 -10.95 Q-11.75 -11.45 -10.7 -12.45 L-10.75 -12.6 Q-10.95 -12.85 -11.35 -12.8 L-11.75 -12.75 -11.15 -13.25 Q-10.65 -13.35 -10.25 -13.7 L-9.2 -14.5 -8.5 -15.05 -7.3 -15.7 -6.6 -16.1 Q-5.6 -16.9 -4.35 -17.1 L-3.6 -17.2 -2.85 -17.3 -2.5 -17.4 Q-1.85 -17.7 -1.95 -16.9 -1.95 -16.55 -2.1 -16.25 -2.2 -15.9 -2.0 -15.85 -1.35 -15.85 -0.75 -16.2 L1.8 -16.05 Q2.25 -15.75 2.75 -15.6 4.35 -15.05 5.6 -13.9 L6.15 -13.6 Q6.35 -13.6 6.35 -13.7 L6.3 -14.1 5.65 -14.95 5.0 -15.45 4.9 -15.6 Q6.15 -15.65 7.25 -15.1 L7.65 -14.95 7.95 -15.3 8.25 -15.7 9.8 -15.8 10.7 -15.35 Q12.05 -14.65 12.75 -13.25 L13.2 -12.5 13.6 -11.85 Q14.2 -11.0 15.1 -11.0 16.15 -8.85 18.25 -8.0 L19.15 -7.75 19.6 -7.4 Q21.5 -6.7 22.5 -5.05 L23.5 -2.85 23.2 -2.45 23.15 -2.6 22.9 -3.2 Q22.25 -5.0 20.55 -6.0 L19.7 -6.3 18.95 -6.2 18.75 -5.95 18.45 -4.8 18.3 -4.2 Q18.2 -3.7 17.8 -3.8 L17.6 -3.95 17.45 -4.25 Q16.25 -5.8 14.45 -6.6 L13.2 -7.0 12.55 -7.1 12.05 -7.2 11.7 -7.4 11.3 -7.75 10.2 -8.9 8.4 -10.5 8.4 -10.4 8.45 -10.0 8.6 -9.65 9.3 -7.9 9.5 -7.3 9.6 -6.75 Q9.65 -6.15 9.95 -5.75 L10.3 -5.3 10.6 -4.75 11.15 -2.9 Q11.2 -2.35 11.55 -1.9 12.95 -0.3 13.55 1.75 L13.8 3.15 13.85 6.05 Q13.8 7.2 13.0 8.0 L12.5 8.0 12.45 8.0 11.85 6.95 12.2 7.3 Q12.7 7.2 12.55 6.75 L11.8 4.65 11.4 3.9 11.2 3.35 10.9 2.45 Q10.7 1.55 9.95 1.0 L8.0 -0.2 7.4 -0.55 6.95 -0.85 5.9 -1.95 Q5.15 -2.65 4.15 -2.7 L4.2 -1.95 4.5 -0.65 4.8 2.45 4.75 2.6 4.7 2.75 Q4.45 3.7 4.85 4.85 L5.25 6.05 5.5 6.9 6.15 9.75 6.35 10.95 6.5 13.25 6.5 13.65 6.4 16.55 6.4 16.65 Q6.35 18.5 4.65 18.7 L4.0 17.7 4.0 16.6 4.0 15.45 3.95 12.95 3.85 12.1 3.65 11.15 3.15 8.3 Q3.0 7.35 2.45 6.7 L2.1 6.05 1.2 3.0 1.05 2.3 Q0.95 1.75 0.5 1.8 L0.3 2.45 0.15 3.35 -0.1 5.9 Q-0.45 6.0 -0.85 6.35 L-0.95 8.45 -0.95 9.3 Q-0.85 10.45 -1.4 11.45 -1.8 12.25 -2.55 11.9 -4.0 11.2 -4.25 9.5 -4.5 7.8 -5.1 6.3 L-5.7 4.95 -5.8 4.75 -6.25 4.2 -6.1 2.85 -5.95 2.05 Q-5.9 0.8 -6.75 0.0 L-7.0 -0.2 Q-7.4 -0.25 -7.6 0.15 L-8.0 1.0 Q-8.25 1.7 -8.75 2.2 L-9.6 2.8 -10.0 2.9 Q-10.7 2.95 -11.1 3.6 L-11.85 5.35 -12.15 6.05 -12.7 7.0 -13.05 7.4 -13.6 7.75 -14.1 8.0 -14.45 8.15 -14.75 8.5 -15.1 9.6 -15.1 10.5 Q-15.0 11.55 -15.05 12.7 L-15.2 13.65 -15.55 15.55 Q-15.75 16.35 -16.4 16.7 L-17.45 16.65 -17.6 16.45 -18.0 15.95 -18.0 14.2 -17.55 10.0 -17.4 8.75 -17.25 7.55 Q-16.8 5.25 -17.65 3.2 -17.8 2.75 -18.1 2.45 L-18.45 2.15 -18.45 1.7 -18.45 0.65 -18.6 0.15 Q-18.9 -0.6 -19.55 0.0 L-20.55 1.0 -21.05 1.7 -21.9 3.0 -22.1 3.3 Q-22.35 3.8 -22.9 3.7 -23.1 3.7 -23.1 3.55 L-23.2 3.1 -21.75 -0.5 -21.3 -1.25 Q-19.95 -3.3 -19.15 -5.55 L-18.7 -6.7" fill="#cc9900" fill-rule="evenodd" stroke="none"/>
    <path d="M16.45 -11.4 L17.4 -10.0 17.9 -9.65 21.8 -7.6 Q23.5 -6.55 24.25 -4.75 L24.4 -4.4 Q25.4 -1.55 24.8 1.45 L24.5 2.2 Q23.7 3.4 22.65 2.9 L22.0 2.4 21.8 2.1 Q21.2 0.7 21.2 -0.8 21.25 -2.45 20.2 -3.55 L20.15 -3.05 Q19.95 -1.7 18.85 -0.95 L18.4 -0.75 17.45 -0.65 Q17.05 -0.75 16.7 -0.95 16.2 -1.25 15.85 -1.8 L14.55 -3.25 13.15 -4.0 Q12.4 -3.65 12.4 -3.1 12.45 -2.65 12.9 -2.15 14.45 -0.35 15.0 2.0 L15.2 3.7 15.2 3.8 Q15.3 6.1 14.4 8.15 L14.3 8.35 Q13.7 9.5 12.45 9.3 L12.3 9.25 Q11.6 9.1 11.2 8.4 L10.05 6.2 8.45 3.3 7.9 2.7 6.95 2.1 6.2 2.15 6.1 2.25 6.05 2.3 6.0 3.4 Q5.95 4.85 6.5 6.25 L7.15 8.4 7.6 11.05 7.75 11.1 7.8 12.65 7.75 12.8 7.75 13.35 7.75 14.65 7.6 16.35 7.15 18.15 Q6.55 20.2 4.45 19.95 L4.35 19.95 4.25 19.9 3.4 19.35 3.15 18.9 2.7 17.5 2.65 17.35 Q2.35 16.0 2.4 14.6 L2.4 13.7 2.25 12.15 2.05 11.1 1.65 9.7 0.8 7.9 0.35 7.3 0.3 9.05 0.05 11.2 Q-0.3 13.4 -2.5 13.25 -3.65 13.1 -4.3 12.25 L-4.4 12.15 -5.2 10.75 Q-5.7 9.6 -5.8 8.35 L-5.9 7.9 -6.6 6.1 -7.5 4.6 -7.7 4.5 -8.2 4.8 -8.95 5.25 -9.55 5.9 -10.05 7.25 -10.85 8.75 -11.4 9.65 -11.7 9.95 -13.0 10.85 -13.0 10.9 -13.3 13.35 -13.45 14.75 -13.5 15.25 Q-13.7 17.05 -14.5 18.65 -15.25 20.15 -16.65 19.5 L-17.55 19.3 -18.45 18.65 Q-19.45 17.15 -19.4 15.3 L-19.0 12.05 -18.65 9.4 -18.5 6.4 -18.5 5.95 -18.5 5.0 Q-18.5 4.0 -19.2 3.15 L-19.25 3.15 -19.35 3.05 -19.55 3.1 -19.8 3.15 -21.1 5.75 -22.1 7.4 -22.3 7.65 Q-23.2 8.45 -24.05 7.9 L-24.5 7.45 -24.85 6.8 Q-25.1 5.6 -24.85 4.4 -24.4 2.35 -23.6 0.45 L-22.8 -0.95 Q-22.4 -2.35 -21.6 -3.55 -20.25 -5.55 -19.55 -7.85 L-18.75 -9.8 -18.2 -10.5 Q-17.5 -12.1 -15.85 -12.95 -12.6 -14.65 -9.7 -17.0 -8.0 -18.4 -5.85 -19.2 L-3.35 -20.0 Q0.35 -20.0 3.8 -18.65 L5.45 -17.75 7.9 -18.05 7.9 -18.1 Q11.8 -17.8 14.3 -14.7 L15.4 -13.15 16.45 -11.4 M15.1 -11.0 L14.95 -11.35 14.15 -12.85 13.25 -14.0 10.9 -15.9 9.45 -16.55 8.45 -16.7 8.35 -16.75 6.5 -16.5 5.9 -16.5 4.8 -16.55 4.5 -16.6 4.3 -16.7 4.15 -16.9 4.15 -16.95 3.0 -17.55 2.85 -17.6 3.0 -17.65 3.05 -17.7 2.55 -17.8 2.5 -17.85 2.45 -17.95 1.65 -18.1 1.5 -18.05 -1.7 -18.55 -1.3 -18.7 -1.35 -18.75 -1.45 -18.9 Q-4.65 -19.0 -7.45 -17.4 -8.45 -16.85 -9.0 -15.95 L-10.25 -15.05 Q-11.75 -13.7 -13.6 -12.85 -16.65 -11.5 -18.0 -8.5 L-18.7 -6.7 -19.15 -5.55 Q-19.95 -3.3 -21.3 -1.25 L-21.75 -0.5 -23.2 3.1 -23.65 4.6 Q-23.95 5.75 -23.5 6.75 L-23.4 6.8 -23.05 6.5 -22.8 6.2 -22.8 6.15 -22.75 6.05 -22.75 5.95 -22.5 5.65 -22.25 5.25 -21.45 3.4 -20.95 2.5 Q-20.15 1.25 -18.7 2.0 L-18.45 2.15 -18.1 2.45 Q-17.8 2.75 -17.65 3.2 -16.8 5.25 -17.25 7.55 L-17.4 8.75 -17.55 10.0 -18.0 14.2 -18.0 15.95 -17.4 17.85 -17.15 18.15 -16.9 18.2 -16.05 18.6 -16.0 18.65 -15.8 18.65 -15.65 18.6 -15.6 18.45 -15.5 18.2 -15.35 18.0 -15.0 16.75 -14.55 15.25 Q-14.25 14.15 -14.6 13.3 L-14.6 13.15 -14.5 12.4 -14.6 12.6 Q-14.5 11.35 -14.05 10.25 L-13.3 9.45 -12.15 8.65 -11.9 8.05 -11.15 6.45 -9.95 4.4 -9.7 4.1 -8.6 3.45 -7.85 3.6 -6.95 3.65 -6.25 4.2 -5.8 4.75 -5.7 4.95 -5.1 6.3 Q-4.5 7.8 -4.25 9.5 -4.0 11.2 -2.55 11.9 -1.8 12.25 -1.4 11.45 -0.85 10.45 -0.95 9.3 L-0.95 8.45 -0.85 6.35 Q-0.45 6.0 -0.1 5.9 0.7 5.6 1.4 6.6 2.75 8.3 3.25 10.35 L3.5 12.05 3.6 13.7 3.75 16.6 3.85 17.25 4.0 17.7 4.65 18.7 Q6.35 18.5 6.4 16.65 L6.4 16.55 6.5 13.65 6.5 13.25 6.35 10.95 6.15 9.75 5.5 6.9 5.25 6.05 4.85 4.85 Q4.45 3.7 4.7 2.75 L4.75 2.6 4.8 2.45 Q4.95 1.8 5.45 1.25 5.75 0.85 6.25 0.8 7.95 0.8 9.2 2.15 L10.1 3.35 11.0 5.55 11.85 6.95 12.45 8.0 12.5 8.0 13.0 8.0 Q13.8 7.2 13.85 6.05 L13.8 3.15 13.55 1.75 Q12.95 -0.3 11.55 -1.9 11.2 -2.35 11.15 -2.9 L11.15 -3.2 Q11.2 -5.05 12.9 -5.2 L13.05 -5.3 13.25 -5.25 13.85 -5.1 Q15.5 -4.4 16.6 -2.85 16.85 -2.4 17.25 -2.05 L17.9 -2.0 18.0 -2.05 18.25 -2.2 18.45 -2.25 18.55 -2.3 Q18.7 -3.6 19.5 -4.5 L19.75 -4.75 20.25 -4.85 Q20.95 -4.7 21.4 -4.25 L21.45 -4.25 Q22.0 -3.65 22.25 -2.7 L22.6 0.5 Q22.6 1.05 22.9 1.55 L22.95 1.6 23.4 1.6 Q24.15 -0.3 23.65 -2.3 L23.5 -2.85 22.5 -5.05 Q21.5 -6.7 19.6 -7.4 L19.15 -7.75 18.25 -8.0 Q16.15 -8.85 15.1 -11.0" fill="#846300" fill-rule="evenodd" stroke="none"/>
    <path d="M2.85 -17.6 L2.5 -17.6 Q2.25 -17.05 1.65 -17.2 L1.25 -17.55 1.25 -17.65 1.25 -17.75 1.25 -17.85 1.3 -17.9 1.4 -18.0 1.5 -18.05 1.65 -18.1 2.45 -17.95 2.5 -17.85 2.55 -17.8 3.05 -17.7 3.0 -17.65 2.85 -17.6 M-1.7 -18.55 Q-3.5 -17.9 -5.4 -17.5 L-6.8 -16.95 -9.0 -15.5 -9.2 -15.45 -9.3 -15.55 -9.0 -15.95 Q-8.45 -16.85 -7.45 -17.4 -4.65 -19.0 -1.45 -18.9 L-1.35 -18.75 -1.3 -18.7 -1.7 -18.55 M-18.25 -7.1 L-18.3 -7.1 -18.25 -7.5 -18.15 -7.7 -18.15 -7.8 -18.15 -7.85 -18.2 -7.95 Q-17.0 -10.95 -14.1 -11.9 L-13.75 -12.0 -13.75 -11.9 -13.95 -11.8 -14.05 -11.6 -14.1 -11.5 Q-16.2 -10.1 -17.6 -7.9 L-17.65 -7.8 -17.65 -7.7 -17.65 -7.6 -17.9 -7.3 -18.0 -7.15 -18.05 -7.05 -18.25 -7.1 M11.85 6.95 L11.0 5.55 10.1 3.35 9.7 2.45 9.7 2.35 9.8 2.25 9.95 2.2 11.4 3.9 11.8 4.65 12.55 6.75 Q12.7 7.2 12.2 7.3 L11.85 6.95 M-14.6 12.6 L-14.5 12.4 -14.6 13.15 -14.6 13.3 Q-14.25 14.15 -14.55 15.25 L-15.0 16.75 -15.5 17.85 -16.0 18.4 -16.25 18.15 Q-15.55 16.1 -15.2 13.85 -15.15 13.45 -14.75 13.35 L-14.6 12.6 M17.85 -2.9 L17.9 -2.75 Q17.9 -1.9 17.15 -2.45 L17.15 -2.55 17.15 -2.75 17.2 -2.85 17.3 -2.95 17.4 -3.0 17.55 -3.05 17.85 -2.9 M-11.95 -12.5 L-12.05 -12.3 -12.15 -12.25 -12.25 -12.2 -12.55 -12.45 -12.4 -12.8 -12.25 -12.8 -11.95 -12.55 -11.95 -12.5" fill="#ffff66" fill-rule="evenodd" stroke="none"/>
  </g>
</svg>
