<?xml version="1.0" encoding="UTF-8" standalone="no"?>
<!-- Created with Inkscape (http://www.inkscape.org/) -->

<svg
   width="32.702mm"
   height="32.208mm"
   viewBox="0 0 32.701999 32.208001"
   version="1.1"
   id="svg5"
   sodipodi:docname="Gmail.svg"
   inkscape:version="1.1.2 (0a00cf5339, 2022-02-04)"
   xmlns:inkscape="http://www.inkscape.org/namespaces/inkscape"
   xmlns:sodipodi="http://sodipodi.sourceforge.net/DTD/sodipodi-0.dtd"
   xmlns="http://www.w3.org/2000/svg"
   xmlns:svg="http://www.w3.org/2000/svg">
  <sodipodi:namedview
     id="namedview7"
     pagecolor="#ffffff"
     bordercolor="#666666"
     borderopacity="1.0"
     inkscape:pageshadow="2"
     inkscape:pageopacity="0.0"
     inkscape:pagecheckerboard="0"
     inkscape:document-units="mm"
     showgrid="false"
     inkscape:zoom="1.8779181"
     inkscape:cx="49.256675"
     inkscape:cy="108.09843"
     inkscape:window-width="1366"
     inkscape:window-height="731"
     inkscape:window-x="0"
     inkscape:window-y="0"
     inkscape:window-maximized="1"
     inkscape:current-layer="layer1" />
  <defs
     id="defs2" />
  <g
     inkscape:label="Layer 1"
     inkscape:groupmode="layer"
     id="layer1">
    <g
       aria-label="@"
       id="text2784"
       style="font-size:35.2775px;line-height:1.25;font-family:lin;-inkscape-font-specification:lin;letter-spacing:0px;word-spacing:0px;stroke-width:0.264581;fill:#ffffff">
      <path
         d="m 16.192374,32.208358 c 1.940263,0 3.457195,-0.14111 4.868295,-0.493885 0.211665,-0.03528 0.317498,-0.246942 0.317498,-0.493885 v -2.504702 c 0,-0.317498 -0.176388,-0.493885 -0.493885,-0.42333 -1.199435,0.246942 -2.504703,0.352775 -4.021635,0.352775 -7.5846627,0 -12.9821202,-3.986358 -12.9821202,-12.347125 0,-8.6077105 5.5385675,-12.735178 12.7704552,-12.735178 7.443552,0 12.170737,4.0569125 12.170737,11.535743 0,3.52775 -1.058325,5.92662 -2.53998,5.92662 -1.375822,0 -2.010817,-0.811383 -2.010817,-2.53998 V 8.4666006 c 0,-0.28222 -0.176388,-0.4586076 -0.458608,-0.4586076 h -2.610535 c -0.28222,0 -0.458607,0.1411101 -0.458607,0.4586076 l -0.07056,1.9755404 c -1.19943,-1.7285979 -3.17497,-2.786923 -5.43273,-2.786923 -4.691908,0 -7.8316052,3.457195 -7.8316052,8.501878 0,5.044682 3.1396972,8.501877 7.8316052,8.501877 2.53998,0 4.727185,-1.340545 5.820787,-3.457195 0.42333,2.222483 2.25776,3.457195 4.586075,3.457195 4.162745,0 7.0555,-3.80997 7.0555,-9.560202 C 32.702244,6.1382855 26.493404,5.1498413e-7 16.650982,5.1498413e-7 6.8791143,5.1498413e-7 1.7547607e-6,6.455783 1.7547607e-6,16.298206 1.7547607e-6,25.576188 6.2441193,32.208358 16.192374,32.208358 Z M 16.015987,20.954836 c -2.610535,0 -4.444965,-1.97554 -4.444965,-4.79774 0,-2.8222 1.83443,-4.79774 4.444965,-4.79774 2.610535,0 4.444965,1.97554 4.444965,4.79774 0,2.8222 -1.83443,4.79774 -4.444965,4.79774 z"
         style="font-weight:bold;font-family:'LINE Seed Sans';-inkscape-font-specification:'LINE Seed Sans Bold';fill:#ffffff"
         id="path26129" />
    </g>
  </g>
</svg>
