<svg height="32.208mm" viewBox="0 0 32.701999 32.208001" width="32.702mm" xmlns="http://www.w3.org/2000/svg"><path d="m16.192374 32.208358c1.940263 0 3.457195-.14111 4.868295-.493885.211665-.03528.317498-.246942.317498-.493885v-2.504702c0-.317498-.176388-.493885-.493885-.42333-1.199435.246942-2.504703.352775-4.021635.352775-7.5846627 0-12.9821202-3.986358-12.9821202-12.347125 0-8.6077105 5.5385675-12.735178 12.7704552-12.735178 7.443552 0 12.170737 4.0569125 12.170737 11.535743 0 3.52775-1.058325 5.92662-2.53998 5.92662-1.375822 0-2.010817-.811383-2.010817-2.53998v-10.0188104c0-.28222-.176388-.4586076-.458608-.4586076h-2.610535c-.28222 0-.458607.1411101-.458607.4586076l-.07056 1.9755404c-1.19943-1.7285979-3.17497-2.786923-5.43273-2.786923-4.691908 0-7.8316052 3.457195-7.8316052 8.501878 0 5.044682 3.1396972 8.501877 7.8316052 8.501877 2.53998 0 4.727185-1.340545 5.820787-3.457195.42333 2.222483 2.25776 3.457195 4.586075 3.457195 4.162745 0 7.0555-3.80997 7.0555-9.560202 0-8.9604855-6.20884-15.09877049-16.051262-15.09877049-9.7718677 0-16.65098025 6.45578249-16.65098025 16.29820549 0 9.277982 6.24411755 15.910152 16.19237225 15.910152zm-.176387-11.253522c-2.610535 0-4.444965-1.97554-4.444965-4.79774s1.83443-4.79774 4.444965-4.79774 4.444965 1.97554 4.444965 4.79774-1.83443 4.79774-4.444965 4.79774z" fill="#fff" stroke-width=".264581"/></svg>