<svg height="76.248001" width="75.766998" xmlns="http://www.w3.org/2000/svg"><path d="m5.5996094 0c-3.0923437 0-5.5996094 2.4471627-5.5996094 5.4628906v65.3222654c0 3.016747 2.5072657 5.462891 5.5996094 5.462891h64.5683596c3.092242 0 5.599609-2.446144 5.599609-5.462891v-65.3222654c0-3.0157279-2.507367-5.4628906-5.599609-5.4628906zm11.7207026 12.798828c3.915047 0 6.326017 2.570789 6.400391 5.949219 0 3.304056-2.483864 5.949219-6.474609 5.949219h-.07617c-3.840469 0-6.322266-2.645163-6.322266-5.949219 0-3.37843 2.558018-5.949219 6.472656-5.949219zm33.736329 15.791016c7.529233 0 13.175781 4.920668 13.175781 15.496094v19.742187h-11.44336v-18.419922c0-4.628531-1.655852-7.785156-5.796874-7.785156-3.161422 0-5.043807 2.127601-5.871094 4.183594-.302184.735593-.376953 1.763953-.376953 2.792968v19.228516h-11.44336s.150175-31.20094 0-34.431641h11.44336v4.88086c1.519599-2.346579 4.233263-5.6875 10.3125-5.6875zm-10.3125 5.6875c-.02361.03646-.05314.07732-.07617.113281h.07617zm-29.220703-4.88086h11.443359v34.431641h-11.443359z" fill="#fff" transform="translate(0 -.000004)"/></svg>