<svg height="114.301" viewBox="409.289 277.787 163.27901 114.301" width="163.27901" xmlns="http://www.w3.org/2000/svg"><path d="m81.638672 0s-51.060587.00009439-63.789063 3.4140625c-7.029496 1.8817163-12.5538302 7.4059925-14.4355465 14.4355465-3.41396811 12.728419-3.4140625 39.300782-3.4140625 39.300782s.00009439 26.572248 3.4140625 39.300781c1.8817163 7.029498 7.4060505 12.554158 14.4355465 14.435548 12.728476 3.41416 63.789063 3.41406 63.789063 3.41406s51.063058.0001 63.791018-3.41406c7.02949-1.88139 12.55415-7.40605 14.43554-14.435548 3.41417-12.728533 3.41407-39.300781 3.41407-39.300781s-.0136-26.572363-3.41407-39.300782c-1.88139-7.029554-7.40605-12.5538302-14.43554-14.4355465-12.72796-3.41396811-63.791018-3.4140625-63.791018-3.4140625zm-16.34375 32.664062 42.419918 24.488282-42.419918 24.490234z" fill="#fff" preserveAspectRatio="xMidYMid meet" stroke-width="5.71504" transform="matrix(.99999998 0 0 .99999998 409.289 277.787001)" viewBox="0 0 90 20"/></svg>