<?xml version="1.0" encoding="UTF-8" standalone="no"?>
<svg
   viewBox="409.289 277.787 163.27901 114.301"
   width="163.27901"
   height="114.301"
   version="1.1"
   id="svg27"
   sodipodi:docname="YouTube.svg"
   inkscape:version="1.1.2 (0a00cf5339, 2022-02-04)"
   xmlns:inkscape="http://www.inkscape.org/namespaces/inkscape"
   xmlns:sodipodi="http://sodipodi.sourceforge.net/DTD/sodipodi-0.dtd"
   xmlns="http://www.w3.org/2000/svg"
   xmlns:svg="http://www.w3.org/2000/svg">
  <defs
     id="defs31" />
  <sodipodi:namedview
     id="namedview29"
     pagecolor="#ffffff"
     bordercolor="#666666"
     borderopacity="1.0"
     inkscape:pageshadow="2"
     inkscape:pageopacity="0.0"
     inkscape:pagecheckerboard="0"
     showgrid="false"
     inkscape:zoom="3.6203867"
     inkscape:cx="57.038106"
     inkscape:cy="65.186407"
     inkscape:window-width="1366"
     inkscape:window-height="731"
     inkscape:window-x="0"
     inkscape:window-y="0"
     inkscape:window-maximized="1"
     inkscape:current-layer="svg27" />
  <g
     viewBox="0 0 90 20"
     preserveAspectRatio="xMidYMid meet"
     class="style-scope yt-icon"
     transform="matrix(5.715038,0,0,5.715038,409.28876,277.78723)"
     id="g25"
     style="fill:#ffffff">
    <g
       class="style-scope yt-icon"
       id="g6"
       style="display:inline;fill:#ffffff">
      <path
         id="path2"
         style="display:inline;stroke-width:5.71504;fill:#ffffff"
         class="style-scope yt-icon"
         d="m 81.638672,0 c 0,0 -51.060587,9.4391906e-5 -63.789063,3.4140625 C 10.820113,5.2957788 5.2957788,10.820055 3.4140625,17.849609 9.4391906e-5,30.578028 0,57.150391 0,57.150391 c 0,0 9.4391906e-5,26.572248 3.4140625,39.300781 1.8817163,7.029498 7.4060505,12.554158 14.4355465,14.435548 12.728476,3.41416 63.789063,3.41406 63.789063,3.41406 0,0 51.063058,1e-4 63.791018,-3.41406 7.02949,-1.88139 12.55415,-7.40605 14.43554,-14.435548 3.41417,-12.728533 3.41407,-39.300781 3.41407,-39.300781 0,0 -0.0136,-26.572363 -3.41407,-39.300782 C 157.98384,10.820055 152.45918,5.2957788 145.42969,3.4140625 132.70173,9.4391906e-5 81.638672,0 81.638672,0 Z M 65.294922,32.664062 107.71484,57.152344 65.294922,81.642578 Z"
         transform="matrix(0.17497696,0,0,0.17497696,4.1994471e-5,-4.0244702e-5)" />
    </g>
    <g
       class="style-scope yt-icon"
       id="g23"
       style="display:inline;fill:#ffffff">
      <g
         id="youtube-paths"
         class="style-scope yt-icon"
         style="fill:#ffffff" />
    </g>
  </g>
</svg>
