<?xml version="1.0" encoding="UTF-8" standalone="no"?>
<!-- Created with Inkscape (http://www.inkscape.org/) -->

<svg
   inkscape:version="1.1.2 (0a00cf5339, 2022-02-04)"
   sodipodi:docname="Simple-Card-Deleter-Logo.svg"
   width="256mm"
   height="256mm"
   viewBox="0 0 256 256"
   version="1.1"
   id="svg5"
   xmlns:inkscape="http://www.inkscape.org/namespaces/inkscape"
   xmlns:sodipodi="http://sodipodi.sourceforge.net/DTD/sodipodi-0.dtd"
   xmlns="http://www.w3.org/2000/svg"
   xmlns:svg="http://www.w3.org/2000/svg">
  <sodipodi:namedview
     id="namedview7"
     pagecolor="#ffffff"
     bordercolor="#666666"
     borderopacity="1.0"
     inkscape:pageshadow="2"
     inkscape:pageopacity="0.0"
     inkscape:pagecheckerboard="0"
     inkscape:document-units="mm"
     showgrid="false"
     inkscape:zoom="0.46947952"
     inkscape:cx="639.00551"
     inkscape:cy="242.8221"
     inkscape:window-width="1366"
     inkscape:window-height="731"
     inkscape:window-x="0"
     inkscape:window-y="0"
     inkscape:window-maximized="1"
     inkscape:current-layer="layer1" />
  <defs
     id="defs2" />
  <g
     inkscape:label="Layer 1"
     inkscape:groupmode="layer"
     id="layer1">
    <circle
       style="fill:#ef0289;fill-opacity:1;stroke:none;stroke-width:6.90427;stroke-linecap:square;stroke-linejoin:round;stroke-miterlimit:0;stroke-opacity:1"
       id="path846"
       cx="128"
       cy="128"
       r="125.64456" />
    <path
       id="path16814"
       style="display:inline;fill:#ffffff;fill-opacity:1;stroke-width:1.38133"
       sodipodi:type="inkscape:offset"
       inkscape:radius="0"
       inkscape:original="M 104.62109 43.130859 A 14.946063 14.946063 0 0 0 89.716797 58.035156 L 89.716797 71.337891 L 58.304688 71.337891 C 53.87061 71.337891 51.619141 73.078059 51.619141 77.664062 L 51.619141 96.699219 L 62.310547 96.699219 L 69.009766 185.4082 A 30.817621 30.817621 0 0 0 77.767578 204.88477 A 26.797932 26.797932 0 0 0 96.912109 212.86914 L 159.07227 212.86914 A 26.811745 26.811745 0 0 0 178.24609 204.88477 A 30.789994 30.789994 0 0 0 186.99023 185.4082 L 193.7168 96.699219 L 204.38086 96.699219 L 204.38086 77.070312 L 204.38086 76.283203 A 5.3319598 5.3319598 0 0 0 199.90625 71.40625 A 8.5504739 8.5504739 0 0 0 198.52344 71.324219 L 166.26953 71.324219 L 166.26953 58.035156 A 14.946063 14.946063 0 0 0 151.40625 43.130859 L 104.62109 43.130859 z M 106.375 59.775391 L 149.69336 59.775391 L 149.69336 71.324219 L 106.375 71.324219 L 106.375 59.775391 z M 75.433594 96.933594 L 180.59375 96.933594 L 180.59375 97.001953 L 173.92188 184.44141 A 17.68111 17.68111 0 0 1 168.96289 195.63086 A 13.896247 13.896247 0 0 1 159.03125 199.77344 L 96.871094 199.77344 A 13.813367 13.813367 0 0 1 86.939453 195.63086 A 17.708736 17.708736 0 0 1 82.007812 184.44141 L 75.433594 96.933594 z M 140.26172 118.21094 A 6.5475359 6.5475359 0 0 0 137.08203 124.13281 L 137.08203 172.58984 A 6.5475359 6.5475359 0 1 0 150.16406 172.58984 L 150.16406 124.13281 A 6.5475359 6.5475359 0 0 0 140.26172 118.21094 z M 109.04492 118.21289 A 6.5475359 6.5475359 0 0 0 105.86328 124.13281 L 105.86328 172.58984 A 6.5475359 6.5475359 0 1 0 118.94531 172.58984 L 118.94531 124.13281 A 6.5475359 6.5475359 0 0 0 109.04492 118.21289 z "
       d="M 104.62109,43.130859 A 14.946063,14.946063 0 0 0 89.716797,58.035156 V 71.337891 H 58.304688 c -4.434078,0 -6.685547,1.740168 -6.685547,6.326171 v 19.035157 h 10.691406 l 6.699219,88.708981 a 30.817621,30.817621 0 0 0 8.757812,19.47657 26.797932,26.797932 0 0 0 19.144531,7.98437 h 62.160161 a 26.811745,26.811745 0 0 0 19.17382,-7.98437 30.789994,30.789994 0 0 0 8.74414,-19.47657 l 6.72657,-88.708981 h 10.66406 V 77.070312 76.283203 a 5.3319598,5.3319598 0 0 0 -4.47461,-4.876953 8.5504739,8.5504739 0 0 0 -1.38281,-0.08203 H 166.26953 V 58.035156 A 14.946063,14.946063 0 0 0 151.40625,43.130859 Z m 1.75391,16.644532 h 43.31836 V 71.324219 H 106.375 Z M 75.433594,96.933594 H 180.59375 v 0.06836 l -6.67187,87.439457 a 17.68111,17.68111 0 0 1 -4.95899,11.18945 13.896247,13.896247 0 0 1 -9.93164,4.14258 H 96.871094 a 13.813367,13.813367 0 0 1 -9.931641,-4.14258 17.708736,17.708736 0 0 1 -4.931641,-11.18945 z m 64.828126,21.277346 a 6.5475359,6.5475359 0 0 0 -3.17969,5.92187 v 48.45703 a 6.5475359,6.5475359 0 1 0 13.08203,0 v -48.45703 a 6.5475359,6.5475359 0 0 0 -9.90234,-5.92187 z m -31.2168,0.002 a 6.5475359,6.5475359 0 0 0 -3.18164,5.91992 v 48.45703 a 6.5475359,6.5475359 0 1 0 13.08203,0 v -48.45703 a 6.5475359,6.5475359 0 0 0 -9.90039,-5.91992 z" />
  </g>
</svg>
