<svg width="210mm" height="61.26mm" version="1.1" viewBox="0 0 210 61.26" xmlns="http://www.w3.org/2000/svg">
 <g transform="translate(-7.8573 -9.9908)">
  <g transform="matrix(.78036 .52672 -.84545 .48617 40.654 -8.8555)">
   <rect x="41.774" y="38.337" width="39.241" height="39.241" ry="2.6978" fill="#282828" stroke="#1d2021" stroke-linecap="square" stroke-miterlimit="5" stroke-width="1.7302" style="paint-order:stroke fill markers"/>
   <g stroke-dasharray="7.16635, 3.58317" stroke-linecap="round" stroke-miterlimit="1">
    <path d="m65.836 40.986a0.89579 0.89579 0 0 0-0.89648 0.89648 0.89579 0.89579 0 0 0 0.89648 0.89453h7.166a0.89579 0.89579 0 0 0 0.89648-0.89453 0.89579 0.89579 0 0 0-0.89648-0.89648z" color="#000000" fill="#fbc900" style="-inkscape-stroke:none;paint-order:stroke fill markers"/>
    <path d="m55.086 40.986a0.89579 0.89579 0 0 0-0.89453 0.89648 0.89579 0.89579 0 0 0 0.89453 0.89453h7.166a0.89579 0.89579 0 0 0 0.89648-0.89453 0.89579 0.89579 0 0 0-0.89648-0.89648z" color="#000000" fill="#fbc900" style="-inkscape-stroke:none;paint-order:stroke fill markers"/>
    <path d="m44.338 40.986a0.89579 0.89579 0 0 0-0.89648 0.89648 0.89579 0.89579 0 0 0 0.89648 0.89453h7.166a0.89579 0.89579 0 0 0 0.89453-0.89453 0.89579 0.89579 0 0 0-0.89453-0.89648z" color="#000000" fill="#f20" style="-inkscape-stroke:none;paint-order:stroke fill markers"/>
   </g>
   <g stroke-dasharray="6.76464, 3.38232" stroke-linecap="round" stroke-miterlimit="5">
    <path d="m64.533 46.553a0.84558 0.84558 0 0 0-0.8457 0.8457 0.84558 0.84558 0 0 0 0.8457 0.8457h5.4414a0.84558 0.84558 0 0 0 0.8457-0.8457 0.84558 0.84558 0 0 0-0.8457-0.8457z" color="#000000" fill="#fbc900" style="-inkscape-stroke:none;paint-order:stroke fill markers"/>
    <path d="m54.387 46.553a0.84558 0.84558 0 0 0-0.8457 0.8457 0.84558 0.84558 0 0 0 0.8457 0.8457h6.7637a0.84558 0.84558 0 0 0 0.8457-0.8457 0.84558 0.84558 0 0 0-0.8457-0.8457z" color="#000000" fill="#fbc900" style="-inkscape-stroke:none;paint-order:stroke fill markers"/>
    <path d="m44.238 46.553a0.84558 0.84558 0 0 0-0.8457 0.8457 0.84558 0.84558 0 0 0 0.8457 0.8457h6.7656a0.84558 0.84558 0 0 0 0.8457-0.8457 0.84558 0.84558 0 0 0-0.8457-0.8457z" color="#000000" fill="#f20" style="-inkscape-stroke:none;paint-order:stroke fill markers"/>
   </g>
   <g stroke-dasharray="6.77916, 3.38958" stroke-linecap="round" stroke-miterlimit="5">
    <path d="m64.619 68.615a0.8474 0.8474 0 0 0-0.84766 0.84766 0.8474 0.8474 0 0 0 0.84766 0.84766h5.5078a0.8474 0.8474 0 0 0 0.84766-0.84766 0.8474 0.8474 0 0 0-0.84766-0.84766z" color="#000000" fill="#da7997" style="-inkscape-stroke:none;paint-order:stroke fill markers"/>
    <path d="m54.451 68.615a0.8474 0.8474 0 0 0-0.84766 0.84766 0.8474 0.8474 0 0 0 0.84766 0.84766h6.7773a0.8474 0.8474 0 0 0 0.84766-0.84766 0.8474 0.8474 0 0 0-0.84766-0.84766z" color="#000000" fill="#fbc900" style="-inkscape-stroke:none;paint-order:stroke fill markers"/>
    <path d="m44.281 68.615a0.8474 0.8474 0 0 0-0.84766 0.84766 0.8474 0.8474 0 0 0 0.84766 0.84766h6.7793a0.8474 0.8474 0 0 0 0.84766-0.84766 0.8474 0.8474 0 0 0-0.84766-0.84766z" color="#000000" fill="#f20" style="-inkscape-stroke:none;paint-order:stroke fill markers"/>
   </g>
   <g stroke-dasharray="7.20772, 3.60386" stroke-linecap="round" stroke-miterlimit="5">
    <path d="m66.016 74.078a0.90096 0.90096 0 0 0-0.90039 0.90234 0.90096 0.90096 0 0 0 0.90039 0.90039h7.207a0.90096 0.90096 0 0 0 0.90039-0.90039 0.90096 0.90096 0 0 0-0.90039-0.90234z" color="#000000" fill="#eae1af" style="-inkscape-stroke:none;paint-order:stroke fill markers"/>
    <path d="m55.203 74.078a0.90096 0.90096 0 0 0-0.90039 0.90234 0.90096 0.90096 0 0 0 0.90039 0.90039h7.209a0.90096 0.90096 0 0 0 0.90039-0.90039 0.90096 0.90096 0 0 0-0.90039-0.90234z" color="#000000" fill="#f20" style="-inkscape-stroke:none;paint-order:stroke fill markers"/>
    <path d="m44.393 74.078a0.90096 0.90096 0 0 0-0.90234 0.90234 0.90096 0.90096 0 0 0 0.90234 0.90039h7.207a0.90096 0.90096 0 0 0 0.90039-0.90039 0.90096 0.90096 0 0 0-0.90039-0.90234z" color="#000000" fill="#7ea999" style="-inkscape-stroke:none;paint-order:stroke fill markers"/>
   </g>
  </g>
  <g transform="matrix(1 .55702 0 1 -22.889 -51.805)" fill="#7ea9cb">
   <path d="m60.645 45.461v25.299h1.5v-25.299z" color="#000000" stroke-linecap="square" stroke-miterlimit="5" style="-inkscape-stroke:none;paint-order:stroke fill markers"/>
   <path d="m61.395 46.21v23.798" color="#000000" stroke-linecap="square" stroke-miterlimit="5" style="-inkscape-stroke:none;paint-order:stroke fill markers"/>
   <path d="m61.395 71.509-4.5-4.5v-3l4.5 4.5 4.5-4.5v3z" color="#000000" fill-rule="evenodd" style="-inkscape-stroke:none"/>
  </g>
  <g transform="matrix(.68434 .46191 -.74142 .42635 40.52 -25.229)">
   <rect x="41.074" y="37.637" width="40.641" height="40.641" ry="3.3159" fill="#282828" stroke="#1d2021" stroke-linecap="square" stroke-miterlimit="5" stroke-width="1.792" style="paint-order:stroke fill markers"/>
   <g fill="#eae1af">
    <path d="m71.217 40.986a0.896 0.896 0 0 0-0.89648 0.89648 0.896 0.896 0 0 0 0.89648 0.89648h2.0156a0.896 0.896 0 0 0 0.89648-0.89648 0.896 0.896 0 0 0-0.89648-0.89648z" color="#000000" style="-inkscape-stroke:none;paint-order:stroke fill markers"/>
    <path d="m62.258 40.986a0.896 0.896 0 0 0-0.89648 0.89648 0.896 0.896 0 0 0 0.89648 0.89648h5.375a0.896 0.896 0 0 0 0.89648-0.89648 0.896 0.896 0 0 0-0.89648-0.89648z" color="#000000" style="-inkscape-stroke:none;paint-order:stroke fill markers"/>
    <path d="m53.297 40.986a0.896 0.896 0 0 0-0.89648 0.89648 0.896 0.896 0 0 0 0.89648 0.89648h5.377a0.896 0.896 0 0 0 0.89453-0.89648 0.896 0.896 0 0 0-0.89453-0.89648z" color="#000000" style="-inkscape-stroke:none;paint-order:stroke fill markers"/>
    <path d="m44.338 40.986a0.896 0.896 0 0 0-0.89648 0.89648 0.896 0.896 0 0 0 0.89648 0.89648h5.375a0.896 0.896 0 0 0 0.89648-0.89648 0.896 0.896 0 0 0-0.89648-0.89648z" color="#000000" style="-inkscape-stroke:none;paint-order:stroke fill markers"/>
    <path d="m69.605 46.553a0.84558 0.84558 0 0 0-0.84375 0.8457 0.84558 0.84558 0 0 0 0.84375 0.8457h0.36914a0.84558 0.84558 0 0 0 0.8457-0.8457 0.84558 0.84558 0 0 0-0.8457-0.8457z" color="#000000" style="-inkscape-stroke:none;paint-order:stroke fill markers"/>
    <path d="m61.15 46.553a0.84558 0.84558 0 0 0-0.8457 0.8457 0.84558 0.84558 0 0 0 0.8457 0.8457h5.0742a0.84558 0.84558 0 0 0 0.8457-0.8457 0.84558 0.84558 0 0 0-0.8457-0.8457z" color="#000000" style="-inkscape-stroke:none;paint-order:stroke fill markers"/>
    <path d="m52.695 46.553a0.84558 0.84558 0 0 0-0.8457 0.8457 0.84558 0.84558 0 0 0 0.8457 0.8457h5.0723a0.84558 0.84558 0 0 0 0.8457-0.8457 0.84558 0.84558 0 0 0-0.8457-0.8457z" color="#000000" style="-inkscape-stroke:none;paint-order:stroke fill markers"/>
    <path d="m44.238 46.553a0.84558 0.84558 0 0 0-0.8457 0.8457 0.84558 0.84558 0 0 0 0.8457 0.8457h5.0742a0.84558 0.84558 0 0 0 0.8457-0.8457 0.84558 0.84558 0 0 0-0.8457-0.8457z" color="#000000" style="-inkscape-stroke:none;paint-order:stroke fill markers"/>
    <path d="m74.912 51.963a0.95149 0.95149 0 0 0-0.95117 0.95117 0.95149 0.95149 0 0 0 0.95117 0.95312h2.1367a0.95149 0.95149 0 0 0 0.95312-0.95312 0.95149 0.95149 0 0 0-0.95312-0.95117z" color="#000000" style="-inkscape-stroke:none;paint-order:stroke fill markers"/>
    <path d="m67.301 51.963a0.95149 0.95149 0 0 0-0.95312 0.95117 0.95149 0.95149 0 0 0 0.95312 0.95312h3.8047a0.95149 0.95149 0 0 0 0.95117-0.95312 0.95149 0.95149 0 0 0-0.95117-0.95117z" color="#000000" style="-inkscape-stroke:none;paint-order:stroke fill markers"/>
    <path d="m59.688 51.963a0.95149 0.95149 0 0 0-0.95117 0.95117 0.95149 0.95149 0 0 0 0.95117 0.95312h3.8066a0.95149 0.95149 0 0 0 0.95117-0.95312 0.95149 0.95149 0 0 0-0.95117-0.95117z" color="#000000" style="-inkscape-stroke:none;paint-order:stroke fill markers"/>
    <path d="m52.076 51.963a0.95149 0.95149 0 0 0-0.95117 0.95117 0.95149 0.95149 0 0 0 0.95117 0.95312h3.8066a0.95149 0.95149 0 0 0 0.95117-0.95312 0.95149 0.95149 0 0 0-0.95117-0.95117z" color="#000000" style="-inkscape-stroke:none;paint-order:stroke fill markers"/>
    <path d="m44.465 51.963a0.95149 0.95149 0 0 0-0.95312 0.95117 0.95149 0.95149 0 0 0 0.95312 0.95312h3.8047a0.95149 0.95149 0 0 0 0.95117-0.95312 0.95149 0.95149 0 0 0-0.95117-0.95117z" color="#000000" style="-inkscape-stroke:none;paint-order:stroke fill markers"/>
    <path d="m70.297 57.52a0.91229 0.91229 0 0 0-0.91211 0.91211 0.91229 0.91229 0 0 0 0.91211 0.91211h3.6484a0.91229 0.91229 0 0 0 0.91211-0.91211 0.91229 0.91229 0 0 0-0.91211-0.91211z" color="#000000" style="-inkscape-stroke:none;paint-order:stroke fill markers"/>
    <path d="m62.998 57.52a0.91229 0.91229 0 0 0-0.91211 0.91211 0.91229 0.91229 0 0 0 0.91211 0.91211h3.6484a0.91229 0.91229 0 0 0 0.91406-0.91211 0.91229 0.91229 0 0 0-0.91406-0.91211z" color="#000000" style="-inkscape-stroke:none;paint-order:stroke fill markers"/>
    <path d="m55.699 57.52a0.91229 0.91229 0 0 0-0.91211 0.91211 0.91229 0.91229 0 0 0 0.91211 0.91211h3.6504a0.91229 0.91229 0 0 0 0.91211-0.91211 0.91229 0.91229 0 0 0-0.91211-0.91211z" color="#000000" style="-inkscape-stroke:none;paint-order:stroke fill markers"/>
    <path d="m48.402 57.52a0.91229 0.91229 0 0 0-0.91406 0.91211 0.91229 0.91229 0 0 0 0.91406 0.91211h3.6484a0.91229 0.91229 0 0 0 0.91211-0.91211 0.91229 0.91229 0 0 0-0.91211-0.91211z" color="#000000" style="-inkscape-stroke:none;paint-order:stroke fill markers"/>
    <path d="m44.387 57.52a0.91229 0.91229 0 0 0-0.91211 0.91211 0.91229 0.91229 0 0 0 0.91211 0.91211h0.36523a0.91229 0.91229 0 0 0 0.91211-0.91211 0.91229 0.91229 0 0 0-0.91211-0.91211z" color="#000000" style="-inkscape-stroke:none;paint-order:stroke fill markers"/>
    <path d="m61.506 63.166a0.78197 0.78197 0 0 0-0.7832 0.78125 0.78197 0.78197 0 0 0 0.7832 0.78125h3.127a0.78197 0.78197 0 0 0 0.78125-0.78125 0.78197 0.78197 0 0 0-0.78125-0.78125z" color="#000000" style="-inkscape-stroke:none;paint-order:stroke fill markers"/>
    <path d="m55.25 63.166a0.78197 0.78197 0 0 0-0.7832 0.78125 0.78197 0.78197 0 0 0 0.7832 0.78125h3.127a0.78197 0.78197 0 0 0 0.78125-0.78125 0.78197 0.78197 0 0 0-0.78125-0.78125z" color="#000000" style="-inkscape-stroke:none;paint-order:stroke fill markers"/>
    <path d="m48.994 63.166a0.78197 0.78197 0 0 0-0.7832 0.78125 0.78197 0.78197 0 0 0 0.7832 0.78125h3.127a0.78197 0.78197 0 0 0 0.7832-0.78125 0.78197 0.78197 0 0 0-0.7832-0.78125z" color="#000000" style="-inkscape-stroke:none;paint-order:stroke fill markers"/>
    <path d="m44.145 63.166a0.78197 0.78197 0 0 0-0.78125 0.78125 0.78197 0.78197 0 0 0 0.78125 0.78125h1.7207a0.78197 0.78197 0 0 0 0.7832-0.78125 0.78197 0.78197 0 0 0-0.7832-0.78125z" color="#000000" style="-inkscape-stroke:none;paint-order:stroke fill markers"/>
    <path d="m64.619 68.615a0.8474 0.8474 0 0 0-0.84766 0.84766 0.8474 0.8474 0 0 0 0.84766 0.84766h3.3887a0.8474 0.8474 0 0 0 0.84766-0.84766 0.8474 0.8474 0 0 0-0.84766-0.84766z" color="#000000" style="-inkscape-stroke:none;paint-order:stroke fill markers"/>
    <path d="m57.84 68.615a0.8474 0.8474 0 0 0-0.84766 0.84766 0.8474 0.8474 0 0 0 0.84766 0.84766h3.3887a0.8474 0.8474 0 0 0 0.84766-0.84766 0.8474 0.8474 0 0 0-0.84766-0.84766z" color="#000000" style="-inkscape-stroke:none;paint-order:stroke fill markers"/>
    <path d="m51.061 68.615a0.8474 0.8474 0 0 0-0.84766 0.84766 0.8474 0.8474 0 0 0 0.84766 0.84766h3.3906a0.8474 0.8474 0 0 0 0.8457-0.84766 0.8474 0.8474 0 0 0-0.8457-0.84766z" color="#000000" style="-inkscape-stroke:none;paint-order:stroke fill markers"/>
    <path d="m44.281 68.615a0.8474 0.8474 0 0 0-0.84766 0.84766 0.8474 0.8474 0 0 0 0.84766 0.84766h3.3906a0.8474 0.8474 0 0 0 0.84766-0.84766 0.8474 0.8474 0 0 0-0.84766-0.84766z" color="#000000" style="-inkscape-stroke:none;paint-order:stroke fill markers"/>
    <path d="m71.602 74.078a0.90096 0.90096 0 0 0-0.90039 0.90234 0.90096 0.90096 0 0 0 0.90039 0.90039h2.0078a0.90096 0.90096 0 0 0 0.90039-0.90039 0.90096 0.90096 0 0 0-0.90039-0.90234z" color="#000000" style="-inkscape-stroke:none;paint-order:stroke fill markers"/>
    <path d="m64.393 74.078a0.90096 0.90096 0 0 0-0.90039 0.90234 0.90096 0.90096 0 0 0 0.90039 0.90039h3.6055a0.90096 0.90096 0 0 0 0.90039-0.90039 0.90096 0.90096 0 0 0-0.90039-0.90234z" color="#000000" style="-inkscape-stroke:none;paint-order:stroke fill markers"/>
    <path d="m57.186 74.078a0.90096 0.90096 0 0 0-0.90039 0.90234 0.90096 0.90096 0 0 0 0.90039 0.90039h3.6035a0.90096 0.90096 0 0 0 0.90234-0.90039 0.90096 0.90096 0 0 0-0.90234-0.90234z" color="#000000" style="-inkscape-stroke:none;paint-order:stroke fill markers"/>
    <path d="m49.979 74.078a0.90096 0.90096 0 0 0-0.90234 0.90234 0.90096 0.90096 0 0 0 0.90234 0.90039h3.6035a0.90096 0.90096 0 0 0 0.90039-0.90039 0.90096 0.90096 0 0 0-0.90039-0.90234z" color="#000000" style="-inkscape-stroke:none;paint-order:stroke fill markers"/>
    <path d="m44.393 74.078a0.90096 0.90096 0 0 0-0.90234 0.90234 0.90096 0.90096 0 0 0 0.90234 0.90039h1.9824a0.90096 0.90096 0 0 0 0.90039-0.90039 0.90096 0.90096 0 0 0-0.90039-0.90234z" color="#000000" style="-inkscape-stroke:none;paint-order:stroke fill markers"/>
   </g>
  </g>
 </g>
 <path d="m78.591 42.177c5.4865 0 8.5684-3.1835 8.5684-6.8411 0-3.1158-1.8288-4.9107-4.7414-5.9945l-2.6755-1.1515c-2.1336-0.77894-3.6238-1.2869-3.6238-2.6078 0-1.2869 1.1176-1.9982 2.7771-1.9982 2.1675 0 3.556 0.64347 5.08 1.7611l2.54-3.1496c-1.9982-1.8966-4.6736-2.9126-7.3491-2.9126-4.7752 0-8.0942 2.9126-8.0942 6.5702 0 3.2174 2.2352 5.1139 4.7075 6.0283l2.8448 1.2192c2.0998 0.88054 3.4206 1.2869 3.4206 2.8448 0 1.1176-0.98214 1.9304-3.1158 1.9304s-4.1995-0.94828-5.859-2.303l-2.8787 3.4206c2.3707 2.0998 5.4187 3.1835 8.399 3.1835zm17.882-0.4064h5.0123v-17.882h6.6041v-4.1995h-18.22v4.1995h6.6041zm15.782 0h14.969v-4.1995h-9.9569v-5.08h8.162v-4.1656h-8.162v-4.4366h9.6182v-4.1995h-14.631zm17.814 0h5.3171l2.303-4.5043c0.54188-1.1515 1.0838-2.2691 1.6256-3.6238h0.13547c0.6096 1.3547 1.1515 2.4723 1.7611 3.6238l2.4046 4.5043h5.5542l-6.4347-11.108 6.0622-10.973h-5.351l-1.9643 4.1656c-0.47414 1.016-0.94828 2.1675-1.4902 3.556h-0.13547c-0.67734-1.3885-1.1853-2.54-1.6934-3.556l-2.1336-4.1656h-5.5881l6.0622 10.736zm22.081-9.415h15.579v-3.5222h-15.579zm21.878 9.415h4.9784v-8.7377c1.4224-3.0142 3.5899-4.0979 5.6558-4.0979 1.2531 0 1.9304 0.16934 2.9803 0.47414l1.016-4.1656c-0.98214-0.44027-1.7611-0.67734-3.2512-0.67734-2.6755 0-5.1478 1.3208-6.8073 4.064h-0.10161l-0.4064-3.6576h-4.064zm26.416 0.4064c5.3849 0 8.2636-2.3707 8.2636-5.4187 0-2.7432-1.4224-4.1995-6.6041-5.3849-2.8448-0.64347-3.8947-0.84668-3.8947-1.795 0-0.77894 0.77894-1.3208 2.3368-1.3208 1.8627 0 3.7931 0.57574 5.4864 1.5917l2.2352-2.9803c-1.7611-1.1176-4.2672-2.303-7.2814-2.303-4.7752 0-7.7217 2.1336-7.7217 5.2494 0 2.6078 1.8288 4.2672 6.4009 5.2494 3.2851 0.71121 4.1318 1.0499 4.1318 1.9982 0 0.81281-0.84668 1.4224-2.6755 1.4224-2.4046 0-4.7075-0.71121-6.7734-1.9982l-2.1336 3.1158c2.1336 1.4224 5.2155 2.5739 8.2297 2.5739z" fill="#fff" stroke-linecap="round" stroke-miterlimit="1" stroke-width="1.627" style="paint-order:stroke fill markers" aria-label="STEX-rs"/>
</svg>
